<svg width="645" height="88" viewBox="0 0 645 88" fill="none" xmlns="http://www.w3.org/2000/svg">
<path d="M13.554 14.444V29.454C15.416 29.112 17.316 28.77 19.14 28.428L19.33 30.936C12.908 32.19 6.03 33.444 1.28 34.356L0.862 31.62C1.774 31.468 2.876 31.316 3.978 31.088V7.87H6.41V30.708L11.008 29.91V0.269999H13.554V12.012H19.102V14.444H13.554ZM25.714 31.164H31.186C32.858 31.164 33.124 29.758 33.314 24.324C33.998 24.78 34.986 25.274 35.708 25.464C35.404 31.506 34.682 33.596 31.376 33.596H25.448C22.066 33.596 21.116 32.57 21.116 28.694V0.269999H23.738V14.292C26.968 12.544 30.274 10.378 32.288 8.554L34.378 10.53C31.452 12.734 27.462 14.976 23.738 16.838V28.77C23.738 30.746 24.042 31.164 25.714 31.164ZM53.872 10.188L56.152 10.948C52.656 17.598 46.842 22.88 40.534 26.262C40.268 25.768 39.47 24.704 38.938 24.21C43.004 22.31 46.804 19.46 49.806 16.078C42.244 16.534 41.066 16.686 40.42 16.952C40.306 16.42 39.888 15.204 39.622 14.558C40.306 14.444 40.952 13.836 41.788 13C42.472 12.278 44.448 9.922 46.082 7.376H38.482V5.02H48.362C47.944 3.766 47.108 2.056 46.234 0.725999L48.514 0.117998C49.616 1.6 50.642 3.614 51.022 4.944L50.794 5.02H59.002V7.376H49.046C47.374 9.846 45.436 12.278 43.498 14.254L51.592 13.912C52.428 12.734 53.226 11.518 53.872 10.188ZM56.342 17.408L58.66 18.282C57.14 20.904 55.278 23.336 53.188 25.54C55.354 27.402 57.976 29.834 59.306 31.43L57.482 33.064C56.19 31.506 53.72 29.074 51.592 27.098C48.21 30.214 44.334 32.836 40.382 34.812C40.04 34.242 39.242 33.178 38.71 32.684C46.006 29.492 52.618 24.096 56.342 17.408ZM64.284 4.678V25.692H61.89V4.678H64.284ZM68.692 0.763999H71.2V31.468C71.2 33.216 70.744 33.9 69.68 34.318C68.54 34.736 66.716 34.774 63.486 34.774C63.372 34.09 63.03 33.064 62.65 32.38C65.044 32.456 67.172 32.418 67.78 32.38C68.426 32.38 68.692 32.152 68.692 31.468V0.763999ZM87.616 16.876V8.592H79.294V16.876H87.616ZM79.294 28.58H87.616V19.156H79.294V28.58ZM82.828 0.155998L85.526 0.687998C84.918 2.55 84.196 4.678 83.512 6.312H89.934V30.86H79.294V33.9H76.976V6.312H81.194C81.84 4.526 82.524 1.942 82.828 0.155998ZM108.554 6.236V7.566C107.946 25.008 107.414 30.822 105.894 32.646C105.134 33.672 104.26 33.976 103.006 34.09C101.714 34.204 99.548 34.128 97.42 34.014C97.344 33.254 97.04 32.228 96.584 31.544C99.054 31.772 101.334 31.772 102.17 31.772C102.93 31.772 103.386 31.696 103.766 31.202C105.02 29.872 105.628 24.02 106.122 8.592H96.166C95.102 11.176 93.886 13.532 92.594 15.356C92.138 14.976 91.036 14.292 90.466 13.95C93.05 10.568 95.102 5.324 96.28 0.0799987L98.712 0.611999C98.218 2.512 97.686 4.412 97.04 6.236H108.554ZM102.588 23.336L100.46 24.666C99.282 22.348 96.698 18.586 94.57 15.85L96.508 14.71C98.712 17.408 101.372 21.056 102.588 23.336ZM113.95 17.864L111.936 17.18C112.848 14.634 113.456 10.492 113.722 7.49L115.622 7.756C115.47 10.682 114.862 15.052 113.95 17.864ZM116.61 34.812V0.269999H118.928V34.812H116.61ZM119.46 6.578L121.17 5.894C122.006 7.604 122.88 9.846 123.222 11.176L121.398 12.126C121.094 10.682 120.22 8.326 119.46 6.578ZM127.402 26.946H141.5V23.83H127.402V26.946ZM141.5 18.852H127.402V21.892H141.5V18.852ZM143.894 16.876V31.924C143.894 33.254 143.628 33.9 142.64 34.28C141.614 34.698 139.942 34.698 137.244 34.66C137.13 34.052 136.788 33.14 136.522 32.494C138.498 32.57 140.322 32.57 140.778 32.532C141.348 32.532 141.5 32.38 141.5 31.886V28.884H127.402V34.812H125.008V16.876H143.894ZM135.724 12.582H146.934V14.558H122.272V12.582H133.254V9.732H124.286V7.832H133.254V5.286H123.374V3.31H133.254V0.269999H135.724V3.31H145.87V5.286H135.724V7.832H144.92V9.732H135.724V12.582ZM154.268 21.588L161.336 20.296C161.298 20.98 161.298 21.892 161.336 22.386C152.596 24.172 151.38 24.514 150.696 24.932C150.62 24.438 150.24 23.336 149.936 22.728C150.734 22.576 151.608 21.588 152.786 20.22C153.47 19.46 155.104 17.332 156.852 14.748C151.836 15.394 151 15.622 150.43 15.888C150.316 15.356 149.936 14.216 149.632 13.57C150.278 13.456 150.924 12.544 151.684 11.252C152.558 9.96 155.218 4.982 156.7 0.383999L158.904 1.41C157.27 5.552 155.104 9.846 152.9 13.19L158.296 12.582C159.132 11.252 159.968 9.808 160.69 8.402L162.666 9.618C160.196 13.912 157.232 18.13 154.268 21.588ZM150.354 32.418L149.86 29.986C152.976 29.378 157.726 28.238 162.362 27.174L162.59 29.302C158.258 30.404 153.736 31.582 150.354 32.418ZM179.424 24.704V20.524H169.316V24.704H179.424ZM169.316 31.012H179.424V26.756H169.316V31.012ZM173.04 7.186V12.164H174.142C175.586 10.606 176.954 8.972 178.17 7.186H173.04ZM184.212 14.482H175.13C173.762 15.888 172.28 17.18 170.722 18.358H181.894V34.584H179.424V33.178H169.316V34.736H166.922V21.056C165.706 21.778 164.414 22.538 163.16 23.184C162.818 22.652 162.02 21.626 161.488 21.208C165.25 19.46 168.708 17.18 171.786 14.482H162.286V12.164H170.646V7.186H164.3V4.906H170.646V0.269999H173.04V4.906H178.246V7.072C179.234 5.552 180.184 3.956 180.944 2.322L183.224 3.12C181.59 6.426 179.576 9.466 177.22 12.164H184.212V14.482ZM190.938 35.838L190.14 34.052C193.104 32.76 194.738 30.936 194.928 28.238C194.7 28.276 194.434 28.314 194.206 28.314C192.724 28.314 191.508 27.44 191.508 25.73C191.508 24.02 192.8 23.108 194.244 23.108C196.258 23.108 197.322 24.78 197.322 27.326C197.322 31.43 194.776 34.47 190.938 35.838ZM257.97 8.668H237.108C235.854 11.404 234.334 14.026 232.548 16.42V34.736H230.002V19.46C228.634 20.98 227.114 22.348 225.404 23.526C225.176 22.918 224.53 21.854 224.112 21.322C228.52 18.168 231.902 13.57 234.334 8.668H224.986V6.236H235.398C236.272 4.26 236.956 2.246 237.488 0.269999L240.072 0.915999C239.502 2.702 238.894 4.488 238.172 6.236H257.97V8.668ZM247.748 31.62H257.97V33.976H235.094V31.62H245.24V20.524H236.576V18.168H245.24V10.682H247.748V18.168H256.488V20.524H247.748V31.62ZM268.8 0.459998L271.08 1.106C270.244 3.69 269.218 6.274 268.04 8.744V34.888H265.684V13.076C264.506 15.09 263.214 16.914 261.884 18.51C261.656 17.902 260.972 16.572 260.516 15.964C263.86 12.164 266.9 6.35 268.8 0.459998ZM279.896 19.612H273.36V28.466H279.896V19.612ZM282.138 30.67H273.36V33.14H271.118V17.408H275.488V10.036H270.054V7.718H275.488V0.687998H277.882V7.718H282.974V10.036H277.882V17.408H282.138V30.67ZM291.98 9.846H286.394C286.318 10.074 286.242 10.264 286.166 10.492C286.622 14.558 287.382 19.042 288.94 23.07C290.498 19.384 291.41 14.976 291.98 9.846ZM296.008 9.846H294.222C293.5 16.268 292.284 21.474 290.118 25.73C291.638 28.618 293.652 31.126 296.426 32.912C295.97 33.368 295.21 34.28 294.868 34.926C292.284 33.102 290.346 30.67 288.826 27.934C287.002 30.746 284.722 33.064 281.72 34.964C281.416 34.508 280.58 33.596 280.086 33.216C283.43 31.316 285.9 28.77 287.686 25.616C286.166 22.044 285.254 18.168 284.722 14.444C284.152 15.774 283.506 17.028 282.822 18.13C282.48 17.674 281.644 16.686 281.112 16.268C283.658 12.354 285.254 6.388 286.128 0.269999L288.446 0.649998C288.066 3.006 287.572 5.4 286.964 7.642H296.008V9.846ZM311.056 16.876V8.592H302.734V16.876H311.056ZM302.734 28.58H311.056V19.156H302.734V28.58ZM306.268 0.155998L308.966 0.687998C308.358 2.55 307.636 4.678 306.952 6.312H313.374V30.86H302.734V33.9H300.416V6.312H304.634C305.28 4.526 305.964 1.942 306.268 0.155998ZM331.994 6.236V7.566C331.386 25.008 330.854 30.822 329.334 32.646C328.574 33.672 327.7 33.976 326.446 34.09C325.154 34.204 322.988 34.128 320.86 34.014C320.784 33.254 320.48 32.228 320.024 31.544C322.494 31.772 324.774 31.772 325.61 31.772C326.37 31.772 326.826 31.696 327.206 31.202C328.46 29.872 329.068 24.02 329.562 8.592H319.606C318.542 11.176 317.326 13.532 316.034 15.356C315.578 14.976 314.476 14.292 313.906 13.95C316.49 10.568 318.542 5.324 319.72 0.0799987L322.152 0.611999C321.658 2.512 321.126 4.412 320.48 6.236H331.994ZM326.028 23.336L323.9 24.666C322.722 22.348 320.138 18.586 318.01 15.85L319.948 14.71C322.152 17.408 324.812 21.056 326.028 23.336ZM363.8 27.098V24.058H354.338V27.098H363.8ZM354.338 19.156V22.006H363.8V19.156H354.338ZM343.242 12.582H351.792V9.694H343.242V12.582ZM363.192 9.694H354.338V12.582H363.192V9.694ZM370.26 22.006V24.058H366.346V30.784H363.8V29.074H354.338V31.886C354.338 33.596 353.844 34.204 352.742 34.584C351.564 34.964 349.588 35.002 346.434 35.002C346.32 34.356 345.864 33.444 345.522 32.836C347.916 32.912 350.196 32.874 350.842 32.836C351.564 32.798 351.792 32.608 351.792 31.886V29.074H339.366V27.098H351.792V24.058H336.136V22.006H351.792V19.156H339.708V17.218H351.792V14.406H340.81V7.87H351.792V5.514H336.82V3.386H351.792V0.269999H354.338V3.386H369.576V5.514H354.338V7.87H365.776V14.406H354.338V17.218H366.346V22.006H370.26ZM374.63 17.864L372.616 17.18C373.528 14.634 374.136 10.492 374.402 7.49L376.302 7.756C376.15 10.682 375.542 15.052 374.63 17.864ZM377.29 34.812V0.269999H379.608V34.812H377.29ZM380.14 6.578L381.85 5.894C382.686 7.604 383.56 9.846 383.902 11.176L382.078 12.126C381.774 10.682 380.9 8.326 380.14 6.578ZM388.082 26.946H402.18V23.83H388.082V26.946ZM402.18 18.852H388.082V21.892H402.18V18.852ZM404.574 16.876V31.924C404.574 33.254 404.308 33.9 403.32 34.28C402.294 34.698 400.622 34.698 397.924 34.66C397.81 34.052 397.468 33.14 397.202 32.494C399.178 32.57 401.002 32.57 401.458 32.532C402.028 32.532 402.18 32.38 402.18 31.886V28.884H388.082V34.812H385.688V16.876H404.574ZM396.404 12.582H407.614V14.558H382.952V12.582H393.934V9.732H384.966V7.832H393.934V5.286H384.054V3.31H393.934V0.269999H396.404V3.31H406.55V5.286H396.404V7.832H405.6V9.732H396.404V12.582ZM414.378 35.838L413.58 34.052C416.544 32.76 418.178 30.936 418.368 28.238C418.14 28.276 417.874 28.314 417.646 28.314C416.164 28.314 414.948 27.44 414.948 25.73C414.948 24.02 416.24 23.108 417.684 23.108C419.698 23.108 420.762 24.78 420.762 27.326C420.762 31.43 418.216 34.47 414.378 35.838ZM477.572 8.136V4.374H467.73V8.136H477.572ZM477.572 13.95V10.15H467.73V13.95H477.572ZM477.572 19.802V15.964H467.73V19.802H477.572ZM480.004 2.284V21.892H465.374V2.284H480.004ZM461.726 22.956L463.474 21.702C465.26 23.374 467.578 25.73 468.718 27.136L466.894 28.618C465.792 27.174 463.474 24.704 461.726 22.956ZM450.06 32.912L447.856 31.772C449.414 29.758 450.744 26.49 451.466 24.058L453.67 24.894C452.834 27.44 451.618 30.822 450.06 32.912ZM457.584 22.272H455.152V11.708C453.442 15.052 451.162 18.13 448.92 19.954C448.54 19.384 447.818 18.624 447.286 18.206C450.098 16.192 452.986 12.164 454.658 8.174H448.122V5.932H455.152V0.345998H457.584V5.932H463.702V8.174H457.584V10.454C459.104 11.404 462.942 14.292 463.93 15.09L462.524 17.104C461.574 16.154 459.332 14.216 457.584 12.81V22.272ZM461.916 31.734H469.668C471.53 31.734 471.834 31.202 471.986 27.326C472.556 27.782 473.582 28.162 474.304 28.276C473.962 32.95 473.164 34.052 469.858 34.052H461.802C457.85 34.052 456.824 33.368 456.824 30.632V24.4H459.294V30.594C459.294 31.544 459.712 31.734 461.916 31.734ZM475.14 24.248L477.306 23.298C478.902 25.692 480.84 28.96 481.828 30.86L479.472 32.038C478.598 30.062 476.66 26.718 475.14 24.248ZM519.106 18.814H500.6C498.016 23.07 495.014 27.174 492.088 30.366L511.544 28.96C509.91 26.604 508.01 24.134 506.186 22.12L508.39 21.094C511.81 24.818 515.534 29.834 517.32 33.14L514.926 34.47C514.432 33.482 513.748 32.342 512.988 31.126C492.164 32.798 490.112 32.95 488.706 33.482C488.63 32.95 488.212 31.658 487.87 30.974C488.668 30.86 489.542 29.91 490.644 28.542C491.746 27.402 494.976 23.184 497.484 18.814H485.248V16.268H500.79V8.858H488.212V6.35H500.79V0.231999H503.412V6.35H516.256V8.858H503.412V16.268H519.106V18.814ZM534.496 16.876V8.592H526.174V16.876H534.496ZM526.174 28.58H534.496V19.156H526.174V28.58ZM529.708 0.155998L532.406 0.687998C531.798 2.55 531.076 4.678 530.392 6.312H536.814V30.86H526.174V33.9H523.856V6.312H528.074C528.72 4.526 529.404 1.942 529.708 0.155998ZM555.434 6.236V7.566C554.826 25.008 554.294 30.822 552.774 32.646C552.014 33.672 551.14 33.976 549.886 34.09C548.594 34.204 546.428 34.128 544.3 34.014C544.224 33.254 543.92 32.228 543.464 31.544C545.934 31.772 548.214 31.772 549.05 31.772C549.81 31.772 550.266 31.696 550.646 31.202C551.9 29.872 552.508 24.02 553.002 8.592H543.046C541.982 11.176 540.766 13.532 539.474 15.356C539.018 14.976 537.916 14.292 537.346 13.95C539.93 10.568 541.982 5.324 543.16 0.0799987L545.592 0.611999C545.098 2.512 544.566 4.412 543.92 6.236H555.434ZM549.468 23.336L547.34 24.666C546.162 22.348 543.578 18.586 541.45 15.85L543.388 14.71C545.592 17.408 548.252 21.056 549.468 23.336ZM591.078 2.778V5.058H571.888V2.778H591.078ZM583.288 13.38H578.5C578.082 21.284 576.752 26.148 570.178 28.998C569.912 28.352 569.19 27.402 568.62 26.984C574.586 24.628 575.688 20.372 576.03 13.38H569.418V11.062H593.32V13.38H585.682V24.932C585.682 25.882 585.872 26.034 586.784 26.034H590.014C590.926 26.034 591.078 25.388 591.192 21.284C591.724 21.664 592.674 22.044 593.358 22.234C593.13 27.098 592.484 28.314 590.28 28.314H586.518C583.934 28.314 583.288 27.554 583.288 24.932V13.38ZM568.582 7.186L566.91 9.048C565.428 7.756 562.426 5.59 560.184 4.032L561.818 2.398C563.984 3.88 567.024 5.894 568.582 7.186ZM567.1 13.532V28.086C567.936 28.504 568.848 29.264 570.368 30.214C572.876 31.81 576.03 32.076 580.248 32.076C584.618 32.076 590.204 31.772 594.08 31.392C593.776 32.076 593.358 33.254 593.32 34.014C590.774 34.204 584.238 34.394 580.172 34.394C575.536 34.394 572.42 33.938 569.76 32.304C568.278 31.316 566.948 30.062 566.036 30.062C564.782 30.062 562.882 32.266 560.944 34.85L559.272 32.684C561.172 30.594 563.034 28.922 564.63 28.2V15.888H559.386V13.532H567.1ZM616.88 5.742L614.41 6.844C613.878 5.324 612.738 2.854 611.75 1.03L614.182 0.0799987C615.17 1.904 616.386 4.222 616.88 5.742ZM630.18 9.39H610.838C610.724 11.48 610.534 13.57 610.268 15.66H626.418C626.418 15.66 626.38 16.534 626.342 16.914C625.544 27.706 624.822 31.772 623.302 33.254C622.504 34.128 621.63 34.356 620.224 34.47C618.932 34.546 616.462 34.47 613.916 34.318C613.84 33.558 613.498 32.532 613.042 31.848C615.74 32.114 618.4 32.152 619.388 32.152C620.224 32.152 620.718 32.076 621.174 31.696C622.276 30.708 622.998 26.984 623.682 18.092H609.888C608.672 24.856 605.822 31.202 598.602 34.964C598.222 34.318 597.424 33.444 596.778 32.988C606.62 28.124 607.608 18.13 608.064 9.39H597.652V6.92H630.18V9.39ZM637.818 35.838L637.02 34.052C639.984 32.76 641.618 30.936 641.808 28.238C641.58 28.276 641.314 28.314 641.086 28.314C639.604 28.314 638.388 27.44 638.388 25.73C638.388 24.02 639.68 23.108 641.124 23.108C643.138 23.108 644.202 24.78 644.202 27.326C644.202 31.43 641.656 34.47 637.818 35.838ZM34.036 59.464H8.956C7.094 62.504 5.004 65.24 2.914 67.33C2.42 66.912 1.318 66.19 0.71 65.81C4.206 62.732 7.436 57.868 9.45 53.042L11.958 53.764C11.464 54.904 10.894 56.044 10.286 57.146H34.036V59.464ZM22.37 70.256L20.85 71.852C19.406 70.446 16.404 68.546 13.858 67.444L15.34 66C17.848 67.064 20.85 68.85 22.37 70.256ZM20.394 80.63H26.892C27.082 78.996 27.234 76.868 27.386 74.17H8.69C8.348 76.526 8.006 78.692 7.702 80.63H19.976C18.342 79.072 15.416 77.058 12.832 75.804L14.238 74.36C16.936 75.614 20.128 77.666 21.686 79.224L20.394 80.63ZM27.766 65.696H9.83C9.564 67.71 9.26 69.876 8.956 72.004H27.5C27.576 70.142 27.69 68.052 27.766 65.696ZM35.29 74.246H29.894C29.742 76.868 29.59 78.958 29.4 80.63H34.036V82.91H29.134C28.868 84.848 28.488 85.95 28.032 86.558C27.31 87.432 26.55 87.736 25.41 87.85C24.346 87.926 22.446 87.888 20.584 87.774C20.546 87.166 20.28 86.292 19.938 85.722C21.914 85.874 23.7 85.912 24.46 85.874C25.106 85.874 25.486 85.798 25.828 85.342C26.132 84.962 26.398 84.24 26.626 82.91H4.7C5.156 80.592 5.688 77.514 6.182 74.246H0.786V71.928H6.524C6.942 68.964 7.322 66 7.588 63.416H30.312C30.312 63.416 30.274 64.366 30.274 64.708C30.198 67.444 30.084 69.8 30.008 71.928H35.29V74.246ZM38.064 68.85H72.454V71.586H38.064V68.85ZM91.188 87.85V64.214H93.772V87.85H91.188ZM92.784 53.27L94.988 54.296C94.684 54.866 94.342 55.398 94 55.93C98.598 61.668 103.994 65.392 110.112 68.432C109.466 68.964 108.668 69.914 108.288 70.674C102.398 67.482 97.344 63.796 92.518 57.906C88.414 63.226 82.79 67.748 76.9 70.598C76.444 69.914 75.722 68.964 75.038 68.394C82.144 65.202 88.984 59.578 92.784 53.27ZM114.596 85V57.184H118.472L123.944 72.384C124.628 74.36 125.274 76.336 125.958 78.312H126.148C126.832 76.336 127.44 74.36 128.086 72.384L133.52 57.184H137.396V85H134.47V68.926C134.47 66.57 134.698 63.302 134.85 60.87H134.698L132.494 67.178L127.06 82.15H124.894L119.422 67.178L117.218 60.87H117.066C117.218 63.302 117.446 66.57 117.446 68.926V85H114.596ZM151.939 85.494C146.923 85.494 142.515 81.542 142.515 74.778C142.515 67.9 146.923 63.948 151.939 63.948C156.955 63.948 161.401 67.9 161.401 74.778C161.401 81.542 156.955 85.494 151.939 85.494ZM151.939 82.91C155.625 82.91 158.209 79.642 158.209 74.778C158.209 69.876 155.625 66.57 151.939 66.57C148.253 66.57 145.707 69.876 145.707 74.778C145.707 79.642 148.253 82.91 151.939 82.91ZM166.21 85V64.48H168.718L169.022 67.52H169.136C170.922 65.544 173.126 63.948 175.52 63.948C178.712 63.948 180.384 65.506 181.182 67.938C183.386 65.582 185.552 63.948 188.022 63.948C192.202 63.948 194.254 66.722 194.254 71.966V85H191.138V72.346C191.138 68.394 189.884 66.646 187.148 66.646C185.476 66.646 183.728 67.748 181.752 69.99V85H178.674V72.346C178.674 68.394 177.42 66.646 174.646 66.646C173.05 66.646 171.226 67.748 169.288 69.99V85H166.21ZM208.502 85.494C203.106 85.494 198.774 81.504 198.774 74.778C198.774 68.09 203.22 63.948 207.932 63.948C213.062 63.948 216.026 67.634 216.026 73.562C216.026 74.246 215.988 74.93 215.874 75.424H201.852C202.042 79.984 204.778 83.024 208.882 83.024C210.896 83.024 212.568 82.378 214.088 81.352L215.228 83.404C213.442 84.544 211.352 85.494 208.502 85.494ZM201.814 73.182H213.29C213.29 68.774 211.314 66.456 207.97 66.456C204.93 66.456 202.232 68.926 201.814 73.182ZM220.466 85V64.48H222.974L223.278 67.482H223.392C225.368 65.544 227.496 63.948 230.308 63.948C234.602 63.948 236.578 66.722 236.578 71.966V85H233.462V72.346C233.462 68.394 232.246 66.646 229.396 66.646C227.23 66.646 225.672 67.786 223.544 69.99V85H220.466ZM248.946 85.494C244.652 85.494 243.284 82.834 243.284 78.806V67.026H240.168V64.67L243.398 64.48L243.74 58.666H246.362V64.48H252.024V67.026H246.362V78.92C246.362 81.428 247.122 82.948 249.592 82.948C250.352 82.948 251.302 82.682 251.986 82.416L252.594 84.734C251.454 85.114 250.086 85.494 248.946 85.494ZM264.265 64.784H265.481C266.811 63.302 267.989 61.706 269.015 59.996H264.265V64.784ZM269.509 76.944V72.992H260.579V76.944H269.509ZM260.579 83.252H269.509V78.996H260.579V83.252ZM271.941 54.524L274.183 55.17C272.625 58.704 270.687 61.934 268.445 64.784H273.727V67.064H266.545C265.291 68.432 264.037 69.724 262.669 70.902H271.941V87.128H269.509V85.38H260.579V87.66H258.223V74.322C257.197 75.044 256.095 75.728 254.993 76.298C254.689 75.804 253.853 74.74 253.359 74.246C257.083 72.384 260.465 69.952 263.353 67.064H254.157V64.784H261.871V59.996H255.905V57.754H261.871V53.574H264.265V57.754H269.129V59.844C270.193 58.172 271.105 56.386 271.941 54.524ZM286.989 55.322L288.775 56.5C287.141 60.072 285.051 64.404 283.113 67.938C287.255 71.51 288.357 74.474 288.357 77.21C288.357 79.452 287.825 81.2 286.457 82.036C285.773 82.53 284.899 82.796 283.911 82.91C282.885 83.024 281.517 83.024 280.339 82.948C280.301 82.226 280.035 81.162 279.579 80.44C280.833 80.554 282.049 80.592 282.923 80.516C283.607 80.478 284.215 80.326 284.747 80.06C285.621 79.566 285.925 78.388 285.887 76.982C285.887 74.55 284.633 71.662 280.491 68.28C282.277 64.974 284.101 60.87 285.393 57.83H277.907V87.888H275.399V55.436H286.571L286.989 55.322ZM299.909 53.27L302.189 54.03C301.125 56.994 299.757 59.996 298.237 62.732V87.85H295.881V66.57C294.817 68.166 293.639 69.648 292.461 70.978C292.195 70.37 291.473 69.116 291.055 68.546C294.589 64.784 297.895 59.084 299.909 53.27ZM306.483 81.162V84.468H320.011V81.162H306.483ZM320.011 65.164H306.483V68.546H320.011V65.164ZM320.011 73.904V70.484H306.483V73.904H320.011ZM306.483 75.804V79.262H320.011V75.804H306.483ZM322.367 84.468H325.863V86.672H300.517V84.468H304.203V63.188H310.739C311.005 62.124 311.271 60.794 311.499 59.464H302.113V57.222H311.879C312.107 55.816 312.297 54.41 312.411 53.232L315.147 53.46C314.919 54.638 314.691 55.93 314.387 57.222H324.685V59.464H313.931C313.627 60.794 313.285 62.124 313.019 63.188H322.367V84.468ZM357.859 59.654V56.424H344.901V59.654H357.859ZM357.859 64.86V61.554H344.901V64.86H357.859ZM360.405 54.448V66.798H342.469V54.448H360.405ZM336.579 53.384L338.973 54.296C336.807 57.488 333.159 61.022 329.853 63.264C329.549 62.656 328.941 61.706 328.485 61.212C331.487 59.236 334.907 56.082 336.579 53.384ZM337.225 61.706L339.391 62.542C338.517 64.1 337.453 65.696 336.313 67.178V87.85H333.881V70.066C332.361 71.7 330.803 73.22 329.207 74.436C329.017 73.942 328.295 72.65 327.839 72.08C331.297 69.534 334.945 65.658 337.225 61.706ZM342.621 79.338L344.407 78.16C346.193 79.718 348.283 81.998 349.233 83.518L347.333 84.886C346.421 83.366 344.369 81.01 342.621 79.338ZM362.951 75.158V77.4H357.213V85C357.213 86.444 356.871 87.128 355.807 87.508C354.705 87.926 352.919 87.926 350.031 87.926C349.955 87.204 349.537 86.292 349.195 85.608C351.437 85.684 353.375 85.684 353.907 85.646C354.515 85.608 354.667 85.456 354.667 84.962V77.4H339.163V75.158H354.667V71.738H340.037V69.572H362.305V71.738H357.213V75.158H362.951ZM391.451 85L391.413 69.04L383.585 82.188H380.811L373.021 69.382V85H367.245V58.4H372.337L382.293 74.93L392.097 58.4H397.151L397.227 85H391.451ZM415.66 85.456C412.899 85.456 410.403 84.8607 408.174 83.67C405.97 82.4793 404.235 80.8453 402.968 78.768C401.727 76.6653 401.106 74.3093 401.106 71.7C401.106 69.0907 401.727 66.7473 402.968 64.67C404.235 62.5673 405.97 60.9207 408.174 59.73C410.403 58.5393 412.899 57.944 415.66 57.944C418.421 57.944 420.904 58.5393 423.108 59.73C425.312 60.9207 427.047 62.5673 428.314 64.67C429.581 66.7473 430.214 69.0907 430.214 71.7C430.214 74.3093 429.581 76.6653 428.314 78.768C427.047 80.8453 425.312 82.4793 423.108 83.67C420.904 84.8607 418.421 85.456 415.66 85.456ZM415.66 80.212C417.231 80.212 418.649 79.8573 419.916 79.148C421.183 78.4133 422.171 77.4 422.88 76.108C423.615 74.816 423.982 73.3467 423.982 71.7C423.982 70.0533 423.615 68.584 422.88 67.292C422.171 66 421.183 64.9993 419.916 64.29C418.649 63.5553 417.231 63.188 415.66 63.188C414.089 63.188 412.671 63.5553 411.404 64.29C410.137 64.9993 409.137 66 408.402 67.292C407.693 68.584 407.338 70.0533 407.338 71.7C407.338 73.3467 407.693 74.816 408.402 76.108C409.137 77.4 410.137 78.4133 411.404 79.148C412.671 79.8573 414.089 80.212 415.66 80.212ZM458.286 85L458.248 69.04L450.42 82.188H447.646L439.856 69.382V85H434.08V58.4H439.172L449.128 74.93L458.932 58.4H463.986L464.062 85H458.286ZM490.209 80.06V85H469.613V58.4H489.715V63.34H475.731V69.116H488.081V73.904H475.731V80.06H490.209ZM518.744 58.4V85H513.69L500.428 68.85V85H494.348V58.4H499.44L512.664 74.55V58.4H518.744ZM529.787 63.416H521.275V58.4H544.455V63.416H535.943V85H529.787V63.416ZM545.677 68.85H580.067V71.586H545.677V68.85ZM616.889 58.59H600.663V65.354L601.081 64.86C605.603 67.064 611.645 70.56 614.685 72.84L612.937 75.158C610.315 72.992 605.071 69.8 600.663 67.482V87.736H598.003V58.59H583.335V56.044H616.889V58.59ZM625.705 75.766C628.897 75.766 631.443 78.312 631.443 81.466C631.443 84.658 628.897 87.204 625.705 87.204C622.589 87.204 620.005 84.658 620.005 81.466C620.005 78.312 622.589 75.766 625.705 75.766ZM625.705 85.418C627.909 85.418 629.657 83.67 629.657 81.466C629.657 79.338 627.909 77.552 625.705 77.552C623.577 77.552 621.791 79.338 621.791 81.466C621.791 83.67 623.577 85.418 625.705 85.418Z" fill="#A38373"/>
</svg>
