<svg width="181" height="48" viewBox="0 0 181 48" fill="none" xmlns="http://www.w3.org/2000/svg">
<path d="M11.2654 21.1761C9.23098 21.1761 7.39214 20.7261 5.74893 19.8263C4.12527 18.9264 2.84395 17.6842 1.90497 16.0997C0.985554 14.4956 0.525844 12.7057 0.525844 10.7299C0.525844 8.75412 0.985554 6.97397 1.90497 5.38944C2.84395 3.78535 4.13505 2.53337 5.77827 1.63351C7.42149 0.733658 9.26033 0.283729 11.2948 0.283729C12.8206 0.283729 14.2291 0.538037 15.5202 1.04665C16.8113 1.55527 17.9068 2.29863 18.8066 3.27673L17.4275 4.65586C15.8234 3.0322 13.7987 2.22038 11.3535 2.22038C9.72982 2.22038 8.25288 2.59206 6.92265 3.33542C5.59243 4.07878 4.54586 5.09601 3.78293 6.38711C3.03957 7.67821 2.66789 9.1258 2.66789 10.7299C2.66789 12.334 3.03957 13.7816 3.78293 15.0727C4.54586 16.3638 5.59243 17.381 6.92265 18.1244C8.25288 18.8677 9.72982 19.2394 11.3535 19.2394C13.8183 19.2394 15.843 18.4178 17.4275 16.7746L18.8066 18.1537C17.9068 19.1318 16.8015 19.885 15.4909 20.4131C14.1998 20.9218 12.7913 21.1761 11.2654 21.1761ZM33.1605 15.5128H21.7166L19.2518 21H16.9924L26.3822 0.459787H28.5243L37.9141 21H35.6253L33.1605 15.5128ZM32.3682 13.7522L27.4386 2.71921L22.5089 13.7522H32.3682ZM41.6301 2.33775H34.4117V0.459787H51.0199V2.33775H43.8015V21H41.6301V2.33775ZM60.4817 21.1761C58.4473 21.1761 56.6084 20.7261 54.9652 19.8263C53.3415 18.9264 52.0602 17.6842 51.1212 16.0997C50.2018 14.4956 49.7421 12.7057 49.7421 10.7299C49.7421 8.75412 50.2018 6.97397 51.1212 5.38944C52.0602 3.78535 53.3513 2.53337 54.9945 1.63351C56.6378 0.733658 58.4766 0.283729 60.5111 0.283729C62.0369 0.283729 63.4454 0.538037 64.7365 1.04665C66.0276 1.55527 67.123 2.29863 68.0229 3.27673L66.6438 4.65586C65.0397 3.0322 63.015 2.22038 60.5697 2.22038C58.9461 2.22038 57.4691 2.59206 56.1389 3.33542C54.8087 4.07878 53.7621 5.09601 52.9992 6.38711C52.2558 7.67821 51.8842 9.1258 51.8842 10.7299C51.8842 12.334 52.2558 13.7816 52.9992 15.0727C53.7621 16.3638 54.8087 17.381 56.1389 18.1244C57.4691 18.8677 58.9461 19.2394 60.5697 19.2394C63.0346 19.2394 65.0592 18.4178 66.6438 16.7746L68.0229 18.1537C67.123 19.1318 66.0178 19.885 64.7071 20.4131C63.416 20.9218 62.0076 21.1761 60.4817 21.1761ZM87.1767 0.459787V21H85.0346V11.5222H72.1823V21H70.0109V0.459787H72.1823V9.61485H85.0346V0.459787H87.1767ZM103.321 13.899V21H101.179V13.899L92.963 0.459787H95.2811L102.323 11.9916L109.366 0.459787H111.537L103.321 13.899ZM120.355 21.1761C118.32 21.1761 116.472 20.7261 114.809 19.8263C113.166 18.9069 111.874 17.6549 110.935 16.0703C110.016 14.4858 109.556 12.7057 109.556 10.7299C109.556 8.75412 110.016 6.97397 110.935 5.38944C111.874 3.80491 113.166 2.56271 114.809 1.66286C116.472 0.743438 118.32 0.283729 120.355 0.283729C122.389 0.283729 124.218 0.733658 125.842 1.63351C127.485 2.53337 128.776 3.78535 129.715 5.38944C130.654 6.97397 131.124 8.75412 131.124 10.7299C131.124 12.7057 130.654 14.4956 129.715 16.0997C128.776 17.6842 127.485 18.9264 125.842 19.8263C124.218 20.7261 122.389 21.1761 120.355 21.1761ZM120.355 19.2394C121.978 19.2394 123.445 18.8775 124.756 18.1537C126.067 17.4104 127.094 16.3931 127.837 15.102C128.58 13.7914 128.952 12.334 128.952 10.7299C128.952 9.1258 128.58 7.67821 127.837 6.38711C127.094 5.07645 126.067 4.05922 124.756 3.33542C123.445 2.59206 121.978 2.22038 120.355 2.22038C118.731 2.22038 117.254 2.59206 115.924 3.33542C114.613 4.05922 113.576 5.07645 112.813 6.38711C112.07 7.67821 111.698 9.1258 111.698 10.7299C111.698 12.334 112.07 13.7914 112.813 15.102C113.576 16.3931 114.613 17.4104 115.924 18.1537C117.254 18.8775 118.731 19.2394 120.355 19.2394ZM141.624 21.1761C138.964 21.1761 136.89 20.4131 135.404 18.8873C133.917 17.3614 133.174 15.1411 133.174 12.2264V0.459787H135.345V12.1384C135.345 14.5249 135.883 16.3051 136.959 17.4788C138.035 18.6525 139.59 19.2394 141.624 19.2394C143.679 19.2394 145.243 18.6525 146.319 17.4788C147.395 16.3051 147.933 14.5249 147.933 12.1384V0.459787H150.046V12.2264C150.046 15.1411 149.303 17.3614 147.816 18.8873C146.349 20.4131 144.285 21.1761 141.624 21.1761ZM167.974 21L163.28 14.3978C162.751 14.4565 162.204 14.4858 161.636 14.4858H156.12V21H153.948V0.459787H161.636C164.258 0.459787 166.312 1.08577 167.798 2.33775C169.285 3.58972 170.028 5.31119 170.028 7.50215C170.028 9.10624 169.618 10.4658 168.796 11.5808C167.994 12.6763 166.84 13.4686 165.334 13.9576L170.351 21H167.974ZM161.578 12.6372C163.612 12.6372 165.167 12.1873 166.243 11.2874C167.319 10.3876 167.857 9.1258 167.857 7.50215C167.857 5.83937 167.319 4.56783 166.243 3.68754C165.167 2.78768 163.612 2.33775 161.578 2.33775H156.12V12.6372H161.578ZM175.73 9.61485C174.869 9.61485 174.077 9.40945 173.353 8.99865C172.649 8.58784 172.091 8.03032 171.681 7.32609C171.27 6.60229 171.064 5.81002 171.064 4.94929C171.064 4.10812 171.27 3.33542 171.681 2.63118C172.091 1.90738 172.649 1.34008 173.353 0.929279C174.077 0.518474 174.869 0.313072 175.73 0.313072C176.591 0.313072 177.383 0.518474 178.107 0.929279C178.831 1.34008 179.398 1.90738 179.809 2.63118C180.219 3.33542 180.425 4.10812 180.425 4.94929C180.425 5.81002 180.219 6.60229 179.809 7.32609C179.398 8.03032 178.831 8.58784 178.107 8.99865C177.383 9.40945 176.591 9.61485 175.73 9.61485ZM175.73 8.38244C176.688 8.38244 177.491 8.05967 178.136 7.41412C178.801 6.74901 179.134 5.9274 179.134 4.94929C179.134 3.99075 178.801 3.1887 178.136 2.54315C177.491 1.87804 176.688 1.54548 175.73 1.54548C174.771 1.54548 173.969 1.87804 173.324 2.54315C172.678 3.1887 172.355 3.99075 172.355 4.94929C172.355 5.9274 172.678 6.74901 173.324 7.41412C173.969 8.05967 174.771 8.38244 175.73 8.38244ZM20.1271 47L20.0977 34.6759L14.053 44.8286H11.911L5.89564 34.94V47H1.43548V26.4598H5.36747L13.0554 39.2241L20.6259 26.4598H24.5285L24.5872 47H20.1271ZM36.7669 47.3521C34.6347 47.3521 32.7078 46.8924 30.9863 45.973C29.2844 45.0536 27.9444 43.7918 26.9663 42.1877C26.0078 40.5641 25.5285 38.7448 25.5285 36.7299C25.5285 34.715 26.0078 32.9055 26.9663 31.3014C27.9444 29.6778 29.2844 28.4062 30.9863 27.4868C32.7078 26.5674 34.6347 26.1077 36.7669 26.1077C38.8992 26.1077 40.8163 26.5674 42.5182 27.4868C44.2201 28.4062 45.5601 29.6778 46.5382 31.3014C47.5163 32.9055 48.0054 34.715 48.0054 36.7299C48.0054 38.7448 47.5163 40.5641 46.5382 42.1877C45.5601 43.7918 44.2201 45.0536 42.5182 45.973C40.8163 46.8924 38.8992 47.3521 36.7669 47.3521ZM36.7669 43.3028C37.9798 43.3028 39.0753 43.0289 40.0534 42.4812C41.0315 41.9139 41.7944 41.1314 42.3421 40.1337C42.9094 39.136 43.1931 38.0014 43.1931 36.7299C43.1931 35.4584 42.9094 34.3238 42.3421 33.3261C41.7944 32.3284 41.0315 31.5557 40.0534 31.008C39.0753 30.4407 37.9798 30.157 36.7669 30.157C35.5541 30.157 34.4586 30.4407 33.4805 31.008C32.5024 31.5557 31.7297 32.3284 31.1624 33.3261C30.6147 34.3238 30.3408 35.4584 30.3408 36.7299C30.3408 38.0014 30.6147 39.136 31.1624 40.1337C31.7297 41.1314 32.5024 41.9139 33.4805 42.4812C34.4586 43.0289 35.5541 43.3028 36.7669 43.3028ZM67.6286 47L67.5993 34.6759L61.5546 44.8286H59.4125L53.3972 34.94V47H48.937V26.4598H52.869L60.5569 39.2241L68.1274 26.4598H72.0301L72.0888 47H67.6286ZM90.2251 43.1854V47H74.3211V26.4598H89.8437V30.2744H79.0454V34.7346H88.5819V38.4318H79.0454V43.1854H90.2251ZM110.205 26.4598V47H106.302L96.0614 34.5292V47H91.3665V26.4598H95.2985L105.51 38.9306V26.4598H110.205ZM116.678 30.3331H110.106V26.4598H128.005V30.3331H121.432V47H116.678V30.3331Z" fill="#A38373"/>
</svg>
