<svg width="332" height="91" viewBox="0 0 332 91" fill="none" xmlns="http://www.w3.org/2000/svg">
<path d="M5 2.28H0.08V0.999999H11.4V2.28H6.48V15H5V2.28ZM18.0244 4.4C19.3444 4.4 20.391 4.78667 21.1644 5.56C21.951 6.32 22.3444 7.43333 22.3444 8.9V15H20.9244V9.04C20.9244 7.94667 20.651 7.11333 20.1044 6.54C19.5577 5.96667 18.7777 5.68 17.7644 5.68C16.631 5.68 15.731 6.02 15.0644 6.7C14.411 7.36667 14.0844 8.29333 14.0844 9.48V15H12.6644V0.159999H14.0844V6.32C14.471 5.70667 15.0044 5.23333 15.6844 4.9C16.3644 4.56667 17.1444 4.4 18.0244 4.4ZM34.5986 10.18H25.7986C25.8786 11.2733 26.2986 12.16 27.0586 12.84C27.8186 13.5067 28.7786 13.84 29.9386 13.84C30.5919 13.84 31.1919 13.7267 31.7386 13.5C32.2853 13.26 32.7586 12.9133 33.1586 12.46L33.9586 13.38C33.4919 13.94 32.9053 14.3667 32.1986 14.66C31.5053 14.9533 30.7386 15.1 29.8986 15.1C28.8186 15.1 27.8586 14.8733 27.0186 14.42C26.1919 13.9533 25.5453 13.3133 25.0786 12.5C24.6119 11.6867 24.3786 10.7667 24.3786 9.74C24.3786 8.71333 24.5986 7.79333 25.0386 6.98C25.4919 6.16667 26.1053 5.53333 26.8786 5.08C27.6653 4.62667 28.5453 4.4 29.5186 4.4C30.4919 4.4 31.3653 4.62667 32.1386 5.08C32.9119 5.53333 33.5186 6.16667 33.9586 6.98C34.3986 7.78 34.6186 8.7 34.6186 9.74L34.5986 10.18ZM29.5186 5.62C28.5053 5.62 27.6519 5.94667 26.9586 6.6C26.2786 7.24 25.8919 8.08 25.7986 9.12H33.2586C33.1653 8.08 32.7719 7.24 32.0786 6.6C31.3986 5.94667 30.5453 5.62 29.5186 5.62ZM50.3033 10.18H41.5033C41.5833 11.2733 42.0033 12.16 42.7633 12.84C43.5233 13.5067 44.4833 13.84 45.6433 13.84C46.2966 13.84 46.8966 13.7267 47.4433 13.5C47.9899 13.26 48.4633 12.9133 48.8633 12.46L49.6633 13.38C49.1966 13.94 48.6099 14.3667 47.9033 14.66C47.2099 14.9533 46.4433 15.1 45.6033 15.1C44.5233 15.1 43.5633 14.8733 42.7233 14.42C41.8966 13.9533 41.2499 13.3133 40.7833 12.5C40.3166 11.6867 40.0833 10.7667 40.0833 9.74C40.0833 8.71333 40.3033 7.79333 40.7433 6.98C41.1966 6.16667 41.8099 5.53333 42.5833 5.08C43.3699 4.62667 44.2499 4.4 45.2233 4.4C46.1966 4.4 47.0699 4.62667 47.8433 5.08C48.6166 5.53333 49.2233 6.16667 49.6633 6.98C50.1033 7.78 50.3233 8.7 50.3233 9.74L50.3033 10.18ZM45.2233 5.62C44.2099 5.62 43.3566 5.94667 42.6633 6.6C41.9833 7.24 41.5966 8.08 41.5033 9.12H48.9633C48.8699 8.08 48.4766 7.24 47.7833 6.6C47.1033 5.94667 46.2499 5.62 45.2233 5.62ZM65.5336 4.4C66.8536 4.4 67.8869 4.78 68.6336 5.54C69.3936 6.3 69.7736 7.42 69.7736 8.9V15H68.3536V9.04C68.3536 7.94667 68.0869 7.11333 67.5536 6.54C67.0336 5.96667 66.2936 5.68 65.3336 5.68C64.2403 5.68 63.3803 6.02 62.7536 6.7C62.1269 7.36667 61.8136 8.29333 61.8136 9.48V15H60.3936V9.04C60.3936 7.94667 60.1269 7.11333 59.5936 6.54C59.0736 5.96667 58.3269 5.68 57.3536 5.68C56.2736 5.68 55.4136 6.02 54.7736 6.7C54.1469 7.36667 53.8336 8.29333 53.8336 9.48V15H52.4136V4.48H53.7736V6.4C54.1469 5.76 54.6669 5.26667 55.3336 4.92C56.0003 4.57333 56.7669 4.4 57.6336 4.4C58.5136 4.4 59.2736 4.58667 59.9136 4.96C60.5669 5.33333 61.0536 5.88667 61.3736 6.62C61.7603 5.92667 62.3136 5.38667 63.0336 5C63.7669 4.6 64.6003 4.4 65.5336 4.4ZM77.1636 15.1C76.1503 15.1 75.2369 14.8733 74.4236 14.42C73.6103 13.9533 72.9703 13.3133 72.5036 12.5C72.0369 11.6867 71.8036 10.7667 71.8036 9.74C71.8036 8.71333 72.0369 7.79333 72.5036 6.98C72.9703 6.16667 73.6103 5.53333 74.4236 5.08C75.2369 4.62667 76.1503 4.4 77.1636 4.4C78.1769 4.4 79.0903 4.62667 79.9036 5.08C80.7169 5.53333 81.3503 6.16667 81.8036 6.98C82.2703 7.79333 82.5036 8.71333 82.5036 9.74C82.5036 10.7667 82.2703 11.6867 81.8036 12.5C81.3503 13.3133 80.7169 13.9533 79.9036 14.42C79.0903 14.8733 78.1769 15.1 77.1636 15.1ZM77.1636 13.84C77.9103 13.84 78.5769 13.6733 79.1636 13.34C79.7636 12.9933 80.2303 12.5067 80.5636 11.88C80.8969 11.2533 81.0636 10.54 81.0636 9.74C81.0636 8.94 80.8969 8.22667 80.5636 7.6C80.2303 6.97333 79.7636 6.49333 79.1636 6.16C78.5769 5.81333 77.9103 5.64 77.1636 5.64C76.4169 5.64 75.7436 5.81333 75.1436 6.16C74.5569 6.49333 74.0903 6.97333 73.7436 7.6C73.4103 8.22667 73.2436 8.94 73.2436 9.74C73.2436 10.54 73.4103 11.2533 73.7436 11.88C74.0903 12.5067 74.5569 12.9933 75.1436 13.34C75.7436 13.6733 76.4169 13.84 77.1636 13.84ZM90.1427 14.36C89.876 14.6 89.5427 14.7867 89.1427 14.92C88.756 15.04 88.3493 15.1 87.9227 15.1C86.936 15.1 86.176 14.8333 85.6427 14.3C85.1093 13.7667 84.8427 13.0133 84.8427 12.04V5.68H82.9627V4.48H84.8427V2.18H86.2627V4.48H89.4627V5.68H86.2627V11.96C86.2627 12.5867 86.416 13.0667 86.7227 13.4C87.0427 13.72 87.496 13.88 88.0827 13.88C88.376 13.88 88.656 13.8333 88.9227 13.74C89.2027 13.6467 89.4427 13.5133 89.6427 13.34L90.1427 14.36ZM91.9277 4.48H93.3477V15H91.9277V4.48ZM92.6477 2.18C92.3543 2.18 92.1077 2.08 91.9077 1.88C91.7077 1.68 91.6077 1.44 91.6077 1.16C91.6077 0.893333 91.7077 0.659999 91.9077 0.459999C92.1077 0.259999 92.3543 0.159999 92.6477 0.159999C92.941 0.159999 93.1877 0.259999 93.3877 0.459999C93.5877 0.646665 93.6877 0.873332 93.6877 1.14C93.6877 1.43333 93.5877 1.68 93.3877 1.88C93.1877 2.08 92.941 2.18 92.6477 2.18ZM100.799 15.1C99.7854 15.1 98.8721 14.8733 98.0588 14.42C97.2454 13.9533 96.6054 13.3133 96.1388 12.5C95.6721 11.6867 95.4388 10.7667 95.4388 9.74C95.4388 8.71333 95.6721 7.79333 96.1388 6.98C96.6054 6.16667 97.2454 5.53333 98.0588 5.08C98.8721 4.62667 99.7854 4.4 100.799 4.4C101.812 4.4 102.725 4.62667 103.539 5.08C104.352 5.53333 104.985 6.16667 105.439 6.98C105.905 7.79333 106.139 8.71333 106.139 9.74C106.139 10.7667 105.905 11.6867 105.439 12.5C104.985 13.3133 104.352 13.9533 103.539 14.42C102.725 14.8733 101.812 15.1 100.799 15.1ZM100.799 13.84C101.545 13.84 102.212 13.6733 102.799 13.34C103.399 12.9933 103.865 12.5067 104.199 11.88C104.532 11.2533 104.699 10.54 104.699 9.74C104.699 8.94 104.532 8.22667 104.199 7.6C103.865 6.97333 103.399 6.49333 102.799 6.16C102.212 5.81333 101.545 5.64 100.799 5.64C100.052 5.64 99.3788 5.81333 98.7788 6.16C98.1921 6.49333 97.7254 6.97333 97.3788 7.6C97.0454 8.22667 96.8788 8.94 96.8788 9.74C96.8788 10.54 97.0454 11.2533 97.3788 11.88C97.7254 12.5067 98.1921 12.9933 98.7788 13.34C99.3788 13.6733 100.052 13.84 100.799 13.84ZM113.598 4.4C114.918 4.4 115.964 4.78667 116.738 5.56C117.524 6.32 117.918 7.43333 117.918 8.9V15H116.498V9.04C116.498 7.94667 116.224 7.11333 115.678 6.54C115.131 5.96667 114.351 5.68 113.338 5.68C112.204 5.68 111.304 6.02 110.638 6.7C109.984 7.36667 109.658 8.29333 109.658 9.48V15H108.238V4.48H109.598V6.42C109.984 5.78 110.518 5.28667 111.198 4.94C111.891 4.58 112.691 4.4 113.598 4.4ZM123.793 15.1C122.94 15.1 122.12 14.98 121.333 14.74C120.56 14.4867 119.953 14.1733 119.513 13.8L120.153 12.68C120.593 13.0267 121.146 13.3133 121.813 13.54C122.48 13.7533 123.173 13.86 123.893 13.86C124.853 13.86 125.56 13.7133 126.013 13.42C126.48 13.1133 126.713 12.6867 126.713 12.14C126.713 11.7533 126.586 11.4533 126.333 11.24C126.08 11.0133 125.76 10.8467 125.373 10.74C124.986 10.62 124.473 10.5067 123.833 10.4C122.98 10.24 122.293 10.08 121.773 9.92C121.253 9.74667 120.806 9.46 120.433 9.06C120.073 8.66 119.893 8.10667 119.893 7.4C119.893 6.52 120.26 5.8 120.993 5.24C121.726 4.68 122.746 4.4 124.053 4.4C124.733 4.4 125.413 4.49333 126.093 4.68C126.773 4.85333 127.333 5.08667 127.773 5.38L127.153 6.52C126.286 5.92 125.253 5.62 124.053 5.62C123.146 5.62 122.46 5.78 121.993 6.1C121.54 6.42 121.313 6.84 121.313 7.36C121.313 7.76 121.44 8.08 121.693 8.32C121.96 8.56 122.286 8.74 122.673 8.86C123.06 8.96667 123.593 9.08 124.273 9.2C125.113 9.36 125.786 9.52 126.293 9.68C126.8 9.84 127.233 10.1133 127.593 10.5C127.953 10.8867 128.133 11.42 128.133 12.1C128.133 13.02 127.746 13.7533 126.973 14.3C126.213 14.8333 125.153 15.1 123.793 15.1ZM138.693 15.1C137.679 15.1 136.766 14.8733 135.953 14.42C135.139 13.9533 134.499 13.3133 134.033 12.5C133.566 11.6867 133.333 10.7667 133.333 9.74C133.333 8.71333 133.566 7.79333 134.033 6.98C134.499 6.16667 135.139 5.53333 135.953 5.08C136.766 4.62667 137.679 4.4 138.693 4.4C139.706 4.4 140.619 4.62667 141.433 5.08C142.246 5.53333 142.879 6.16667 143.333 6.98C143.799 7.79333 144.033 8.71333 144.033 9.74C144.033 10.7667 143.799 11.6867 143.333 12.5C142.879 13.3133 142.246 13.9533 141.433 14.42C140.619 14.8733 139.706 15.1 138.693 15.1ZM138.693 13.84C139.439 13.84 140.106 13.6733 140.693 13.34C141.293 12.9933 141.759 12.5067 142.093 11.88C142.426 11.2533 142.593 10.54 142.593 9.74C142.593 8.94 142.426 8.22667 142.093 7.6C141.759 6.97333 141.293 6.49333 140.693 6.16C140.106 5.81333 139.439 5.64 138.693 5.64C137.946 5.64 137.273 5.81333 136.673 6.16C136.086 6.49333 135.619 6.97333 135.273 7.6C134.939 8.22667 134.773 8.94 134.773 9.74C134.773 10.54 134.939 11.2533 135.273 11.88C135.619 12.5067 136.086 12.9933 136.673 13.34C137.273 13.6733 137.946 13.84 138.693 13.84ZM149.612 1.26C148.998 1.26 148.532 1.42667 148.212 1.76C147.905 2.09333 147.752 2.58667 147.752 3.24V4.48H150.992V5.68H147.792V15H146.372V5.68H144.492V4.48H146.372V3.18C146.372 2.22 146.645 1.46 147.192 0.899999C147.752 0.339999 148.538 0.0599992 149.552 0.0599992C149.952 0.0599992 150.338 0.119999 150.712 0.239999C151.085 0.346666 151.398 0.506666 151.652 0.719999L151.172 1.78C150.758 1.43333 150.238 1.26 149.612 1.26ZM165.703 10.18H156.903C156.983 11.2733 157.403 12.16 158.163 12.84C158.923 13.5067 159.883 13.84 161.043 13.84C161.697 13.84 162.297 13.7267 162.843 13.5C163.39 13.26 163.863 12.9133 164.263 12.46L165.063 13.38C164.597 13.94 164.01 14.3667 163.303 14.66C162.61 14.9533 161.843 15.1 161.003 15.1C159.923 15.1 158.963 14.8733 158.123 14.42C157.297 13.9533 156.65 13.3133 156.183 12.5C155.717 11.6867 155.483 10.7667 155.483 9.74C155.483 8.71333 155.703 7.79333 156.143 6.98C156.597 6.16667 157.21 5.53333 157.983 5.08C158.77 4.62667 159.65 4.4 160.623 4.4C161.597 4.4 162.47 4.62667 163.243 5.08C164.017 5.53333 164.623 6.16667 165.063 6.98C165.503 7.78 165.723 8.7 165.723 9.74L165.703 10.18ZM160.623 5.62C159.61 5.62 158.757 5.94667 158.063 6.6C157.383 7.24 156.997 8.08 156.903 9.12H164.363C164.27 8.08 163.877 7.24 163.183 6.6C162.503 5.94667 161.65 5.62 160.623 5.62ZM176.458 4.48L171.778 15H170.318L165.658 4.48H167.138L171.078 13.44L175.058 4.48H176.458ZM186.525 10.18H177.725C177.805 11.2733 178.225 12.16 178.985 12.84C179.745 13.5067 180.705 13.84 181.865 13.84C182.518 13.84 183.118 13.7267 183.665 13.5C184.212 13.26 184.685 12.9133 185.085 12.46L185.885 13.38C185.418 13.94 184.832 14.3667 184.125 14.66C183.432 14.9533 182.665 15.1 181.825 15.1C180.745 15.1 179.785 14.8733 178.945 14.42C178.118 13.9533 177.472 13.3133 177.005 12.5C176.538 11.6867 176.305 10.7667 176.305 9.74C176.305 8.71333 176.525 7.79333 176.965 6.98C177.418 6.16667 178.032 5.53333 178.805 5.08C179.592 4.62667 180.472 4.4 181.445 4.4C182.418 4.4 183.292 4.62667 184.065 5.08C184.838 5.53333 185.445 6.16667 185.885 6.98C186.325 7.78 186.545 8.7 186.545 9.74L186.525 10.18ZM181.445 5.62C180.432 5.62 179.578 5.94667 178.885 6.6C178.205 7.24 177.818 8.08 177.725 9.12H185.185C185.092 8.08 184.698 7.24 184.005 6.6C183.325 5.94667 182.472 5.62 181.445 5.62ZM189.995 6.54C190.329 5.83333 190.822 5.3 191.475 4.94C192.142 4.58 192.962 4.4 193.935 4.4V5.78L193.595 5.76C192.489 5.76 191.622 6.1 190.995 6.78C190.369 7.46 190.055 8.41333 190.055 9.64V15H188.635V4.48H189.995V6.54ZM204.996 4.48L199.736 16.26C199.309 17.2467 198.816 17.9467 198.256 18.36C197.696 18.7733 197.022 18.98 196.236 18.98C195.729 18.98 195.256 18.9 194.816 18.74C194.376 18.58 193.996 18.34 193.676 18.02L194.336 16.96C194.869 17.4933 195.509 17.76 196.256 17.76C196.736 17.76 197.142 17.6267 197.476 17.36C197.822 17.0933 198.142 16.64 198.436 16L198.896 14.98L194.196 4.48H195.676L199.636 13.42L203.596 4.48H204.996ZM223.75 4.4C225.07 4.4 226.103 4.78 226.85 5.54C227.61 6.3 227.99 7.42 227.99 8.9V15H226.57V9.04C226.57 7.94667 226.303 7.11333 225.77 6.54C225.25 5.96667 224.51 5.68 223.55 5.68C222.457 5.68 221.597 6.02 220.97 6.7C220.343 7.36667 220.03 8.29333 220.03 9.48V15H218.61V9.04C218.61 7.94667 218.343 7.11333 217.81 6.54C217.29 5.96667 216.543 5.68 215.57 5.68C214.49 5.68 213.63 6.02 212.99 6.7C212.363 7.36667 212.05 8.29333 212.05 9.48V15H210.63V4.48H211.99V6.4C212.363 5.76 212.883 5.26667 213.55 4.92C214.217 4.57333 214.983 4.4 215.85 4.4C216.73 4.4 217.49 4.58667 218.13 4.96C218.783 5.33333 219.27 5.88667 219.59 6.62C219.977 5.92667 220.53 5.38667 221.25 5C221.983 4.6 222.817 4.4 223.75 4.4ZM235.38 15.1C234.367 15.1 233.453 14.8733 232.64 14.42C231.827 13.9533 231.187 13.3133 230.72 12.5C230.253 11.6867 230.02 10.7667 230.02 9.74C230.02 8.71333 230.253 7.79333 230.72 6.98C231.187 6.16667 231.827 5.53333 232.64 5.08C233.453 4.62667 234.367 4.4 235.38 4.4C236.393 4.4 237.307 4.62667 238.12 5.08C238.933 5.53333 239.567 6.16667 240.02 6.98C240.487 7.79333 240.72 8.71333 240.72 9.74C240.72 10.7667 240.487 11.6867 240.02 12.5C239.567 13.3133 238.933 13.9533 238.12 14.42C237.307 14.8733 236.393 15.1 235.38 15.1ZM235.38 13.84C236.127 13.84 236.793 13.6733 237.38 13.34C237.98 12.9933 238.447 12.5067 238.78 11.88C239.113 11.2533 239.28 10.54 239.28 9.74C239.28 8.94 239.113 8.22667 238.78 7.6C238.447 6.97333 237.98 6.49333 237.38 6.16C236.793 5.81333 236.127 5.64 235.38 5.64C234.633 5.64 233.96 5.81333 233.36 6.16C232.773 6.49333 232.307 6.97333 231.96 7.6C231.627 8.22667 231.46 8.94 231.46 9.74C231.46 10.54 231.627 11.2533 231.96 11.88C232.307 12.5067 232.773 12.9933 233.36 13.34C233.96 13.6733 234.633 13.84 235.38 13.84ZM255.939 4.4C257.259 4.4 258.292 4.78 259.039 5.54C259.799 6.3 260.179 7.42 260.179 8.9V15H258.759V9.04C258.759 7.94667 258.492 7.11333 257.959 6.54C257.439 5.96667 256.699 5.68 255.739 5.68C254.646 5.68 253.786 6.02 253.159 6.7C252.532 7.36667 252.219 8.29333 252.219 9.48V15H250.799V9.04C250.799 7.94667 250.532 7.11333 249.999 6.54C249.479 5.96667 248.732 5.68 247.759 5.68C246.679 5.68 245.819 6.02 245.179 6.7C244.552 7.36667 244.239 8.29333 244.239 9.48V15H242.819V4.48H244.179V6.4C244.552 5.76 245.072 5.26667 245.739 4.92C246.406 4.57333 247.172 4.4 248.039 4.4C248.919 4.4 249.679 4.58667 250.319 4.96C250.972 5.33333 251.459 5.88667 251.779 6.62C252.166 5.92667 252.719 5.38667 253.439 5C254.172 4.6 255.006 4.4 255.939 4.4ZM272.429 10.18H263.629C263.709 11.2733 264.129 12.16 264.889 12.84C265.649 13.5067 266.609 13.84 267.769 13.84C268.422 13.84 269.022 13.7267 269.569 13.5C270.116 13.26 270.589 12.9133 270.989 12.46L271.789 13.38C271.322 13.94 270.736 14.3667 270.029 14.66C269.336 14.9533 268.569 15.1 267.729 15.1C266.649 15.1 265.689 14.8733 264.849 14.42C264.022 13.9533 263.376 13.3133 262.909 12.5C262.442 11.6867 262.209 10.7667 262.209 9.74C262.209 8.71333 262.429 7.79333 262.869 6.98C263.322 6.16667 263.936 5.53333 264.709 5.08C265.496 4.62667 266.376 4.4 267.349 4.4C268.322 4.4 269.196 4.62667 269.969 5.08C270.742 5.53333 271.349 6.16667 271.789 6.98C272.229 7.78 272.449 8.7 272.449 9.74L272.429 10.18ZM267.349 5.62C266.336 5.62 265.482 5.94667 264.789 6.6C264.109 7.24 263.722 8.08 263.629 9.12H271.089C270.996 8.08 270.602 7.24 269.909 6.6C269.229 5.94667 268.376 5.62 267.349 5.62ZM279.899 4.4C281.219 4.4 282.266 4.78667 283.039 5.56C283.826 6.32 284.219 7.43333 284.219 8.9V15H282.799V9.04C282.799 7.94667 282.526 7.11333 281.979 6.54C281.433 5.96667 280.653 5.68 279.639 5.68C278.506 5.68 277.606 6.02 276.939 6.7C276.286 7.36667 275.959 8.29333 275.959 9.48V15H274.539V4.48H275.899V6.42C276.286 5.78 276.819 5.28667 277.499 4.94C278.193 4.58 278.993 4.4 279.899 4.4ZM292.815 14.36C292.548 14.6 292.215 14.7867 291.815 14.92C291.428 15.04 291.021 15.1 290.595 15.1C289.608 15.1 288.848 14.8333 288.315 14.3C287.781 13.7667 287.515 13.0133 287.515 12.04V5.68H285.635V4.48H287.515V2.18H288.935V4.48H292.135V5.68H288.935V11.96C288.935 12.5867 289.088 13.0667 289.395 13.4C289.715 13.72 290.168 13.88 290.755 13.88C291.048 13.88 291.328 13.8333 291.595 13.74C291.875 13.6467 292.115 13.5133 292.315 13.34L292.815 14.36ZM297.42 15.1C296.566 15.1 295.746 14.98 294.96 14.74C294.186 14.4867 293.58 14.1733 293.14 13.8L293.78 12.68C294.22 13.0267 294.773 13.3133 295.44 13.54C296.106 13.7533 296.8 13.86 297.52 13.86C298.48 13.86 299.186 13.7133 299.64 13.42C300.106 13.1133 300.34 12.6867 300.34 12.14C300.34 11.7533 300.213 11.4533 299.96 11.24C299.706 11.0133 299.386 10.8467 299 10.74C298.613 10.62 298.1 10.5067 297.46 10.4C296.606 10.24 295.92 10.08 295.4 9.92C294.88 9.74667 294.433 9.46 294.06 9.06C293.7 8.66 293.52 8.10667 293.52 7.4C293.52 6.52 293.886 5.8 294.62 5.24C295.353 4.68 296.373 4.4 297.68 4.4C298.36 4.4 299.04 4.49333 299.72 4.68C300.4 4.85333 300.96 5.08667 301.4 5.38L300.78 6.52C299.913 5.92 298.88 5.62 297.68 5.62C296.773 5.62 296.086 5.78 295.62 6.1C295.166 6.42 294.94 6.84 294.94 7.36C294.94 7.76 295.066 8.08 295.32 8.32C295.586 8.56 295.913 8.74 296.3 8.86C296.686 8.96667 297.22 9.08 297.9 9.2C298.74 9.36 299.413 9.52 299.92 9.68C300.426 9.84 300.86 10.1133 301.22 10.5C301.58 10.8867 301.76 11.42 301.76 12.1C301.76 13.02 301.373 13.7533 300.6 14.3C299.84 14.8333 298.78 15.1 297.42 15.1ZM303.745 12.92C304.051 12.92 304.305 13.0267 304.505 13.24C304.705 13.44 304.805 13.6933 304.805 14C304.805 14.16 304.778 14.3333 304.725 14.52C304.685 14.7067 304.618 14.92 304.525 15.16L303.685 17.92H302.725L303.405 15.02C303.191 14.9533 303.018 14.8333 302.885 14.66C302.751 14.4733 302.685 14.2533 302.685 14C302.685 13.6933 302.785 13.44 302.985 13.24C303.185 13.0267 303.438 12.92 303.745 12.92ZM7.52 38.36C7.25333 38.6 6.92 38.7867 6.52 38.92C6.13333 39.04 5.72667 39.1 5.3 39.1C4.31333 39.1 3.55333 38.8333 3.02 38.3C2.48667 37.7667 2.22 37.0133 2.22 36.04V29.68H0.34V28.48H2.22V26.18H3.64V28.48H6.84V29.68H3.64V35.96C3.64 36.5867 3.79333 37.0667 4.1 37.4C4.42 37.72 4.87333 37.88 5.46 37.88C5.75333 37.88 6.03333 37.8333 6.3 37.74C6.58 37.6467 6.82 37.5133 7.02 37.34L7.52 38.36ZM14.665 28.4C15.985 28.4 17.0317 28.7867 17.805 29.56C18.5917 30.32 18.985 31.4333 18.985 32.9V39H17.565V33.04C17.565 31.9467 17.2917 31.1133 16.745 30.54C16.1983 29.9667 15.4183 29.68 14.405 29.68C13.2717 29.68 12.3717 30.02 11.705 30.7C11.0517 31.3667 10.725 32.2933 10.725 33.48V39H9.305V24.16H10.725V30.32C11.1117 29.7067 11.645 29.2333 12.325 28.9C13.005 28.5667 13.785 28.4 14.665 28.4ZM31.2392 34.18H22.4392C22.5192 35.2733 22.9392 36.16 23.6992 36.84C24.4592 37.5067 25.4192 37.84 26.5792 37.84C27.2326 37.84 27.8326 37.7267 28.3792 37.5C28.9259 37.26 29.3992 36.9133 29.7992 36.46L30.5992 37.38C30.1326 37.94 29.5459 38.3667 28.8392 38.66C28.1459 38.9533 27.3792 39.1 26.5392 39.1C25.4592 39.1 24.4992 38.8733 23.6592 38.42C22.8326 37.9533 22.1859 37.3133 21.7192 36.5C21.2526 35.6867 21.0192 34.7667 21.0192 33.74C21.0192 32.7133 21.2392 31.7933 21.6792 30.98C22.1326 30.1667 22.7459 29.5333 23.5192 29.08C24.3059 28.6267 25.1859 28.4 26.1592 28.4C27.1326 28.4 28.0059 28.6267 28.7792 29.08C29.5526 29.5333 30.1592 30.1667 30.5992 30.98C31.0392 31.78 31.2592 32.7 31.2592 33.74L31.2392 34.18ZM26.1592 29.62C25.1459 29.62 24.2926 29.9467 23.5992 30.6C22.9192 31.24 22.5326 32.08 22.4392 33.12H29.8992C29.8059 32.08 29.4126 31.24 28.7192 30.6C28.0392 29.9467 27.1859 29.62 26.1592 29.62ZM43.3239 38.36C43.0572 38.6 42.7239 38.7867 42.3239 38.92C41.9372 39.04 41.5306 39.1 41.1039 39.1C40.1172 39.1 39.3572 38.8333 38.8239 38.3C38.2906 37.7667 38.0239 37.0133 38.0239 36.04V29.68H36.1439V28.48H38.0239V26.18H39.4439V28.48H42.6439V29.68H39.4439V35.96C39.4439 36.5867 39.5972 37.0667 39.9039 37.4C40.2239 37.72 40.6772 37.88 41.2639 37.88C41.5572 37.88 41.8372 37.8333 42.1039 37.74C42.3839 37.6467 42.6239 37.5133 42.8239 37.34L43.3239 38.36ZM50.4689 28.4C51.7889 28.4 52.8356 28.7867 53.6089 29.56C54.3956 30.32 54.7889 31.4333 54.7889 32.9V39H53.3689V33.04C53.3689 31.9467 53.0956 31.1133 52.5489 30.54C52.0022 29.9667 51.2222 29.68 50.2089 29.68C49.0756 29.68 48.1756 30.02 47.5089 30.7C46.8556 31.3667 46.5289 32.2933 46.5289 33.48V39H45.1089V24.16H46.5289V30.32C46.9156 29.7067 47.4489 29.2333 48.1289 28.9C48.8089 28.5667 49.5889 28.4 50.4689 28.4ZM57.8441 28.48H59.2641V39H57.8441V28.48ZM58.5641 26.18C58.2707 26.18 58.0241 26.08 57.8241 25.88C57.6241 25.68 57.5241 25.44 57.5241 25.16C57.5241 24.8933 57.6241 24.66 57.8241 24.46C58.0241 24.26 58.2707 24.16 58.5641 24.16C58.8574 24.16 59.1041 24.26 59.3041 24.46C59.5041 24.6467 59.6041 24.8733 59.6041 25.14C59.6041 25.4333 59.5041 25.68 59.3041 25.88C59.1041 26.08 58.8574 26.18 58.5641 26.18ZM67.7752 28.4C69.0952 28.4 70.1418 28.7867 70.9152 29.56C71.7018 30.32 72.0952 31.4333 72.0952 32.9V39H70.6752V33.04C70.6752 31.9467 70.4018 31.1133 69.8552 30.54C69.3085 29.9667 68.5285 29.68 67.5152 29.68C66.3818 29.68 65.4818 30.02 64.8152 30.7C64.1618 31.3667 63.8352 32.2933 63.8352 33.48V39H62.4152V28.48H63.7752V30.42C64.1618 29.78 64.6952 29.2867 65.3752 28.94C66.0685 28.58 66.8685 28.4 67.7752 28.4ZM84.9294 28.48V37.72C84.9294 39.5067 84.4894 40.8267 83.6094 41.68C82.7427 42.5467 81.4294 42.98 79.6694 42.98C78.696 42.98 77.7694 42.8333 76.8894 42.54C76.0227 42.26 75.316 41.8667 74.7694 41.36L75.4894 40.28C75.996 40.7333 76.6094 41.0867 77.3294 41.34C78.0627 41.5933 78.8294 41.72 79.6294 41.72C80.9627 41.72 81.9427 41.4067 82.5694 40.78C83.196 40.1667 83.5094 39.2067 83.5094 37.9V36.56C83.0694 37.2267 82.4894 37.7333 81.7694 38.08C81.0627 38.4267 80.276 38.6 79.4094 38.6C78.4227 38.6 77.5227 38.3867 76.7094 37.96C75.9094 37.52 75.276 36.9133 74.8094 36.14C74.356 35.3533 74.1294 34.4667 74.1294 33.48C74.1294 32.4933 74.356 31.6133 74.8094 30.84C75.276 30.0667 75.9094 29.4667 76.7094 29.04C77.5094 28.6133 78.4094 28.4 79.4094 28.4C80.3027 28.4 81.1094 28.58 81.8294 28.94C82.5494 29.3 83.1294 29.82 83.5694 30.5V28.48H84.9294ZM79.5494 37.34C80.3094 37.34 80.996 37.18 81.6094 36.86C82.2227 36.5267 82.696 36.0667 83.0294 35.48C83.376 34.8933 83.5494 34.2267 83.5494 33.48C83.5494 32.7333 83.376 32.0733 83.0294 31.5C82.696 30.9133 82.2227 30.46 81.6094 30.14C81.0094 29.8067 80.3227 29.64 79.5494 29.64C78.7894 29.64 78.1027 29.8 77.4894 30.12C76.8894 30.44 76.416 30.8933 76.0694 31.48C75.736 32.0667 75.5694 32.7333 75.5694 33.48C75.5694 34.2267 75.736 34.8933 76.0694 35.48C76.416 36.0667 76.8894 36.5267 77.4894 36.86C78.1027 37.18 78.7894 37.34 79.5494 37.34ZM90.9203 39.1C90.067 39.1 89.247 38.98 88.4603 38.74C87.687 38.4867 87.0803 38.1733 86.6403 37.8L87.2803 36.68C87.7203 37.0267 88.2736 37.3133 88.9403 37.54C89.607 37.7533 90.3003 37.86 91.0203 37.86C91.9803 37.86 92.687 37.7133 93.1403 37.42C93.607 37.1133 93.8403 36.6867 93.8403 36.14C93.8403 35.7533 93.7136 35.4533 93.4603 35.24C93.207 35.0133 92.887 34.8467 92.5003 34.74C92.1136 34.62 91.6003 34.5067 90.9603 34.4C90.107 34.24 89.4203 34.08 88.9003 33.92C88.3803 33.7467 87.9336 33.46 87.5603 33.06C87.2003 32.66 87.0203 32.1067 87.0203 31.4C87.0203 30.52 87.387 29.8 88.1203 29.24C88.8536 28.68 89.8736 28.4 91.1803 28.4C91.8603 28.4 92.5403 28.4933 93.2203 28.68C93.9003 28.8533 94.4603 29.0867 94.9003 29.38L94.2803 30.52C93.4136 29.92 92.3803 29.62 91.1803 29.62C90.2736 29.62 89.587 29.78 89.1203 30.1C88.667 30.42 88.4403 30.84 88.4403 31.36C88.4403 31.76 88.567 32.08 88.8203 32.32C89.087 32.56 89.4136 32.74 89.8003 32.86C90.187 32.9667 90.7203 33.08 91.4003 33.2C92.2403 33.36 92.9136 33.52 93.4203 33.68C93.927 33.84 94.3603 34.1133 94.7203 34.5C95.0803 34.8867 95.2603 35.42 95.2603 36.1C95.2603 37.02 94.8736 37.7533 94.1003 38.3C93.3403 38.8333 92.2803 39.1 90.9203 39.1ZM110.36 28.48L105.1 40.26C104.673 41.2467 104.18 41.9467 103.62 42.36C103.06 42.7733 102.387 42.98 101.6 42.98C101.093 42.98 100.62 42.9 100.18 42.74C99.7398 42.58 99.3598 42.34 99.0398 42.02L99.6998 40.96C100.233 41.4933 100.873 41.76 101.62 41.76C102.1 41.76 102.507 41.6267 102.84 41.36C103.187 41.0933 103.507 40.64 103.8 40L104.26 38.98L99.5598 28.48H101.04L105 37.42L108.96 28.48H110.36ZM115.567 39.1C114.553 39.1 113.64 38.8733 112.827 38.42C112.013 37.9533 111.373 37.3133 110.907 36.5C110.44 35.6867 110.207 34.7667 110.207 33.74C110.207 32.7133 110.44 31.7933 110.907 30.98C111.373 30.1667 112.013 29.5333 112.827 29.08C113.64 28.6267 114.553 28.4 115.567 28.4C116.58 28.4 117.493 28.6267 118.307 29.08C119.12 29.5333 119.753 30.1667 120.207 30.98C120.673 31.7933 120.907 32.7133 120.907 33.74C120.907 34.7667 120.673 35.6867 120.207 36.5C119.753 37.3133 119.12 37.9533 118.307 38.42C117.493 38.8733 116.58 39.1 115.567 39.1ZM115.567 37.84C116.313 37.84 116.98 37.6733 117.567 37.34C118.167 36.9933 118.633 36.5067 118.967 35.88C119.3 35.2533 119.467 34.54 119.467 33.74C119.467 32.94 119.3 32.2267 118.967 31.6C118.633 30.9733 118.167 30.4933 117.567 30.16C116.98 29.8133 116.313 29.64 115.567 29.64C114.82 29.64 114.147 29.8133 113.547 30.16C112.96 30.4933 112.493 30.9733 112.147 31.6C111.813 32.2267 111.647 32.94 111.647 33.74C111.647 34.54 111.813 35.2533 112.147 35.88C112.493 36.5067 112.96 36.9933 113.547 37.34C114.147 37.6733 114.82 37.84 115.567 37.84ZM132.486 28.48V39H131.126V37.08C130.752 37.72 130.239 38.22 129.586 38.58C128.932 38.9267 128.186 39.1 127.346 39.1C125.972 39.1 124.886 38.72 124.086 37.96C123.299 37.1867 122.906 36.06 122.906 34.58V28.48H124.326V34.44C124.326 35.5467 124.599 36.3867 125.146 36.96C125.692 37.5333 126.472 37.82 127.486 37.82C128.592 37.82 129.466 37.4867 130.106 36.82C130.746 36.14 131.066 35.2 131.066 34V28.48H132.486ZM143.777 28.4C145.151 28.4 146.204 28.7467 146.937 29.44C147.671 30.12 148.037 31.1333 148.037 32.48V39H146.677V37.36C146.357 37.9067 145.884 38.3333 145.257 38.64C144.644 38.9467 143.911 39.1 143.057 39.1C141.884 39.1 140.951 38.82 140.257 38.26C139.564 37.7 139.217 36.96 139.217 36.04C139.217 35.1467 139.537 34.4267 140.177 33.88C140.831 33.3333 141.864 33.06 143.277 33.06H146.617V32.42C146.617 31.5133 146.364 30.8267 145.857 30.36C145.351 29.88 144.611 29.64 143.637 29.64C142.971 29.64 142.331 29.7533 141.717 29.98C141.104 30.1933 140.577 30.4933 140.137 30.88L139.497 29.82C140.031 29.3667 140.671 29.02 141.417 28.78C142.164 28.5267 142.951 28.4 143.777 28.4ZM143.277 37.98C144.077 37.98 144.764 37.8 145.337 37.44C145.911 37.0667 146.337 36.5333 146.617 35.84V34.12H143.317C141.517 34.12 140.617 34.7467 140.617 36C140.617 36.6133 140.851 37.1 141.317 37.46C141.784 37.8067 142.437 37.98 143.277 37.98ZM152.454 30.54C152.787 29.8333 153.281 29.3 153.934 28.94C154.601 28.58 155.421 28.4 156.394 28.4V29.78L156.054 29.76C154.947 29.76 154.081 30.1 153.454 30.78C152.827 31.46 152.514 32.4133 152.514 33.64V39H151.094V28.48H152.454V30.54ZM167.227 34.18H158.427C158.507 35.2733 158.927 36.16 159.687 36.84C160.447 37.5067 161.407 37.84 162.567 37.84C163.221 37.84 163.821 37.7267 164.367 37.5C164.914 37.26 165.387 36.9133 165.787 36.46L166.587 37.38C166.121 37.94 165.534 38.3667 164.827 38.66C164.134 38.9533 163.367 39.1 162.527 39.1C161.447 39.1 160.487 38.8733 159.647 38.42C158.821 37.9533 158.174 37.3133 157.707 36.5C157.241 35.6867 157.007 34.7667 157.007 33.74C157.007 32.7133 157.227 31.7933 157.667 30.98C158.121 30.1667 158.734 29.5333 159.507 29.08C160.294 28.6267 161.174 28.4 162.147 28.4C163.121 28.4 163.994 28.6267 164.767 29.08C165.541 29.5333 166.147 30.1667 166.587 30.98C167.027 31.78 167.247 32.7 167.247 33.74L167.227 34.18ZM162.147 29.62C161.134 29.62 160.281 29.9467 159.587 30.6C158.907 31.24 158.521 32.08 158.427 33.12H165.887C165.794 32.08 165.401 31.24 164.707 30.6C164.027 29.9467 163.174 29.62 162.147 29.62ZM183.372 24.16V39H182.012V36.92C181.586 37.6267 181.019 38.1667 180.312 38.54C179.619 38.9133 178.832 39.1 177.952 39.1C176.966 39.1 176.072 38.8733 175.272 38.42C174.472 37.9667 173.846 37.3333 173.392 36.52C172.939 35.7067 172.712 34.78 172.712 33.74C172.712 32.7 172.939 31.7733 173.392 30.96C173.846 30.1467 174.472 29.52 175.272 29.08C176.072 28.6267 176.966 28.4 177.952 28.4C178.806 28.4 179.572 28.58 180.252 28.94C180.946 29.2867 181.512 29.8 181.952 30.48V24.16H183.372ZM178.072 37.84C178.806 37.84 179.466 37.6733 180.052 37.34C180.652 36.9933 181.119 36.5067 181.452 35.88C181.799 35.2533 181.972 34.54 181.972 33.74C181.972 32.94 181.799 32.2267 181.452 31.6C181.119 30.9733 180.652 30.4933 180.052 30.16C179.466 29.8133 178.806 29.64 178.072 29.64C177.326 29.64 176.652 29.8133 176.052 30.16C175.466 30.4933 174.999 30.9733 174.652 31.6C174.319 32.2267 174.152 32.94 174.152 33.74C174.152 34.54 174.319 35.2533 174.652 35.88C174.999 36.5067 175.466 36.9933 176.052 37.34C176.652 37.6733 177.326 37.84 178.072 37.84ZM190.827 39.1C189.814 39.1 188.9 38.8733 188.087 38.42C187.274 37.9533 186.634 37.3133 186.167 36.5C185.7 35.6867 185.467 34.7667 185.467 33.74C185.467 32.7133 185.7 31.7933 186.167 30.98C186.634 30.1667 187.274 29.5333 188.087 29.08C188.9 28.6267 189.814 28.4 190.827 28.4C191.84 28.4 192.754 28.6267 193.567 29.08C194.38 29.5333 195.014 30.1667 195.467 30.98C195.934 31.7933 196.167 32.7133 196.167 33.74C196.167 34.7667 195.934 35.6867 195.467 36.5C195.014 37.3133 194.38 37.9533 193.567 38.42C192.754 38.8733 191.84 39.1 190.827 39.1ZM190.827 37.84C191.574 37.84 192.24 37.6733 192.827 37.34C193.427 36.9933 193.894 36.5067 194.227 35.88C194.56 35.2533 194.727 34.54 194.727 33.74C194.727 32.94 194.56 32.2267 194.227 31.6C193.894 30.9733 193.427 30.4933 192.827 30.16C192.24 29.8133 191.574 29.64 190.827 29.64C190.08 29.64 189.407 29.8133 188.807 30.16C188.22 30.4933 187.754 30.9733 187.407 31.6C187.074 32.2267 186.907 32.94 186.907 33.74C186.907 34.54 187.074 35.2533 187.407 35.88C187.754 36.5067 188.22 36.9933 188.807 37.34C189.407 37.6733 190.08 37.84 190.827 37.84ZM198.266 28.48H199.686V39H198.266V28.48ZM198.986 26.18C198.693 26.18 198.446 26.08 198.246 25.88C198.046 25.68 197.946 25.44 197.946 25.16C197.946 24.8933 198.046 24.66 198.246 24.46C198.446 24.26 198.693 24.16 198.986 24.16C199.279 24.16 199.526 24.26 199.726 24.46C199.926 24.6467 200.026 24.8733 200.026 25.14C200.026 25.4333 199.926 25.68 199.726 25.88C199.526 26.08 199.279 26.18 198.986 26.18ZM208.197 28.4C209.517 28.4 210.564 28.7867 211.337 29.56C212.124 30.32 212.517 31.4333 212.517 32.9V39H211.097V33.04C211.097 31.9467 210.824 31.1133 210.277 30.54C209.73 29.9667 208.95 29.68 207.937 29.68C206.804 29.68 205.904 30.02 205.237 30.7C204.584 31.3667 204.257 32.2933 204.257 33.48V39H202.837V28.48H204.197V30.42C204.584 29.78 205.117 29.2867 205.797 28.94C206.49 28.58 207.29 28.4 208.197 28.4ZM225.351 28.48V37.72C225.351 39.5067 224.911 40.8267 224.031 41.68C223.165 42.5467 221.851 42.98 220.091 42.98C219.118 42.98 218.191 42.8333 217.311 42.54C216.445 42.26 215.738 41.8667 215.191 41.36L215.911 40.28C216.418 40.7333 217.031 41.0867 217.751 41.34C218.485 41.5933 219.251 41.72 220.051 41.72C221.385 41.72 222.365 41.4067 222.991 40.78C223.618 40.1667 223.931 39.2067 223.931 37.9V36.56C223.491 37.2267 222.911 37.7333 222.191 38.08C221.485 38.4267 220.698 38.6 219.831 38.6C218.845 38.6 217.945 38.3867 217.131 37.96C216.331 37.52 215.698 36.9133 215.231 36.14C214.778 35.3533 214.551 34.4667 214.551 33.48C214.551 32.4933 214.778 31.6133 215.231 30.84C215.698 30.0667 216.331 29.4667 217.131 29.04C217.931 28.6133 218.831 28.4 219.831 28.4C220.725 28.4 221.531 28.58 222.251 28.94C222.971 29.3 223.551 29.82 223.991 30.5V28.48H225.351ZM219.971 37.34C220.731 37.34 221.418 37.18 222.031 36.86C222.645 36.5267 223.118 36.0667 223.451 35.48C223.798 34.8933 223.971 34.2267 223.971 33.48C223.971 32.7333 223.798 32.0733 223.451 31.5C223.118 30.9133 222.645 30.46 222.031 30.14C221.431 29.8067 220.745 29.64 219.971 29.64C219.211 29.64 218.525 29.8 217.911 30.12C217.311 30.44 216.838 30.8933 216.491 31.48C216.158 32.0667 215.991 32.7333 215.991 33.48C215.991 34.2267 216.158 34.8933 216.491 35.48C216.838 36.0667 217.311 36.5267 217.911 36.86C218.525 37.18 219.211 37.34 219.971 37.34ZM228.682 36.92C228.989 36.92 229.242 37.0267 229.442 37.24C229.642 37.44 229.742 37.6933 229.742 38C229.742 38.16 229.716 38.3333 229.662 38.52C229.622 38.7067 229.556 38.92 229.462 39.16L228.622 41.92H227.662L228.342 39.02C228.129 38.9533 227.956 38.8333 227.822 38.66C227.689 38.4733 227.622 38.2533 227.622 38C227.622 37.6933 227.722 37.44 227.922 37.24C228.122 37.0267 228.376 36.92 228.682 36.92ZM7.52 62.36C7.25333 62.6 6.92 62.7867 6.52 62.92C6.13333 63.04 5.72667 63.1 5.3 63.1C4.31333 63.1 3.55333 62.8333 3.02 62.3C2.48667 61.7667 2.22 61.0133 2.22 60.04V53.68H0.34V52.48H2.22V50.18H3.64V52.48H6.84V53.68H3.64V59.96C3.64 60.5867 3.79333 61.0667 4.1 61.4C4.42 61.72 4.87333 61.88 5.46 61.88C5.75333 61.88 6.03333 61.8333 6.3 61.74C6.58 61.6467 6.82 61.5133 7.02 61.34L7.52 62.36ZM14.665 52.4C15.985 52.4 17.0317 52.7867 17.805 53.56C18.5917 54.32 18.985 55.4333 18.985 56.9V63H17.565V57.04C17.565 55.9467 17.2917 55.1133 16.745 54.54C16.1983 53.9667 15.4183 53.68 14.405 53.68C13.2717 53.68 12.3717 54.02 11.705 54.7C11.0517 55.3667 10.725 56.2933 10.725 57.48V63H9.305V48.16H10.725V54.32C11.1117 53.7067 11.645 53.2333 12.325 52.9C13.005 52.5667 13.785 52.4 14.665 52.4ZM31.2392 58.18H22.4392C22.5192 59.2733 22.9392 60.16 23.6992 60.84C24.4592 61.5067 25.4192 61.84 26.5792 61.84C27.2326 61.84 27.8326 61.7267 28.3792 61.5C28.9259 61.26 29.3992 60.9133 29.7992 60.46L30.5992 61.38C30.1326 61.94 29.5459 62.3667 28.8392 62.66C28.1459 62.9533 27.3792 63.1 26.5392 63.1C25.4592 63.1 24.4992 62.8733 23.6592 62.42C22.8326 61.9533 22.1859 61.3133 21.7192 60.5C21.2526 59.6867 21.0192 58.7667 21.0192 57.74C21.0192 56.7133 21.2392 55.7933 21.6792 54.98C22.1326 54.1667 22.7459 53.5333 23.5192 53.08C24.3059 52.6267 25.1859 52.4 26.1592 52.4C27.1326 52.4 28.0059 52.6267 28.7792 53.08C29.5526 53.5333 30.1592 54.1667 30.5992 54.98C31.0392 55.78 31.2592 56.7 31.2592 57.74L31.2392 58.18ZM26.1592 53.62C25.1459 53.62 24.2926 53.9467 23.5992 54.6C22.9192 55.24 22.5326 56.08 22.4392 57.12H29.8992C29.8059 56.08 29.4126 55.24 28.7192 54.6C28.0392 53.9467 27.1859 53.62 26.1592 53.62ZM47.3839 48.16V63H46.0239V60.92C45.5972 61.6267 45.0306 62.1667 44.3239 62.54C43.6306 62.9133 42.8439 63.1 41.9639 63.1C40.9772 63.1 40.0839 62.8733 39.2839 62.42C38.4839 61.9667 37.8572 61.3333 37.4039 60.52C36.9506 59.7067 36.7239 58.78 36.7239 57.74C36.7239 56.7 36.9506 55.7733 37.4039 54.96C37.8572 54.1467 38.4839 53.52 39.2839 53.08C40.0839 52.6267 40.9772 52.4 41.9639 52.4C42.8172 52.4 43.5839 52.58 44.2639 52.94C44.9572 53.2867 45.5239 53.8 45.9639 54.48V48.16H47.3839ZM42.0839 61.84C42.8172 61.84 43.4772 61.6733 44.0639 61.34C44.6639 60.9933 45.1306 60.5067 45.4639 59.88C45.8106 59.2533 45.9839 58.54 45.9839 57.74C45.9839 56.94 45.8106 56.2267 45.4639 55.6C45.1306 54.9733 44.6639 54.4933 44.0639 54.16C43.4772 53.8133 42.8172 53.64 42.0839 53.64C41.3372 53.64 40.6639 53.8133 40.0639 54.16C39.4772 54.4933 39.0106 54.9733 38.6639 55.6C38.3306 56.2267 38.1639 56.94 38.1639 57.74C38.1639 58.54 38.3306 59.2533 38.6639 59.88C39.0106 60.5067 39.4772 60.9933 40.0639 61.34C40.6639 61.6733 41.3372 61.84 42.0839 61.84ZM59.6986 58.18H50.8986C50.9786 59.2733 51.3986 60.16 52.1586 60.84C52.9186 61.5067 53.8786 61.84 55.0386 61.84C55.6919 61.84 56.2919 61.7267 56.8386 61.5C57.3853 61.26 57.8586 60.9133 58.2586 60.46L59.0586 61.38C58.5919 61.94 58.0053 62.3667 57.2986 62.66C56.6053 62.9533 55.8386 63.1 54.9986 63.1C53.9186 63.1 52.9586 62.8733 52.1186 62.42C51.2919 61.9533 50.6453 61.3133 50.1786 60.5C49.7119 59.6867 49.4786 58.7667 49.4786 57.74C49.4786 56.7133 49.6986 55.7933 50.1386 54.98C50.5919 54.1667 51.2053 53.5333 51.9786 53.08C52.7653 52.6267 53.6453 52.4 54.6186 52.4C55.5919 52.4 56.4653 52.6267 57.2386 53.08C58.0119 53.5333 58.6186 54.1667 59.0586 54.98C59.4986 55.78 59.7186 56.7 59.7186 57.74L59.6986 58.18ZM54.6186 53.62C53.6053 53.62 52.7519 53.9467 52.0586 54.6C51.3786 55.24 50.9919 56.08 50.8986 57.12H58.3586C58.2653 56.08 57.8719 55.24 57.1786 54.6C56.4986 53.9467 55.6453 53.62 54.6186 53.62ZM64.6289 63.1C63.7756 63.1 62.9556 62.98 62.1689 62.74C61.3956 62.4867 60.7889 62.1733 60.3489 61.8L60.9889 60.68C61.4289 61.0267 61.9822 61.3133 62.6489 61.54C63.3156 61.7533 64.0089 61.86 64.7289 61.86C65.6889 61.86 66.3956 61.7133 66.8489 61.42C67.3156 61.1133 67.5489 60.6867 67.5489 60.14C67.5489 59.7533 67.4222 59.4533 67.1689 59.24C66.9156 59.0133 66.5956 58.8467 66.2089 58.74C65.8222 58.62 65.3089 58.5067 64.6689 58.4C63.8156 58.24 63.1289 58.08 62.6089 57.92C62.0889 57.7467 61.6422 57.46 61.2689 57.06C60.9089 56.66 60.7289 56.1067 60.7289 55.4C60.7289 54.52 61.0956 53.8 61.8289 53.24C62.5622 52.68 63.5822 52.4 64.8889 52.4C65.5689 52.4 66.2489 52.4933 66.9289 52.68C67.6089 52.8533 68.1689 53.0867 68.6089 53.38L67.9889 54.52C67.1222 53.92 66.0889 53.62 64.8889 53.62C63.9822 53.62 63.2956 53.78 62.8289 54.1C62.3756 54.42 62.1489 54.84 62.1489 55.36C62.1489 55.76 62.2756 56.08 62.5289 56.32C62.7956 56.56 63.1222 56.74 63.5089 56.86C63.8956 56.9667 64.4289 57.08 65.1089 57.2C65.9489 57.36 66.6222 57.52 67.1289 57.68C67.6356 57.84 68.0689 58.1133 68.4289 58.5C68.7889 58.8867 68.9689 59.42 68.9689 60.1C68.9689 61.02 68.5822 61.7533 67.8089 62.3C67.0489 62.8333 65.9889 63.1 64.6289 63.1ZM76.3341 62.36C76.0674 62.6 75.7341 62.7867 75.3341 62.92C74.9474 63.04 74.5407 63.1 74.1141 63.1C73.1274 63.1 72.3674 62.8333 71.8341 62.3C71.3007 61.7667 71.0341 61.0133 71.0341 60.04V53.68H69.1541V52.48H71.0341V50.18H72.4541V52.48H75.6541V53.68H72.4541V59.96C72.4541 60.5867 72.6074 61.0667 72.9141 61.4C73.2341 61.72 73.6874 61.88 74.2741 61.88C74.5674 61.88 74.8474 61.8333 75.1141 61.74C75.3941 61.6467 75.6341 61.5133 75.8341 61.34L76.3341 62.36ZM78.1191 52.48H79.5391V63H78.1191V52.48ZM78.8391 50.18C78.5457 50.18 78.2991 50.08 78.0991 49.88C77.8991 49.68 77.7991 49.44 77.7991 49.16C77.7991 48.8933 77.8991 48.66 78.0991 48.46C78.2991 48.26 78.5457 48.16 78.8391 48.16C79.1324 48.16 79.3791 48.26 79.5791 48.46C79.7791 48.6467 79.8791 48.8733 79.8791 49.14C79.8791 49.4333 79.7791 49.68 79.5791 49.88C79.3791 50.08 79.1324 50.18 78.8391 50.18ZM88.0502 52.4C89.3702 52.4 90.4168 52.7867 91.1902 53.56C91.9768 54.32 92.3702 55.4333 92.3702 56.9V63H90.9502V57.04C90.9502 55.9467 90.6768 55.1133 90.1302 54.54C89.5835 53.9667 88.8035 53.68 87.7902 53.68C86.6568 53.68 85.7568 54.02 85.0902 54.7C84.4368 55.3667 84.1102 56.2933 84.1102 57.48V63H82.6902V52.48H84.0502V54.42C84.4368 53.78 84.9702 53.2867 85.6502 52.94C86.3435 52.58 87.1435 52.4 88.0502 52.4ZM99.1053 52.4C100.479 52.4 101.532 52.7467 102.265 53.44C102.999 54.12 103.365 55.1333 103.365 56.48V63H102.005V61.36C101.685 61.9067 101.212 62.3333 100.585 62.64C99.972 62.9467 99.2386 63.1 98.3853 63.1C97.212 63.1 96.2786 62.82 95.5853 62.26C94.892 61.7 94.5453 60.96 94.5453 60.04C94.5453 59.1467 94.8653 58.4267 95.5053 57.88C96.1586 57.3333 97.192 57.06 98.6053 57.06H101.945V56.42C101.945 55.5133 101.692 54.8267 101.185 54.36C100.679 53.88 99.9386 53.64 98.9653 53.64C98.2986 53.64 97.6586 53.7533 97.0453 53.98C96.432 54.1933 95.9053 54.4933 95.4653 54.88L94.8253 53.82C95.3586 53.3667 95.9986 53.02 96.7453 52.78C97.492 52.5267 98.2786 52.4 99.1053 52.4ZM98.6053 61.98C99.4053 61.98 100.092 61.8 100.665 61.44C101.239 61.0667 101.665 60.5333 101.945 59.84V58.12H98.6453C96.8453 58.12 95.9453 58.7467 95.9453 60C95.9453 60.6133 96.1786 61.1 96.6453 61.46C97.112 61.8067 97.7653 61.98 98.6053 61.98ZM111.962 62.36C111.696 62.6 111.362 62.7867 110.962 62.92C110.576 63.04 110.169 63.1 109.742 63.1C108.756 63.1 107.996 62.8333 107.462 62.3C106.929 61.7667 106.662 61.0133 106.662 60.04V53.68H104.782V52.48H106.662V50.18H108.082V52.48H111.282V53.68H108.082V59.96C108.082 60.5867 108.236 61.0667 108.542 61.4C108.862 61.72 109.316 61.88 109.902 61.88C110.196 61.88 110.476 61.8333 110.742 61.74C111.022 61.6467 111.262 61.5133 111.462 61.34L111.962 62.36ZM113.747 52.48H115.167V63H113.747V52.48ZM114.467 50.18C114.174 50.18 113.927 50.08 113.727 49.88C113.527 49.68 113.427 49.44 113.427 49.16C113.427 48.8933 113.527 48.66 113.727 48.46C113.927 48.26 114.174 48.16 114.467 48.16C114.761 48.16 115.007 48.26 115.207 48.46C115.407 48.6467 115.507 48.8733 115.507 49.14C115.507 49.4333 115.407 49.68 115.207 49.88C115.007 50.08 114.761 50.18 114.467 50.18ZM122.618 63.1C121.605 63.1 120.692 62.8733 119.878 62.42C119.065 61.9533 118.425 61.3133 117.958 60.5C117.492 59.6867 117.258 58.7667 117.258 57.74C117.258 56.7133 117.492 55.7933 117.958 54.98C118.425 54.1667 119.065 53.5333 119.878 53.08C120.692 52.6267 121.605 52.4 122.618 52.4C123.632 52.4 124.545 52.6267 125.358 53.08C126.172 53.5333 126.805 54.1667 127.258 54.98C127.725 55.7933 127.958 56.7133 127.958 57.74C127.958 58.7667 127.725 59.6867 127.258 60.5C126.805 61.3133 126.172 61.9533 125.358 62.42C124.545 62.8733 123.632 63.1 122.618 63.1ZM122.618 61.84C123.365 61.84 124.032 61.6733 124.618 61.34C125.218 60.9933 125.685 60.5067 126.018 59.88C126.352 59.2533 126.518 58.54 126.518 57.74C126.518 56.94 126.352 56.2267 126.018 55.6C125.685 54.9733 125.218 54.4933 124.618 54.16C124.032 53.8133 123.365 53.64 122.618 53.64C121.872 53.64 121.198 53.8133 120.598 54.16C120.012 54.4933 119.545 54.9733 119.198 55.6C118.865 56.2267 118.698 56.94 118.698 57.74C118.698 58.54 118.865 59.2533 119.198 59.88C119.545 60.5067 120.012 60.9933 120.598 61.34C121.198 61.6733 121.872 61.84 122.618 61.84ZM135.417 52.4C136.737 52.4 137.784 52.7867 138.557 53.56C139.344 54.32 139.737 55.4333 139.737 56.9V63H138.317V57.04C138.317 55.9467 138.044 55.1133 137.497 54.54C136.951 53.9667 136.171 53.68 135.157 53.68C134.024 53.68 133.124 54.02 132.457 54.7C131.804 55.3667 131.477 56.2933 131.477 57.48V63H130.057V52.48H131.417V54.42C131.804 53.78 132.337 53.2867 133.017 52.94C133.711 52.58 134.511 52.4 135.417 52.4ZM145.613 63.1C144.759 63.1 143.939 62.98 143.153 62.74C142.379 62.4867 141.773 62.1733 141.333 61.8L141.973 60.68C142.413 61.0267 142.966 61.3133 143.633 61.54C144.299 61.7533 144.993 61.86 145.713 61.86C146.673 61.86 147.379 61.7133 147.833 61.42C148.299 61.1133 148.533 60.6867 148.533 60.14C148.533 59.7533 148.406 59.4533 148.153 59.24C147.899 59.0133 147.579 58.8467 147.193 58.74C146.806 58.62 146.293 58.5067 145.653 58.4C144.799 58.24 144.113 58.08 143.593 57.92C143.073 57.7467 142.626 57.46 142.253 57.06C141.893 56.66 141.713 56.1067 141.713 55.4C141.713 54.52 142.079 53.8 142.813 53.24C143.546 52.68 144.566 52.4 145.873 52.4C146.553 52.4 147.233 52.4933 147.913 52.68C148.593 52.8533 149.153 53.0867 149.593 53.38L148.973 54.52C148.106 53.92 147.073 53.62 145.873 53.62C144.966 53.62 144.279 53.78 143.813 54.1C143.359 54.42 143.133 54.84 143.133 55.36C143.133 55.76 143.259 56.08 143.513 56.32C143.779 56.56 144.106 56.74 144.493 56.86C144.879 56.9667 145.413 57.08 146.092 57.2C146.933 57.36 147.606 57.52 148.113 57.68C148.619 57.84 149.053 58.1133 149.413 58.5C149.773 58.8867 149.953 59.42 149.953 60.1C149.953 61.02 149.566 61.7533 148.793 62.3C148.033 62.8333 146.973 63.1 145.613 63.1ZM165.052 52.48L159.792 64.26C159.365 65.2467 158.872 65.9467 158.312 66.36C157.752 66.7733 157.079 66.98 156.292 66.98C155.785 66.98 155.312 66.9 154.872 66.74C154.432 66.58 154.052 66.34 153.732 66.02L154.392 64.96C154.925 65.4933 155.565 65.76 156.312 65.76C156.792 65.76 157.199 65.6267 157.532 65.36C157.879 65.0933 158.199 64.64 158.492 64L158.952 62.98L154.252 52.48H155.732L159.692 61.42L163.652 52.48H165.052ZM170.259 63.1C169.246 63.1 168.332 62.8733 167.519 62.42C166.706 61.9533 166.066 61.3133 165.599 60.5C165.132 59.6867 164.899 58.7667 164.899 57.74C164.899 56.7133 165.132 55.7933 165.599 54.98C166.066 54.1667 166.706 53.5333 167.519 53.08C168.332 52.6267 169.246 52.4 170.259 52.4C171.272 52.4 172.186 52.6267 172.999 53.08C173.812 53.5333 174.446 54.1667 174.899 54.98C175.366 55.7933 175.599 56.7133 175.599 57.74C175.599 58.7667 175.366 59.6867 174.899 60.5C174.446 61.3133 173.812 61.9533 172.999 62.42C172.186 62.8733 171.272 63.1 170.259 63.1ZM170.259 61.84C171.006 61.84 171.672 61.6733 172.259 61.34C172.859 60.9933 173.326 60.5067 173.659 59.88C173.992 59.2533 174.159 58.54 174.159 57.74C174.159 56.94 173.992 56.2267 173.659 55.6C173.326 54.9733 172.859 54.4933 172.259 54.16C171.672 53.8133 171.006 53.64 170.259 53.64C169.512 53.64 168.839 53.8133 168.239 54.16C167.652 54.4933 167.186 54.9733 166.839 55.6C166.506 56.2267 166.339 56.94 166.339 57.74C166.339 58.54 166.506 59.2533 166.839 59.88C167.186 60.5067 167.652 60.9933 168.239 61.34C168.839 61.6733 169.512 61.84 170.259 61.84ZM187.178 52.48V63H185.818V61.08C185.445 61.72 184.931 62.22 184.278 62.58C183.625 62.9267 182.878 63.1 182.038 63.1C180.665 63.1 179.578 62.72 178.778 61.96C177.991 61.1867 177.598 60.06 177.598 58.58V52.48H179.018V58.44C179.018 59.5467 179.291 60.3867 179.838 60.96C180.385 61.5333 181.165 61.82 182.178 61.82C183.285 61.82 184.158 61.4867 184.798 60.82C185.438 60.14 185.758 59.2 185.758 58V52.48H187.178ZM210.229 52.48L206.249 63H204.909L201.589 54.38L198.269 63H196.929L192.969 52.48H194.329L197.629 61.42L201.009 52.48H202.229L205.589 61.42L208.929 52.48H210.229ZM214.935 52.4C216.308 52.4 217.362 52.7467 218.095 53.44C218.828 54.12 219.195 55.1333 219.195 56.48V63H217.835V61.36C217.515 61.9067 217.042 62.3333 216.415 62.64C215.802 62.9467 215.068 63.1 214.215 63.1C213.042 63.1 212.108 62.82 211.415 62.26C210.722 61.7 210.375 60.96 210.375 60.04C210.375 59.1467 210.695 58.4267 211.335 57.88C211.988 57.3333 213.022 57.06 214.435 57.06H217.775V56.42C217.775 55.5133 217.522 54.8267 217.015 54.36C216.508 53.88 215.768 53.64 214.795 53.64C214.128 53.64 213.488 53.7533 212.875 53.98C212.262 54.1933 211.735 54.4933 211.295 54.88L210.655 53.82C211.188 53.3667 211.828 53.02 212.575 52.78C213.322 52.5267 214.108 52.4 214.935 52.4ZM214.435 61.98C215.235 61.98 215.922 61.8 216.495 61.44C217.068 61.0667 217.495 60.5333 217.775 59.84V58.12H214.475C212.675 58.12 211.775 58.7467 211.775 60C211.775 60.6133 212.008 61.1 212.475 61.46C212.942 61.8067 213.595 61.98 214.435 61.98ZM227.612 52.4C228.932 52.4 229.979 52.7867 230.752 53.56C231.539 54.32 231.932 55.4333 231.932 56.9V63H230.512V57.04C230.512 55.9467 230.239 55.1133 229.692 54.54C229.145 53.9667 228.365 53.68 227.352 53.68C226.219 53.68 225.319 54.02 224.652 54.7C223.999 55.3667 223.672 56.2933 223.672 57.48V63H222.252V52.48H223.612V54.42C223.999 53.78 224.532 53.2867 225.212 52.94C225.905 52.58 226.705 52.4 227.612 52.4ZM240.527 62.36C240.26 62.6 239.927 62.7867 239.527 62.92C239.14 63.04 238.734 63.1 238.307 63.1C237.32 63.1 236.56 62.8333 236.027 62.3C235.494 61.7667 235.227 61.0133 235.227 60.04V53.68H233.347V52.48H235.227V50.18H236.647V52.48H239.847V53.68H236.647V59.96C236.647 60.5867 236.8 61.0667 237.107 61.4C237.427 61.72 237.88 61.88 238.467 61.88C238.76 61.88 239.04 61.8333 239.307 61.74C239.587 61.6467 239.827 61.5133 240.027 61.34L240.527 62.36ZM252.286 62.36C252.02 62.6 251.686 62.7867 251.286 62.92C250.9 63.04 250.493 63.1 250.066 63.1C249.08 63.1 248.32 62.8333 247.786 62.3C247.253 61.7667 246.986 61.0133 246.986 60.04V53.68H245.106V52.48H246.986V50.18H248.406V52.48H251.606V53.68H248.406V59.96C248.406 60.5867 248.56 61.0667 248.866 61.4C249.186 61.72 249.64 61.88 250.226 61.88C250.52 61.88 250.8 61.8333 251.066 61.74C251.346 61.6467 251.586 61.5133 251.786 61.34L252.286 62.36ZM258 63.1C256.987 63.1 256.074 62.8733 255.26 62.42C254.447 61.9533 253.807 61.3133 253.34 60.5C252.874 59.6867 252.64 58.7667 252.64 57.74C252.64 56.7133 252.874 55.7933 253.34 54.98C253.807 54.1667 254.447 53.5333 255.26 53.08C256.074 52.6267 256.987 52.4 258 52.4C259.014 52.4 259.927 52.6267 260.74 53.08C261.554 53.5333 262.187 54.1667 262.64 54.98C263.107 55.7933 263.34 56.7133 263.34 57.74C263.34 58.7667 263.107 59.6867 262.64 60.5C262.187 61.3133 261.554 61.9533 260.74 62.42C259.927 62.8733 259.014 63.1 258 63.1ZM258 61.84C258.747 61.84 259.414 61.6733 260 61.34C260.6 60.9933 261.067 60.5067 261.4 59.88C261.734 59.2533 261.9 58.54 261.9 57.74C261.9 56.94 261.734 56.2267 261.4 55.6C261.067 54.9733 260.6 54.4933 260 54.16C259.414 53.8133 258.747 53.64 258 53.64C257.254 53.64 256.58 53.8133 255.98 54.16C255.394 54.4933 254.927 54.9733 254.58 55.6C254.247 56.2267 254.08 56.94 254.08 57.74C254.08 58.54 254.247 59.2533 254.58 59.88C254.927 60.5067 255.394 60.9933 255.98 61.34C256.58 61.6733 257.254 61.84 258 61.84ZM279.614 52.48V61.72C279.614 63.5067 279.174 64.8267 278.294 65.68C277.427 66.5467 276.114 66.98 274.354 66.98C273.38 66.98 272.454 66.8333 271.574 66.54C270.707 66.26 270 65.8667 269.454 65.36L270.174 64.28C270.68 64.7333 271.294 65.0867 272.014 65.34C272.747 65.5933 273.514 65.72 274.314 65.72C275.647 65.72 276.627 65.4067 277.254 64.78C277.88 64.1667 278.194 63.2067 278.194 61.9V60.56C277.754 61.2267 277.174 61.7333 276.454 62.08C275.747 62.4267 274.96 62.6 274.094 62.6C273.107 62.6 272.207 62.3867 271.394 61.96C270.594 61.52 269.96 60.9133 269.494 60.14C269.04 59.3533 268.814 58.4667 268.814 57.48C268.814 56.4933 269.04 55.6133 269.494 54.84C269.96 54.0667 270.594 53.4667 271.394 53.04C272.194 52.6133 273.094 52.4 274.094 52.4C274.987 52.4 275.794 52.58 276.514 52.94C277.234 53.3 277.814 53.82 278.254 54.5V52.48H279.614ZM274.234 61.34C274.994 61.34 275.68 61.18 276.294 60.86C276.907 60.5267 277.38 60.0667 277.714 59.48C278.06 58.8933 278.234 58.2267 278.234 57.48C278.234 56.7333 278.06 56.0733 277.714 55.5C277.38 54.9133 276.907 54.46 276.294 54.14C275.694 53.8067 275.007 53.64 274.234 53.64C273.474 53.64 272.787 53.8 272.174 54.12C271.574 54.44 271.1 54.8933 270.754 55.48C270.42 56.0667 270.254 56.7333 270.254 57.48C270.254 58.2267 270.42 58.8933 270.754 59.48C271.1 60.0667 271.574 60.5267 272.174 60.86C272.787 61.18 273.474 61.34 274.234 61.34ZM287.085 63.1C286.071 63.1 285.158 62.8733 284.345 62.42C283.531 61.9533 282.891 61.3133 282.425 60.5C281.958 59.6867 281.725 58.7667 281.725 57.74C281.725 56.7133 281.958 55.7933 282.425 54.98C282.891 54.1667 283.531 53.5333 284.345 53.08C285.158 52.6267 286.071 52.4 287.085 52.4C288.098 52.4 289.011 52.6267 289.825 53.08C290.638 53.5333 291.271 54.1667 291.725 54.98C292.191 55.7933 292.425 56.7133 292.425 57.74C292.425 58.7667 292.191 59.6867 291.725 60.5C291.271 61.3133 290.638 61.9533 289.825 62.42C289.011 62.8733 288.098 63.1 287.085 63.1ZM287.085 61.84C287.831 61.84 288.498 61.6733 289.085 61.34C289.685 60.9933 290.151 60.5067 290.485 59.88C290.818 59.2533 290.985 58.54 290.985 57.74C290.985 56.94 290.818 56.2267 290.485 55.6C290.151 54.9733 289.685 54.4933 289.085 54.16C288.498 53.8133 287.831 53.64 287.085 53.64C286.338 53.64 285.665 53.8133 285.065 54.16C284.478 54.4933 284.011 54.9733 283.665 55.6C283.331 56.2267 283.165 56.94 283.165 57.74C283.165 58.54 283.331 59.2533 283.665 59.88C284.011 60.5067 284.478 60.9933 285.065 61.34C285.665 61.6733 286.338 61.84 287.085 61.84ZM294.391 60.92C294.697 60.92 294.951 61.0267 295.151 61.24C295.351 61.44 295.451 61.6933 295.451 62C295.451 62.16 295.424 62.3333 295.371 62.52C295.331 62.7067 295.264 62.92 295.171 63.16L294.331 65.92H293.371L294.051 63.02C293.837 62.9533 293.664 62.8333 293.531 62.66C293.397 62.4733 293.331 62.2533 293.331 62C293.331 61.6933 293.431 61.44 293.631 61.24C293.831 61.0267 294.084 60.92 294.391 60.92ZM12.18 85.72V87H2.28V73H11.88V74.28H3.76V79.26H11V80.52H3.76V85.72H12.18ZM23.1841 76.48L18.5041 87H17.0441L12.3841 76.48H13.8641L17.8041 85.44L21.7841 76.48H23.1841ZM33.2509 82.18H24.4509C24.5309 83.2733 24.9509 84.16 25.7109 84.84C26.4709 85.5067 27.4309 85.84 28.5909 85.84C29.2443 85.84 29.8443 85.7267 30.3909 85.5C30.9376 85.26 31.4109 84.9133 31.8109 84.46L32.6109 85.38C32.1443 85.94 31.5576 86.3667 30.8509 86.66C30.1576 86.9533 29.3909 87.1 28.5509 87.1C27.4709 87.1 26.5109 86.8733 25.6709 86.42C24.8443 85.9533 24.1976 85.3133 23.7309 84.5C23.2643 83.6867 23.0309 82.7667 23.0309 81.74C23.0309 80.7133 23.2509 79.7933 23.6909 78.98C24.1443 78.1667 24.7576 77.5333 25.5309 77.08C26.3176 76.6267 27.1976 76.4 28.1709 76.4C29.1443 76.4 30.0176 76.6267 30.7909 77.08C31.5643 77.5333 32.1709 78.1667 32.6109 78.98C33.0509 79.78 33.2709 80.7 33.2709 81.74L33.2509 82.18ZM28.1709 77.62C27.1576 77.62 26.3043 77.9467 25.6109 78.6C24.9309 79.24 24.5443 80.08 24.4509 81.12H31.9109C31.8176 80.08 31.4243 79.24 30.7309 78.6C30.0509 77.9467 29.1976 77.62 28.1709 77.62ZM36.7212 78.54C37.0546 77.8333 37.5479 77.3 38.2012 76.94C38.8679 76.58 39.6879 76.4 40.6612 76.4V77.78L40.3212 77.76C39.2146 77.76 38.3479 78.1 37.7212 78.78C37.0946 79.46 36.7812 80.4133 36.7812 81.64V87H35.3612V76.48H36.7212V78.54ZM51.7216 76.48L46.4616 88.26C46.0349 89.2467 45.5416 89.9467 44.9816 90.36C44.4216 90.7733 43.7482 90.98 42.9616 90.98C42.4549 90.98 41.9816 90.9 41.5416 90.74C41.1016 90.58 40.7216 90.34 40.4016 90.02L41.0616 88.96C41.5949 89.4933 42.2349 89.76 42.9816 89.76C43.4616 89.76 43.8682 89.6267 44.2016 89.36C44.5482 89.0933 44.8682 88.64 45.1616 88L45.6216 86.98L40.9216 76.48H42.4016L46.3616 85.42L50.3216 76.48H51.7216ZM72.1958 73V87H70.7758V75.8L65.2758 85.22H64.5758L59.0758 75.86V87H57.6558V73H58.8758L64.9558 83.38L70.9758 73H72.1958ZM79.9573 87.1C78.944 87.1 78.0307 86.8733 77.2173 86.42C76.404 85.9533 75.764 85.3133 75.2973 84.5C74.8307 83.6867 74.5973 82.7667 74.5973 81.74C74.5973 80.7133 74.8307 79.7933 75.2973 78.98C75.764 78.1667 76.404 77.5333 77.2173 77.08C78.0307 76.6267 78.944 76.4 79.9573 76.4C80.9707 76.4 81.884 76.6267 82.6973 77.08C83.5107 77.5333 84.144 78.1667 84.5973 78.98C85.064 79.7933 85.2973 80.7133 85.2973 81.74C85.2973 82.7667 85.064 83.6867 84.5973 84.5C84.144 85.3133 83.5107 85.9533 82.6973 86.42C81.884 86.8733 80.9707 87.1 79.9573 87.1ZM79.9573 85.84C80.704 85.84 81.3707 85.6733 81.9573 85.34C82.5573 84.9933 83.024 84.5067 83.3573 83.88C83.6907 83.2533 83.8573 82.54 83.8573 81.74C83.8573 80.94 83.6907 80.2267 83.3573 79.6C83.024 78.9733 82.5573 78.4933 81.9573 78.16C81.3707 77.8133 80.704 77.64 79.9573 77.64C79.2107 77.64 78.5373 77.8133 77.9373 78.16C77.3507 78.4933 76.884 78.9733 76.5373 79.6C76.204 80.2267 76.0373 80.94 76.0373 81.74C76.0373 82.54 76.204 83.2533 76.5373 83.88C76.884 84.5067 77.3507 84.9933 77.9373 85.34C78.5373 85.6733 79.2107 85.84 79.9573 85.84ZM100.516 76.4C101.836 76.4 102.87 76.78 103.616 77.54C104.376 78.3 104.756 79.42 104.756 80.9V87H103.336V81.04C103.336 79.9467 103.07 79.1133 102.536 78.54C102.016 77.9667 101.276 77.68 100.316 77.68C99.2231 77.68 98.3631 78.02 97.7364 78.7C97.1097 79.3667 96.7964 80.2933 96.7964 81.48V87H95.3764V81.04C95.3764 79.9467 95.1097 79.1133 94.5764 78.54C94.0564 77.9667 93.3097 77.68 92.3364 77.68C91.2564 77.68 90.3964 78.02 89.7564 78.7C89.1297 79.3667 88.8164 80.2933 88.8164 81.48V87H87.3964V76.48H88.7564V78.4C89.1297 77.76 89.6497 77.2667 90.3164 76.92C90.9831 76.5733 91.7497 76.4 92.6164 76.4C93.4964 76.4 94.2564 76.5867 94.8964 76.96C95.5497 77.3333 96.0364 77.8867 96.3564 78.62C96.7431 77.9267 97.2964 77.3867 98.0164 77C98.7497 76.6 99.5831 76.4 100.516 76.4ZM117.006 82.18H108.206C108.286 83.2733 108.706 84.16 109.466 84.84C110.226 85.5067 111.186 85.84 112.346 85.84C113 85.84 113.6 85.7267 114.146 85.5C114.693 85.26 115.166 84.9133 115.566 84.46L116.366 85.38C115.9 85.94 115.313 86.3667 114.606 86.66C113.913 86.9533 113.146 87.1 112.306 87.1C111.226 87.1 110.266 86.8733 109.426 86.42C108.6 85.9533 107.953 85.3133 107.486 84.5C107.02 83.6867 106.786 82.7667 106.786 81.74C106.786 80.7133 107.006 79.7933 107.446 78.98C107.9 78.1667 108.513 77.5333 109.286 77.08C110.073 76.6267 110.953 76.4 111.926 76.4C112.9 76.4 113.773 76.6267 114.546 77.08C115.32 77.5333 115.926 78.1667 116.366 78.98C116.806 79.78 117.026 80.7 117.026 81.74L117.006 82.18ZM111.926 77.62C110.913 77.62 110.06 77.9467 109.366 78.6C108.686 79.24 108.3 80.08 108.206 81.12H115.666C115.573 80.08 115.18 79.24 114.486 78.6C113.806 77.9467 112.953 77.62 111.926 77.62ZM124.477 76.4C125.797 76.4 126.843 76.7867 127.617 77.56C128.403 78.32 128.797 79.4333 128.797 80.9V87H127.377V81.04C127.377 79.9467 127.103 79.1133 126.557 78.54C126.01 77.9667 125.23 77.68 124.217 77.68C123.083 77.68 122.183 78.02 121.517 78.7C120.863 79.3667 120.537 80.2933 120.537 81.48V87H119.117V76.48H120.477V78.42C120.863 77.78 121.397 77.2867 122.077 76.94C122.77 76.58 123.57 76.4 124.477 76.4ZM137.392 86.36C137.125 86.6 136.792 86.7867 136.392 86.92C136.005 87.04 135.599 87.1 135.172 87.1C134.185 87.1 133.425 86.8333 132.892 86.3C132.359 85.7667 132.092 85.0133 132.092 84.04V77.68H130.212V76.48H132.092V74.18H133.512V76.48H136.712V77.68H133.512V83.96C133.512 84.5867 133.665 85.0667 133.972 85.4C134.292 85.72 134.745 85.88 135.332 85.88C135.625 85.88 135.905 85.8333 136.172 85.74C136.452 85.6467 136.692 85.5133 136.892 85.34L137.392 86.36ZM143.611 76.48H145.031V87H143.611V76.48ZM144.331 74.18C144.038 74.18 143.791 74.08 143.591 73.88C143.391 73.68 143.291 73.44 143.291 73.16C143.291 72.8933 143.391 72.66 143.591 72.46C143.791 72.26 144.038 72.16 144.331 72.16C144.625 72.16 144.871 72.26 145.071 72.46C145.271 72.6467 145.371 72.8733 145.371 73.14C145.371 73.4333 145.271 73.68 145.071 73.88C144.871 74.08 144.625 74.18 144.331 74.18ZM151.002 87.1C150.149 87.1 149.329 86.98 148.542 86.74C147.769 86.4867 147.162 86.1733 146.722 85.8L147.362 84.68C147.802 85.0267 148.356 85.3133 149.022 85.54C149.689 85.7533 150.382 85.86 151.102 85.86C152.062 85.86 152.769 85.7133 153.222 85.42C153.689 85.1133 153.922 84.6867 153.922 84.14C153.922 83.7533 153.796 83.4533 153.542 83.24C153.289 83.0133 152.969 82.8467 152.582 82.74C152.196 82.62 151.682 82.5067 151.042 82.4C150.189 82.24 149.502 82.08 148.982 81.92C148.462 81.7467 148.016 81.46 147.642 81.06C147.282 80.66 147.102 80.1067 147.102 79.4C147.102 78.52 147.469 77.8 148.202 77.24C148.936 76.68 149.956 76.4 151.262 76.4C151.942 76.4 152.622 76.4933 153.302 76.68C153.982 76.8533 154.542 77.0867 154.982 77.38L154.362 78.52C153.496 77.92 152.462 77.62 151.262 77.62C150.356 77.62 149.669 77.78 149.202 78.1C148.749 78.42 148.522 78.84 148.522 79.36C148.522 79.76 148.649 80.08 148.902 80.32C149.169 80.56 149.496 80.74 149.882 80.86C150.269 80.9667 150.802 81.08 151.482 81.2C152.322 81.36 152.996 81.52 153.502 81.68C154.009 81.84 154.442 82.1133 154.802 82.5C155.162 82.8867 155.342 83.42 155.342 84.1C155.342 85.02 154.956 85.7533 154.182 86.3C153.422 86.8333 152.362 87.1 151.002 87.1ZM177.042 76.48L173.062 87H171.722L168.402 78.38L165.082 87H163.742L159.782 76.48H161.142L164.442 85.42L167.822 76.48H169.042L172.402 85.42L175.742 76.48H177.042ZM182.387 87.1C181.374 87.1 180.46 86.8733 179.647 86.42C178.834 85.9533 178.194 85.3133 177.727 84.5C177.26 83.6867 177.027 82.7667 177.027 81.74C177.027 80.7133 177.26 79.7933 177.727 78.98C178.194 78.1667 178.834 77.5333 179.647 77.08C180.46 76.6267 181.374 76.4 182.387 76.4C183.4 76.4 184.314 76.6267 185.127 77.08C185.94 77.5333 186.574 78.1667 187.027 78.98C187.494 79.7933 187.727 80.7133 187.727 81.74C187.727 82.7667 187.494 83.6867 187.027 84.5C186.574 85.3133 185.94 85.9533 185.127 86.42C184.314 86.8733 183.4 87.1 182.387 87.1ZM182.387 85.84C183.134 85.84 183.8 85.6733 184.387 85.34C184.987 84.9933 185.454 84.5067 185.787 83.88C186.12 83.2533 186.287 82.54 186.287 81.74C186.287 80.94 186.12 80.2267 185.787 79.6C185.454 78.9733 184.987 78.4933 184.387 78.16C183.8 77.8133 183.134 77.64 182.387 77.64C181.64 77.64 180.967 77.8133 180.367 78.16C179.78 78.4933 179.314 78.9733 178.967 79.6C178.634 80.2267 178.467 80.94 178.467 81.74C178.467 82.54 178.634 83.2533 178.967 83.88C179.314 84.5067 179.78 84.9933 180.367 85.34C180.967 85.6733 181.64 85.84 182.387 85.84ZM191.186 78.54C191.519 77.8333 192.013 77.3 192.666 76.94C193.333 76.58 194.153 76.4 195.126 76.4V77.78L194.786 77.76C193.679 77.76 192.813 78.1 192.186 78.78C191.559 79.46 191.246 80.4133 191.246 81.64V87H189.826V76.48H191.186V78.54ZM202.886 86.36C202.62 86.6 202.286 86.7867 201.886 86.92C201.5 87.04 201.093 87.1 200.666 87.1C199.68 87.1 198.92 86.8333 198.386 86.3C197.853 85.7667 197.586 85.0133 197.586 84.04V77.68H195.706V76.48H197.586V74.18H199.006V76.48H202.206V77.68H199.006V83.96C199.006 84.5867 199.16 85.0667 199.466 85.4C199.786 85.72 200.24 85.88 200.826 85.88C201.12 85.88 201.4 85.8333 201.666 85.74C201.946 85.6467 202.186 85.5133 202.386 85.34L202.886 86.36ZM210.031 76.4C211.351 76.4 212.398 76.7867 213.171 77.56C213.958 78.32 214.351 79.4333 214.351 80.9V87H212.931V81.04C212.931 79.9467 212.658 79.1133 212.111 78.54C211.565 77.9667 210.785 77.68 209.771 77.68C208.638 77.68 207.738 78.02 207.071 78.7C206.418 79.3667 206.091 80.2933 206.091 81.48V87H204.671V72.16H206.091V78.32C206.478 77.7067 207.011 77.2333 207.691 76.9C208.371 76.5667 209.151 76.4 210.031 76.4ZM225.521 76.4C226.894 76.4 227.948 76.7467 228.681 77.44C229.414 78.12 229.781 79.1333 229.781 80.48V87H228.421V85.36C228.101 85.9067 227.628 86.3333 227.001 86.64C226.388 86.9467 225.654 87.1 224.801 87.1C223.628 87.1 222.694 86.82 222.001 86.26C221.308 85.7 220.961 84.96 220.961 84.04C220.961 83.1467 221.281 82.4267 221.921 81.88C222.574 81.3333 223.608 81.06 225.021 81.06H228.361V80.42C228.361 79.5133 228.108 78.8267 227.601 78.36C227.094 77.88 226.354 77.64 225.381 77.64C224.714 77.64 224.074 77.7533 223.461 77.98C222.848 78.1933 222.321 78.4933 221.881 78.88L221.241 77.82C221.774 77.3667 222.414 77.02 223.161 76.78C223.908 76.5267 224.694 76.4 225.521 76.4ZM225.021 85.98C225.821 85.98 226.508 85.8 227.081 85.44C227.654 85.0667 228.081 84.5333 228.361 83.84V82.12H225.061C223.261 82.12 222.361 82.7467 222.361 84C222.361 84.6133 222.594 85.1 223.061 85.46C223.528 85.8067 224.181 85.98 225.021 85.98ZM249.692 87L249.672 78.6L245.552 85.52H244.092L239.992 78.78V87H236.952V73H239.632L244.872 81.7L250.032 73H252.692L252.732 87H249.692ZM262.034 87.24C260.58 87.24 259.267 86.9267 258.094 86.3C256.934 85.6733 256.02 84.8133 255.354 83.72C254.7 82.6133 254.374 81.3733 254.374 80C254.374 78.6267 254.7 77.3933 255.354 76.3C256.02 75.1933 256.934 74.3267 258.094 73.7C259.267 73.0733 260.58 72.76 262.034 72.76C263.487 72.76 264.794 73.0733 265.954 73.7C267.114 74.3267 268.027 75.1933 268.694 76.3C269.36 77.3933 269.694 78.6267 269.694 80C269.694 81.3733 269.36 82.6133 268.694 83.72C268.027 84.8133 267.114 85.6733 265.954 86.3C264.794 86.9267 263.487 87.24 262.034 87.24ZM262.034 84.48C262.86 84.48 263.607 84.2933 264.274 83.92C264.94 83.5333 265.46 83 265.834 82.32C266.22 81.64 266.414 80.8667 266.414 80C266.414 79.1333 266.22 78.36 265.834 77.68C265.46 77 264.94 76.4733 264.274 76.1C263.607 75.7133 262.86 75.52 262.034 75.52C261.207 75.52 260.46 75.7133 259.794 76.1C259.127 76.4733 258.6 77 258.214 77.68C257.84 78.36 257.654 79.1333 257.654 80C257.654 80.8667 257.84 81.64 258.214 82.32C258.6 83 259.127 83.5333 259.794 83.92C260.46 84.2933 261.207 84.48 262.034 84.48ZM284.069 87L284.049 78.6L279.929 85.52H278.469L274.369 78.78V87H271.329V73H274.009L279.249 81.7L284.409 73H287.069L287.109 87H284.069ZM300.47 84.4V87H289.63V73H300.21V75.6H292.85V78.64H299.35V81.16H292.85V84.4H300.47ZM315.088 73V87H312.428L305.448 78.5V87H302.248V73H304.928L311.888 81.5V73H315.088ZM320.501 75.64H316.021V73H328.221V75.64H323.741V87H320.501V75.64ZM329.46 87.16C328.913 87.16 328.453 86.9733 328.08 86.6C327.707 86.2267 327.52 85.76 327.52 85.2C327.52 84.6267 327.707 84.1667 328.08 83.82C328.453 83.46 328.913 83.28 329.46 83.28C330.007 83.28 330.467 83.46 330.84 83.82C331.213 84.1667 331.4 84.6267 331.4 85.2C331.4 85.76 331.213 86.2267 330.84 86.6C330.467 86.9733 330.007 87.16 329.46 87.16Z" fill="#A38373"/>
</svg>
