<svg width="659" height="35" viewBox="0 0 659 35" fill="none" xmlns="http://www.w3.org/2000/svg">
<path d="M9.45474 27.216C7.58274 27.216 5.78274 26.916 4.05474 26.316C2.35074 25.716 1.03074 24.924 0.0947406 23.94L1.13874 21.888C2.05074 22.8 3.26274 23.544 4.77474 24.12C6.28674 24.672 7.84674 24.948 9.45474 24.948C11.7107 24.948 13.4027 24.54 14.5307 23.724C15.6587 22.884 16.2227 21.804 16.2227 20.484C16.2227 19.476 15.9107 18.672 15.2867 18.072C14.6867 17.472 13.9427 17.016 13.0547 16.704C12.1667 16.368 10.9307 16.008 9.34674 15.624C7.45074 15.144 5.93874 14.688 4.81074 14.256C3.68274 13.8 2.71074 13.116 1.89474 12.204C1.10274 11.292 0.706741 10.056 0.706741 8.496C0.706741 7.224 1.04274 6.072 1.71474 5.04C2.38674 3.984 3.41874 3.144 4.81074 2.52C6.20274 1.896 7.93074 1.584 9.99474 1.584C11.4347 1.584 12.8387 1.788 14.2067 2.196C15.5987 2.58 16.7987 3.12 17.8067 3.816L16.9067 5.94C15.8507 5.244 14.7227 4.728 13.5227 4.392C12.3227 4.032 11.1467 3.852 9.99474 3.852C7.78674 3.852 6.11874 4.284 4.99074 5.148C3.88674 5.988 3.33474 7.08 3.33474 8.424C3.33474 9.432 3.63474 10.248 4.23474 10.872C4.85874 11.472 5.62674 11.94 6.53874 12.276C7.47474 12.588 8.72274 12.936 10.2827 13.32C12.1307 13.776 13.6187 14.232 14.7467 14.688C15.8987 15.12 16.8707 15.792 17.6627 16.704C18.4547 17.592 18.8507 18.804 18.8507 20.34C18.8507 21.612 18.5027 22.776 17.8067 23.832C17.1347 24.864 16.0907 25.692 14.6747 26.316C13.2587 26.916 11.5187 27.216 9.45474 27.216ZM30.8832 7.92C33.2592 7.92 35.1432 8.616 36.5352 10.008C37.9512 11.376 38.6592 13.38 38.6592 16.02V27H36.1032V16.272C36.1032 14.304 35.6112 12.804 34.6272 11.772C33.6432 10.74 32.2392 10.224 30.4152 10.224C28.3752 10.224 26.7552 10.836 25.5552 12.06C24.3792 13.26 23.7912 14.928 23.7912 17.064V27H21.2352V0.287998H23.7912V11.376C24.4872 10.272 25.4472 9.42 26.6712 8.82C27.8952 8.22 29.2992 7.92 30.8832 7.92ZM49.3425 7.92C51.8145 7.92 53.7105 8.544 55.0305 9.792C56.3505 11.016 57.0105 12.84 57.0105 15.264V27H54.5625V24.048C53.9865 25.032 53.1345 25.8 52.0065 26.352C50.9025 26.904 49.5825 27.18 48.0465 27.18C45.9345 27.18 44.2545 26.676 43.0065 25.668C41.7585 24.66 41.1345 23.328 41.1345 21.672C41.1345 20.064 41.7105 18.768 42.8625 17.784C44.0385 16.8 45.8985 16.308 48.4425 16.308H54.4545V15.156C54.4545 13.524 53.9985 12.288 53.0865 11.448C52.1745 10.584 50.8425 10.152 49.0905 10.152C47.8905 10.152 46.7385 10.356 45.6345 10.764C44.5305 11.148 43.5825 11.688 42.7905 12.384L41.6385 10.476C42.5985 9.66 43.7505 9.036 45.0945 8.604C46.4385 8.148 47.8545 7.92 49.3425 7.92ZM48.4425 25.164C49.8825 25.164 51.1185 24.84 52.1505 24.192C53.1825 23.52 53.9505 22.56 54.4545 21.312V18.216H48.5145C45.2745 18.216 43.6545 19.344 43.6545 21.6C43.6545 22.704 44.0745 23.58 44.9145 24.228C45.7545 24.852 46.9305 25.164 48.4425 25.164ZM63.5208 11.772C64.1208 10.5 65.0088 9.54 66.1848 8.892C67.3848 8.244 68.8608 7.92 70.6128 7.92V10.404L70.0008 10.368C68.0088 10.368 66.4488 10.98 65.3208 12.204C64.1928 13.428 63.6288 15.144 63.6288 17.352V27H61.0728V8.064H63.5208V11.772ZM88.673 18.324H72.833C72.977 20.292 73.733 21.888 75.101 23.112C76.469 24.312 78.197 24.912 80.285 24.912C81.461 24.912 82.541 24.708 83.525 24.3C84.509 23.868 85.361 23.244 86.081 22.428L87.521 24.084C86.681 25.092 85.625 25.86 84.353 26.388C83.105 26.916 81.725 27.18 80.213 27.18C78.269 27.18 76.541 26.772 75.029 25.956C73.541 25.116 72.377 23.964 71.537 22.5C70.697 21.036 70.277 19.38 70.277 17.532C70.277 15.684 70.673 14.028 71.465 12.564C72.281 11.1 73.385 9.96 74.777 9.144C76.193 8.328 77.777 7.92 79.529 7.92C81.281 7.92 82.853 8.328 84.245 9.144C85.637 9.96 86.729 11.1 87.521 12.564C88.313 14.004 88.709 15.66 88.709 17.532L88.673 18.324ZM79.529 10.116C77.705 10.116 76.169 10.704 74.921 11.88C73.697 13.032 73.001 14.544 72.833 16.416H86.261C86.093 14.544 85.385 13.032 84.137 11.88C82.913 10.704 81.377 10.116 79.529 10.116ZM104.197 7.92C106.669 7.92 108.565 8.544 109.885 9.792C111.205 11.016 111.865 12.84 111.865 15.264V27H109.417V24.048C108.841 25.032 107.989 25.8 106.861 26.352C105.757 26.904 104.437 27.18 102.901 27.18C100.789 27.18 99.1095 26.676 97.8615 25.668C96.6135 24.66 95.9895 23.328 95.9895 21.672C95.9895 20.064 96.5655 18.768 97.7175 17.784C98.8935 16.8 100.753 16.308 103.297 16.308H109.309V15.156C109.309 13.524 108.853 12.288 107.941 11.448C107.029 10.584 105.697 10.152 103.945 10.152C102.745 10.152 101.593 10.356 100.489 10.764C99.3855 11.148 98.4375 11.688 97.6455 12.384L96.4935 10.476C97.4535 9.66 98.6055 9.036 99.9495 8.604C101.293 8.148 102.709 7.92 104.197 7.92ZM103.297 25.164C104.737 25.164 105.973 24.84 107.005 24.192C108.037 23.52 108.805 22.56 109.309 21.312V18.216H103.369C100.129 18.216 98.5095 19.344 98.5095 21.6C98.5095 22.704 98.9295 23.58 99.7695 24.228C100.609 24.852 101.785 25.164 103.297 25.164ZM144.826 27L144.79 11.88L137.374 24.336H134.746L127.366 12.204V27H121.894V1.8H126.718L136.15 17.46L145.438 1.8H150.226L150.298 27H144.826ZM165.601 27.432C162.985 27.432 160.621 26.868 158.509 25.74C156.421 24.612 154.777 23.064 153.577 21.096C152.401 19.104 151.813 16.872 151.813 14.4C151.813 11.928 152.401 9.708 153.577 7.74C154.777 5.748 156.421 4.188 158.509 3.06C160.621 1.932 162.985 1.368 165.601 1.368C168.217 1.368 170.569 1.932 172.657 3.06C174.745 4.188 176.389 5.748 177.589 7.74C178.789 9.708 179.389 11.928 179.389 14.4C179.389 16.872 178.789 19.104 177.589 21.096C176.389 23.064 174.745 24.612 172.657 25.74C170.569 26.868 168.217 27.432 165.601 27.432ZM165.601 22.464C167.089 22.464 168.433 22.128 169.633 21.456C170.833 20.76 171.769 19.8 172.441 18.576C173.137 17.352 173.485 15.96 173.485 14.4C173.485 12.84 173.137 11.448 172.441 10.224C171.769 9 170.833 8.052 169.633 7.38C168.433 6.684 167.089 6.336 165.601 6.336C164.113 6.336 162.769 6.684 161.569 7.38C160.369 8.052 159.421 9 158.725 10.224C158.053 11.448 157.717 12.84 157.717 14.4C157.717 15.96 158.053 17.352 158.725 18.576C159.421 19.8 160.369 20.76 161.569 21.456C162.769 22.128 164.113 22.464 165.601 22.464ZM203.824 27L203.788 11.88L196.372 24.336H193.744L186.364 12.204V27H180.892V1.8H185.716L195.148 17.46L204.436 1.8H209.224L209.296 27H203.824ZM231.906 22.32V27H212.394V1.8H231.438V6.48H218.19V11.952H229.89V16.488H218.19V22.32H231.906ZM256.779 1.8V27H251.991L239.427 11.7V27H233.667V1.8H238.491L251.019 17.1V1.8H256.779ZM265.081 6.552H257.017V1.8H278.977V6.552H270.913V27H265.081V6.552ZM296.325 25.848C295.845 26.28 295.245 26.616 294.525 26.856C293.829 27.072 293.097 27.18 292.329 27.18C290.553 27.18 289.185 26.7 288.225 25.74C287.265 24.78 286.785 23.424 286.785 21.672V10.224H283.401V8.064H286.785V3.924H289.341V8.064H295.101V10.224H289.341V21.528C289.341 22.656 289.617 23.52 290.169 24.12C290.745 24.696 291.561 24.984 292.617 24.984C293.145 24.984 293.649 24.9 294.129 24.732C294.633 24.564 295.065 24.324 295.425 24.012L296.325 25.848ZM307.746 7.92C310.122 7.92 312.006 8.616 313.398 10.008C314.814 11.376 315.522 13.38 315.522 16.02V27H312.966V16.272C312.966 14.304 312.474 12.804 311.49 11.772C310.506 10.74 309.102 10.224 307.278 10.224C305.238 10.224 303.618 10.836 302.418 12.06C301.242 13.26 300.654 14.928 300.654 17.064V27H298.098V0.287998H300.654V11.376C301.35 10.272 302.31 9.42 303.534 8.82C304.758 8.22 306.162 7.92 307.746 7.92ZM326.205 7.92C328.677 7.92 330.573 8.544 331.893 9.792C333.213 11.016 333.873 12.84 333.873 15.264V27H331.425V24.048C330.849 25.032 329.997 25.8 328.869 26.352C327.765 26.904 326.445 27.18 324.909 27.18C322.797 27.18 321.117 26.676 319.869 25.668C318.621 24.66 317.997 23.328 317.997 21.672C317.997 20.064 318.573 18.768 319.725 17.784C320.901 16.8 322.761 16.308 325.305 16.308H331.317V15.156C331.317 13.524 330.861 12.288 329.949 11.448C329.037 10.584 327.705 10.152 325.953 10.152C324.753 10.152 323.601 10.356 322.497 10.764C321.393 11.148 320.445 11.688 319.653 12.384L318.501 10.476C319.461 9.66 320.613 9.036 321.957 8.604C323.301 8.148 324.717 7.92 326.205 7.92ZM325.305 25.164C326.745 25.164 327.981 24.84 329.013 24.192C330.045 23.52 330.813 22.56 331.317 21.312V18.216H325.377C322.137 18.216 320.517 19.344 320.517 21.6C320.517 22.704 320.937 23.58 321.777 24.228C322.617 24.852 323.793 25.164 325.305 25.164ZM347.907 25.848C347.427 26.28 346.827 26.616 346.107 26.856C345.411 27.072 344.679 27.18 343.911 27.18C342.135 27.18 340.767 26.7 339.807 25.74C338.847 24.78 338.367 23.424 338.367 21.672V10.224H334.983V8.064H338.367V3.924H340.923V8.064H346.683V10.224H340.923V21.528C340.923 22.656 341.199 23.52 341.751 24.12C342.327 24.696 343.143 24.984 344.199 24.984C344.727 24.984 345.231 24.9 345.711 24.732C346.215 24.564 346.647 24.324 347.007 24.012L347.907 25.848ZM384.014 8.064L376.85 27H374.438L368.462 11.484L362.486 27H360.074L352.946 8.064H355.394L361.334 24.156L367.418 8.064H369.614L375.662 24.156L381.674 8.064H384.014ZM384.983 8.064H387.539V27H384.983V8.064ZM386.279 3.924C385.751 3.924 385.307 3.744 384.947 3.384C384.587 3.024 384.407 2.592 384.407 2.088C384.407 1.608 384.587 1.188 384.947 0.827998C385.307 0.467998 385.751 0.287998 386.279 0.287998C386.807 0.287998 387.251 0.467998 387.611 0.827998C387.971 1.164 388.151 1.572 388.151 2.052C388.151 2.58 387.971 3.024 387.611 3.384C387.251 3.744 386.807 3.924 386.279 3.924ZM391.771 0.287998H394.327V27H391.771V0.287998ZM398.559 0.287998H401.115V27H398.559V0.287998ZM421.537 7.92C423.913 7.92 425.797 8.616 427.189 10.008C428.605 11.376 429.313 13.38 429.313 16.02V27H426.757V16.272C426.757 14.304 426.265 12.804 425.281 11.772C424.297 10.74 422.893 10.224 421.069 10.224C419.029 10.224 417.409 10.836 416.209 12.06C415.033 13.26 414.445 14.928 414.445 17.064V27H411.889V8.064H414.337V11.556C415.033 10.404 415.993 9.516 417.217 8.892C418.465 8.244 419.905 7.92 421.537 7.92ZM441.182 27.18C439.358 27.18 437.714 26.772 436.25 25.956C434.786 25.116 433.634 23.964 432.794 22.5C431.954 21.036 431.534 19.38 431.534 17.532C431.534 15.684 431.954 14.028 432.794 12.564C433.634 11.1 434.786 9.96 436.25 9.144C437.714 8.328 439.358 7.92 441.182 7.92C443.006 7.92 444.65 8.328 446.114 9.144C447.578 9.96 448.718 11.1 449.534 12.564C450.374 14.028 450.794 15.684 450.794 17.532C450.794 19.38 450.374 21.036 449.534 22.5C448.718 23.964 447.578 25.116 446.114 25.956C444.65 26.772 443.006 27.18 441.182 27.18ZM441.182 24.912C442.526 24.912 443.726 24.612 444.782 24.012C445.862 23.388 446.702 22.512 447.302 21.384C447.902 20.256 448.202 18.972 448.202 17.532C448.202 16.092 447.902 14.808 447.302 13.68C446.702 12.552 445.862 11.688 444.782 11.088C443.726 10.464 442.526 10.152 441.182 10.152C439.838 10.152 438.626 10.464 437.546 11.088C436.49 11.688 435.65 12.552 435.026 13.68C434.426 14.808 434.126 16.092 434.126 17.532C434.126 18.972 434.426 20.256 435.026 21.384C435.65 22.512 436.49 23.388 437.546 24.012C438.626 24.612 439.838 24.912 441.182 24.912ZM463.105 25.848C462.625 26.28 462.025 26.616 461.305 26.856C460.609 27.072 459.877 27.18 459.109 27.18C457.333 27.18 455.965 26.7 455.005 25.74C454.045 24.78 453.565 23.424 453.565 21.672V10.224H450.181V8.064H453.565V3.924H456.121V8.064H461.881V10.224H456.121V21.528C456.121 22.656 456.397 23.52 456.949 24.12C457.525 24.696 458.341 24.984 459.397 24.984C459.925 24.984 460.429 24.9 460.909 24.732C461.413 24.564 461.845 24.324 462.205 24.012L463.105 25.848ZM481.175 7.92C482.951 7.92 484.559 8.328 485.999 9.144C487.439 9.936 488.567 11.064 489.383 12.528C490.199 13.992 490.607 15.66 490.607 17.532C490.607 19.404 490.199 21.072 489.383 22.536C488.567 24 487.439 25.14 485.999 25.956C484.559 26.772 482.951 27.18 481.175 27.18C479.591 27.18 478.163 26.844 476.891 26.172C475.643 25.5 474.635 24.528 473.867 23.256V27H471.419V0.287998H473.975V11.664C474.767 10.44 475.775 9.516 476.999 8.892C478.247 8.244 479.639 7.92 481.175 7.92ZM480.995 24.912C482.315 24.912 483.515 24.612 484.595 24.012C485.675 23.388 486.515 22.512 487.115 21.384C487.739 20.256 488.051 18.972 488.051 17.532C488.051 16.092 487.739 14.808 487.115 13.68C486.515 12.552 485.675 11.688 484.595 11.088C483.515 10.464 482.315 10.152 480.995 10.152C479.651 10.152 478.439 10.464 477.359 11.088C476.303 11.688 475.463 12.552 474.839 13.68C474.239 14.808 473.939 16.092 473.939 17.532C473.939 18.972 474.239 20.256 474.839 21.384C475.463 22.512 476.303 23.388 477.359 24.012C478.439 24.612 479.651 24.912 480.995 24.912ZM509.426 18.324H493.586C493.73 20.292 494.486 21.888 495.854 23.112C497.222 24.312 498.95 24.912 501.038 24.912C502.214 24.912 503.294 24.708 504.278 24.3C505.262 23.868 506.114 23.244 506.834 22.428L508.274 24.084C507.434 25.092 506.378 25.86 505.106 26.388C503.858 26.916 502.478 27.18 500.966 27.18C499.022 27.18 497.294 26.772 495.782 25.956C494.294 25.116 493.13 23.964 492.29 22.5C491.45 21.036 491.03 19.38 491.03 17.532C491.03 15.684 491.426 14.028 492.218 12.564C493.034 11.1 494.138 9.96 495.53 9.144C496.946 8.328 498.53 7.92 500.282 7.92C502.034 7.92 503.606 8.328 504.998 9.144C506.39 9.96 507.482 11.1 508.274 12.564C509.066 14.004 509.462 15.66 509.462 17.532L509.426 18.324ZM500.282 10.116C498.458 10.116 496.922 10.704 495.674 11.88C494.45 13.032 493.754 14.544 493.586 16.416H507.014C506.846 14.544 506.138 13.032 504.89 11.88C503.666 10.704 502.13 10.116 500.282 10.116ZM524.59 2.268C523.486 2.268 522.646 2.568 522.07 3.168C521.518 3.768 521.242 4.656 521.242 5.832V8.064H527.074V10.224H521.314V27H518.758V10.224H515.374V8.064H518.758V5.724C518.758 3.996 519.25 2.628 520.234 1.62C521.242 0.611999 522.658 0.107999 524.482 0.107999C525.202 0.107999 525.898 0.215999 526.57 0.431999C527.242 0.623999 527.806 0.911999 528.262 1.296L527.398 3.204C526.654 2.58 525.718 2.268 524.59 2.268ZM535.069 27.18C533.245 27.18 531.601 26.772 530.137 25.956C528.673 25.116 527.521 23.964 526.681 22.5C525.841 21.036 525.421 19.38 525.421 17.532C525.421 15.684 525.841 14.028 526.681 12.564C527.521 11.1 528.673 9.96 530.137 9.144C531.601 8.328 533.245 7.92 535.069 7.92C536.893 7.92 538.537 8.328 540.001 9.144C541.465 9.96 542.605 11.1 543.421 12.564C544.261 14.028 544.681 15.684 544.681 17.532C544.681 19.38 544.261 21.036 543.421 22.5C542.605 23.964 541.465 25.116 540.001 25.956C538.537 26.772 536.893 27.18 535.069 27.18ZM535.069 24.912C536.413 24.912 537.613 24.612 538.669 24.012C539.749 23.388 540.589 22.512 541.189 21.384C541.789 20.256 542.089 18.972 542.089 17.532C542.089 16.092 541.789 14.808 541.189 13.68C540.589 12.552 539.749 11.688 538.669 11.088C537.613 10.464 536.413 10.152 535.069 10.152C533.725 10.152 532.513 10.464 531.433 11.088C530.377 11.688 529.537 12.552 528.913 13.68C528.313 14.808 528.013 16.092 528.013 17.532C528.013 18.972 528.313 20.256 528.913 21.384C529.537 22.512 530.377 23.388 531.433 24.012C532.513 24.612 533.725 24.912 535.069 24.912ZM549.467 11.772C550.067 10.5 550.955 9.54 552.131 8.892C553.331 8.244 554.807 7.92 556.559 7.92V10.404L555.947 10.368C553.955 10.368 552.395 10.98 551.267 12.204C550.139 13.428 549.575 15.144 549.575 17.352V27H547.019V8.064H549.467V11.772ZM575.664 8.064V24.696C575.664 27.912 574.872 30.288 573.288 31.824C571.728 33.384 569.364 34.164 566.196 34.164C564.444 34.164 562.776 33.9 561.192 33.372C559.632 32.868 558.36 32.16 557.376 31.248L558.672 29.304C559.584 30.12 560.688 30.756 561.984 31.212C563.304 31.668 564.684 31.896 566.124 31.896C568.524 31.896 570.288 31.332 571.416 30.204C572.544 29.1 573.108 27.372 573.108 25.02V22.608C572.316 23.808 571.272 24.72 569.976 25.344C568.704 25.968 567.288 26.28 565.728 26.28C563.952 26.28 562.332 25.896 560.868 25.128C559.428 24.336 558.288 23.244 557.448 21.852C556.632 20.436 556.224 18.84 556.224 17.064C556.224 15.288 556.632 13.704 557.448 12.312C558.288 10.92 559.428 9.84 560.868 9.072C562.308 8.304 563.928 7.92 565.728 7.92C567.336 7.92 568.788 8.244 570.084 8.892C571.38 9.54 572.424 10.476 573.216 11.7V8.064H575.664ZM565.98 24.012C567.348 24.012 568.584 23.724 569.688 23.148C570.792 22.548 571.644 21.72 572.244 20.664C572.868 19.608 573.18 18.408 573.18 17.064C573.18 15.72 572.868 14.532 572.244 13.5C571.644 12.444 570.792 11.628 569.688 11.052C568.608 10.452 567.372 10.152 565.98 10.152C564.612 10.152 563.376 10.44 562.272 11.016C561.192 11.592 560.34 12.408 559.716 13.464C559.116 14.52 558.816 15.72 558.816 17.064C558.816 18.408 559.116 19.608 559.716 20.664C560.34 21.72 561.192 22.548 562.272 23.148C563.376 23.724 564.612 24.012 565.98 24.012ZM587.671 27.18C585.847 27.18 584.203 26.772 582.739 25.956C581.275 25.116 580.123 23.964 579.283 22.5C578.443 21.036 578.023 19.38 578.023 17.532C578.023 15.684 578.443 14.028 579.283 12.564C580.123 11.1 581.275 9.96 582.739 9.144C584.203 8.328 585.847 7.92 587.671 7.92C589.495 7.92 591.139 8.328 592.603 9.144C594.067 9.96 595.207 11.1 596.023 12.564C596.863 14.028 597.283 15.684 597.283 17.532C597.283 19.38 596.863 21.036 596.023 22.5C595.207 23.964 594.067 25.116 592.603 25.956C591.139 26.772 589.495 27.18 587.671 27.18ZM587.671 24.912C589.015 24.912 590.215 24.612 591.271 24.012C592.351 23.388 593.191 22.512 593.791 21.384C594.391 20.256 594.691 18.972 594.691 17.532C594.691 16.092 594.391 14.808 593.791 13.68C593.191 12.552 592.351 11.688 591.271 11.088C590.215 10.464 589.015 10.152 587.671 10.152C586.327 10.152 585.115 10.464 584.035 11.088C582.979 11.688 582.139 12.552 581.515 13.68C580.915 14.808 580.615 16.092 580.615 17.532C580.615 18.972 580.915 20.256 581.515 21.384C582.139 22.512 582.979 23.388 584.035 24.012C585.115 24.612 586.327 24.912 587.671 24.912ZM609.594 25.848C609.114 26.28 608.514 26.616 607.794 26.856C607.098 27.072 606.366 27.18 605.598 27.18C603.822 27.18 602.454 26.7 601.494 25.74C600.534 24.78 600.054 23.424 600.054 21.672V10.224H596.67V8.064H600.054V3.924H602.61V8.064H608.37V10.224H602.61V21.528C602.61 22.656 602.886 23.52 603.438 24.12C604.014 24.696 604.83 24.984 605.886 24.984C606.414 24.984 606.918 24.9 607.398 24.732C607.902 24.564 608.334 24.324 608.694 24.012L609.594 25.848ZM620.846 25.848C620.366 26.28 619.766 26.616 619.046 26.856C618.35 27.072 617.618 27.18 616.85 27.18C615.074 27.18 613.706 26.7 612.746 25.74C611.786 24.78 611.306 23.424 611.306 21.672V10.224H607.922V8.064H611.306V3.924H613.862V8.064H619.622V10.224H613.862V21.528C613.862 22.656 614.138 23.52 614.69 24.12C615.266 24.696 616.082 24.984 617.138 24.984C617.666 24.984 618.17 24.9 618.65 24.732C619.154 24.564 619.586 24.324 619.946 24.012L620.846 25.848ZM638.439 18.324H622.599C622.743 20.292 623.499 21.888 624.867 23.112C626.235 24.312 627.963 24.912 630.051 24.912C631.227 24.912 632.307 24.708 633.291 24.3C634.275 23.868 635.127 23.244 635.847 22.428L637.287 24.084C636.447 25.092 635.391 25.86 634.119 26.388C632.871 26.916 631.491 27.18 629.979 27.18C628.035 27.18 626.307 26.772 624.795 25.956C623.307 25.116 622.143 23.964 621.303 22.5C620.463 21.036 620.043 19.38 620.043 17.532C620.043 15.684 620.439 14.028 621.231 12.564C622.047 11.1 623.151 9.96 624.543 9.144C625.959 8.328 627.543 7.92 629.295 7.92C631.047 7.92 632.619 8.328 634.011 9.144C635.403 9.96 636.495 11.1 637.287 12.564C638.079 14.004 638.475 15.66 638.475 17.532L638.439 18.324ZM629.295 10.116C627.471 10.116 625.935 10.704 624.687 11.88C623.463 13.032 622.767 14.544 622.599 16.416H636.027C635.859 14.544 635.151 13.032 633.903 11.88C632.679 10.704 631.143 10.116 629.295 10.116ZM650.446 7.92C652.822 7.92 654.706 8.616 656.098 10.008C657.514 11.376 658.222 13.38 658.222 16.02V27H655.666V16.272C655.666 14.304 655.174 12.804 654.19 11.772C653.206 10.74 651.802 10.224 649.978 10.224C647.938 10.224 646.318 10.836 645.118 12.06C643.942 13.26 643.354 14.928 643.354 17.064V27H640.798V8.064H643.246V11.556C643.942 10.404 644.902 9.516 646.126 8.892C647.374 8.244 648.814 7.92 650.446 7.92Z" fill="#A38373"/>
</svg>
