<svg width="359" height="28" viewBox="0 0 359 28" fill="none" xmlns="http://www.w3.org/2000/svg">
<path d="M37.7 1.8L29.204 27H26.396L19.016 5.508L11.6 27H8.828L0.332 1.8H3.068L10.34 23.472L17.864 1.8H20.348L27.764 23.58L35.144 1.8H37.7ZM49.3398 7.92C51.7158 7.92 53.5998 8.616 54.9918 10.008C56.4078 11.376 57.1158 13.38 57.1158 16.02V27H54.5598V16.272C54.5598 14.304 54.0678 12.804 53.0838 11.772C52.0998 10.74 50.6958 10.224 48.8718 10.224C46.8318 10.224 45.2118 10.836 44.0118 12.06C42.8358 13.26 42.2478 14.928 42.2478 17.064V27H39.6918V0.287998H42.2478V11.376C42.9438 10.272 43.9038 9.42 45.1278 8.82C46.3518 8.22 47.7558 7.92 49.3398 7.92ZM68.9854 27.18C67.1614 27.18 65.5174 26.772 64.0534 25.956C62.5894 25.116 61.4374 23.964 60.5974 22.5C59.7574 21.036 59.3374 19.38 59.3374 17.532C59.3374 15.684 59.7574 14.028 60.5974 12.564C61.4374 11.1 62.5894 9.96 64.0534 9.144C65.5174 8.328 67.1614 7.92 68.9854 7.92C70.8094 7.92 72.4534 8.328 73.9174 9.144C75.3814 9.96 76.5214 11.1 77.3374 12.564C78.1774 14.028 78.5974 15.684 78.5974 17.532C78.5974 19.38 78.1774 21.036 77.3374 22.5C76.5214 23.964 75.3814 25.116 73.9174 25.956C72.4534 26.772 70.8094 27.18 68.9854 27.18ZM68.9854 24.912C70.3294 24.912 71.5294 24.612 72.5854 24.012C73.6654 23.388 74.5054 22.512 75.1054 21.384C75.7054 20.256 76.0054 18.972 76.0054 17.532C76.0054 16.092 75.7054 14.808 75.1054 13.68C74.5054 12.552 73.6654 11.688 72.5854 11.088C71.5294 10.464 70.3294 10.152 68.9854 10.152C67.6414 10.152 66.4294 10.464 65.3494 11.088C64.2934 11.688 63.4534 12.552 62.8294 13.68C62.2294 14.808 61.9294 16.092 61.9294 17.532C61.9294 18.972 62.2294 20.256 62.8294 21.384C63.4534 22.512 64.2934 23.388 65.3494 24.012C66.4294 24.612 67.6414 24.912 68.9854 24.912ZM111.094 7.92C113.47 7.92 115.33 8.604 116.674 9.972C118.042 11.34 118.726 13.356 118.726 16.02V27H116.17V16.272C116.17 14.304 115.69 12.804 114.73 11.772C113.794 10.74 112.462 10.224 110.734 10.224C108.766 10.224 107.218 10.836 106.09 12.06C104.962 13.26 104.398 14.928 104.398 17.064V27H101.842V16.272C101.842 14.304 101.362 12.804 100.402 11.772C99.4656 10.74 98.1216 10.224 96.3696 10.224C94.4256 10.224 92.8776 10.836 91.7256 12.06C90.5976 13.26 90.0336 14.928 90.0336 17.064V27H87.4776V8.064H89.9256V11.52C90.5976 10.368 91.5336 9.48 92.7336 8.856C93.9336 8.232 95.3136 7.92 96.8736 7.92C98.4576 7.92 99.8256 8.256 100.978 8.928C102.154 9.6 103.03 10.596 103.606 11.916C104.302 10.668 105.298 9.696 106.594 9C107.914 8.28 109.414 7.92 111.094 7.92ZM129.401 7.92C131.873 7.92 133.769 8.544 135.089 9.792C136.409 11.016 137.069 12.84 137.069 15.264V27H134.621V24.048C134.045 25.032 133.193 25.8 132.065 26.352C130.961 26.904 129.641 27.18 128.105 27.18C125.993 27.18 124.313 26.676 123.065 25.668C121.817 24.66 121.193 23.328 121.193 21.672C121.193 20.064 121.769 18.768 122.921 17.784C124.097 16.8 125.957 16.308 128.501 16.308H134.513V15.156C134.513 13.524 134.057 12.288 133.145 11.448C132.233 10.584 130.901 10.152 129.149 10.152C127.949 10.152 126.797 10.356 125.693 10.764C124.589 11.148 123.641 11.688 122.849 12.384L121.697 10.476C122.657 9.66 123.809 9.036 125.153 8.604C126.497 8.148 127.913 7.92 129.401 7.92ZM128.501 25.164C129.941 25.164 131.177 24.84 132.209 24.192C133.241 23.52 134.009 22.56 134.513 21.312V18.216H128.573C125.333 18.216 123.713 19.344 123.713 21.6C123.713 22.704 124.133 23.58 124.973 24.228C125.813 24.852 126.989 25.164 128.501 25.164ZM148.152 17.496L143.688 21.6V27H141.132V0.287998H143.688V18.396L154.992 8.064H158.16L150.06 15.804L158.916 27H155.784L148.152 17.496ZM175.587 18.324H159.747C159.891 20.292 160.647 21.888 162.015 23.112C163.383 24.312 165.111 24.912 167.199 24.912C168.375 24.912 169.455 24.708 170.439 24.3C171.423 23.868 172.275 23.244 172.995 22.428L174.435 24.084C173.595 25.092 172.539 25.86 171.267 26.388C170.019 26.916 168.639 27.18 167.127 27.18C165.183 27.18 163.455 26.772 161.943 25.956C160.455 25.116 159.291 23.964 158.451 22.5C157.611 21.036 157.191 19.38 157.191 17.532C157.191 15.684 157.587 14.028 158.379 12.564C159.195 11.1 160.299 9.96 161.691 9.144C163.107 8.328 164.691 7.92 166.443 7.92C168.195 7.92 169.767 8.328 171.159 9.144C172.551 9.96 173.643 11.1 174.435 12.564C175.227 14.004 175.623 15.66 175.623 17.532L175.587 18.324ZM166.443 10.116C164.619 10.116 163.083 10.704 161.835 11.88C160.611 13.032 159.915 14.544 159.747 16.416H173.175C173.007 14.544 172.299 13.032 171.051 11.88C169.827 10.704 168.291 10.116 166.443 10.116ZM206.844 27L206.808 11.88L199.392 24.336H196.764L189.384 12.204V27H183.912V1.8H188.736L198.168 17.46L207.456 1.8H212.244L212.316 27H206.844ZM227.619 27.432C225.003 27.432 222.639 26.868 220.527 25.74C218.439 24.612 216.795 23.064 215.595 21.096C214.419 19.104 213.831 16.872 213.831 14.4C213.831 11.928 214.419 9.708 215.595 7.74C216.795 5.748 218.439 4.188 220.527 3.06C222.639 1.932 225.003 1.368 227.619 1.368C230.235 1.368 232.587 1.932 234.675 3.06C236.763 4.188 238.407 5.748 239.607 7.74C240.807 9.708 241.407 11.928 241.407 14.4C241.407 16.872 240.807 19.104 239.607 21.096C238.407 23.064 236.763 24.612 234.675 25.74C232.587 26.868 230.235 27.432 227.619 27.432ZM227.619 22.464C229.107 22.464 230.451 22.128 231.651 21.456C232.851 20.76 233.787 19.8 234.459 18.576C235.155 17.352 235.503 15.96 235.503 14.4C235.503 12.84 235.155 11.448 234.459 10.224C233.787 9 232.851 8.052 231.651 7.38C230.451 6.684 229.107 6.336 227.619 6.336C226.131 6.336 224.787 6.684 223.587 7.38C222.387 8.052 221.439 9 220.743 10.224C220.071 11.448 219.735 12.84 219.735 14.4C219.735 15.96 220.071 17.352 220.743 18.576C221.439 19.8 222.387 20.76 223.587 21.456C224.787 22.128 226.131 22.464 227.619 22.464ZM265.842 27L265.806 11.88L258.39 24.336H255.762L248.382 12.204V27H242.91V1.8H247.734L257.166 17.46L266.454 1.8H271.242L271.314 27H265.842ZM293.924 22.32V27H274.412V1.8H293.456V6.48H280.208V11.952H291.908V16.488H280.208V22.32H293.924ZM318.797 1.8V27H314.009L301.445 11.7V27H295.685V1.8H300.509L313.037 17.1V1.8H318.797ZM327.099 6.552H319.035V1.8H340.995V6.552H332.931V27H327.099V6.552ZM346.78 18.252C346.78 17.004 347.056 15.972 347.608 15.156C348.184 14.34 349.012 13.44 350.092 12.456C350.884 11.736 351.46 11.136 351.82 10.656C352.204 10.152 352.396 9.588 352.396 8.964C352.396 8.076 352.036 7.38 351.316 6.876C350.62 6.348 349.684 6.084 348.508 6.084C347.38 6.084 346.372 6.324 345.484 6.804C344.62 7.26 343.888 7.908 343.288 8.748L338.932 6.192C339.94 4.656 341.296 3.468 343 2.628C344.728 1.788 346.768 1.368 349.12 1.368C351.88 1.368 354.088 1.956 355.744 3.132C357.424 4.308 358.264 5.94 358.264 8.028C358.264 9.012 358.096 9.876 357.76 10.62C357.448 11.364 357.052 12 356.572 12.528C356.116 13.032 355.516 13.62 354.772 14.292C353.884 15.084 353.236 15.756 352.828 16.308C352.42 16.836 352.216 17.484 352.216 18.252H346.78ZM349.516 27.288C348.532 27.288 347.704 26.976 347.032 26.352C346.384 25.704 346.06 24.924 346.06 24.012C346.06 23.1 346.384 22.344 347.032 21.744C347.68 21.12 348.508 20.808 349.516 20.808C350.524 20.808 351.352 21.12 352 21.744C352.648 22.344 352.972 23.1 352.972 24.012C352.972 24.924 352.636 25.704 351.964 26.352C351.316 26.976 350.5 27.288 349.516 27.288Z" fill="#A38373"/>
</svg>
