<svg width="426" height="35" viewBox="0 0 426 35" fill="none" xmlns="http://www.w3.org/2000/svg">
<path d="M37.6978 1.8L29.2018 27H26.3938L19.0138 5.508L11.5978 27H8.8258L0.329803 1.8H3.0658L10.3378 23.472L17.8618 1.8H20.3458L27.7618 23.58L35.1418 1.8H37.6978ZM49.3376 7.92C51.7136 7.92 53.5976 8.616 54.9896 10.008C56.4056 11.376 57.1136 13.38 57.1136 16.02V27H54.5576V16.272C54.5576 14.304 54.0656 12.804 53.0816 11.772C52.0976 10.74 50.6936 10.224 48.8696 10.224C46.8296 10.224 45.2096 10.836 44.0096 12.06C42.8336 13.26 42.2456 14.928 42.2456 17.064V27H39.6896V0.287998H42.2456V11.376C42.9416 10.272 43.9016 9.42 45.1256 8.82C46.3496 8.22 47.7536 7.92 49.3376 7.92ZM67.7969 7.92C70.2689 7.92 72.1649 8.544 73.4849 9.792C74.8049 11.016 75.4649 12.84 75.4649 15.264V27H73.0169V24.048C72.4409 25.032 71.5889 25.8 70.4609 26.352C69.3569 26.904 68.0369 27.18 66.5009 27.18C64.3889 27.18 62.7089 26.676 61.4609 25.668C60.2129 24.66 59.5889 23.328 59.5889 21.672C59.5889 20.064 60.1649 18.768 61.3169 17.784C62.4929 16.8 64.3529 16.308 66.8969 16.308H72.9089V15.156C72.9089 13.524 72.4529 12.288 71.5409 11.448C70.6289 10.584 69.2969 10.152 67.5449 10.152C66.3449 10.152 65.1929 10.356 64.0889 10.764C62.9849 11.148 62.0369 11.688 61.2449 12.384L60.0929 10.476C61.0529 9.66 62.2049 9.036 63.5489 8.604C64.8929 8.148 66.3089 7.92 67.7969 7.92ZM66.8969 25.164C68.3369 25.164 69.5729 24.84 70.6049 24.192C71.6369 23.52 72.4049 22.56 72.9089 21.312V18.216H66.9689C63.7289 18.216 62.1089 19.344 62.1089 21.6C62.1089 22.704 62.5289 23.58 63.3689 24.228C64.2089 24.852 65.3849 25.164 66.8969 25.164ZM89.4993 25.848C89.0193 26.28 88.4193 26.616 87.6993 26.856C87.0033 27.072 86.2713 27.18 85.5033 27.18C83.7273 27.18 82.3593 26.7 81.3993 25.74C80.4393 24.78 79.9593 23.424 79.9593 21.672V10.224H76.5753V8.064H79.9593V3.924H82.5153V8.064H88.2753V10.224H82.5153V21.528C82.5153 22.656 82.7913 23.52 83.3433 24.12C83.9193 24.696 84.7353 24.984 85.7913 24.984C86.3193 24.984 86.8233 24.9 87.3033 24.732C87.8073 24.564 88.2393 24.324 88.5993 24.012L89.4993 25.848ZM125.606 8.064L118.442 27H116.03L110.054 11.484L104.078 27H101.666L94.5382 8.064H96.9862L102.926 24.156L109.01 8.064H111.206L117.254 24.156L123.266 8.064H125.606ZM142.535 18.324H126.695C126.839 20.292 127.595 21.888 128.963 23.112C130.331 24.312 132.059 24.912 134.147 24.912C135.323 24.912 136.403 24.708 137.387 24.3C138.371 23.868 139.223 23.244 139.943 22.428L141.383 24.084C140.543 25.092 139.487 25.86 138.215 26.388C136.967 26.916 135.587 27.18 134.075 27.18C132.131 27.18 130.403 26.772 128.891 25.956C127.403 25.116 126.239 23.964 125.399 22.5C124.559 21.036 124.139 19.38 124.139 17.532C124.139 15.684 124.535 14.028 125.327 12.564C126.143 11.1 127.247 9.96 128.639 9.144C130.055 8.328 131.639 7.92 133.391 7.92C135.143 7.92 136.715 8.328 138.107 9.144C139.499 9.96 140.591 11.1 141.383 12.564C142.175 14.004 142.571 15.66 142.571 17.532L142.535 18.324ZM133.391 10.116C131.567 10.116 130.031 10.704 128.783 11.88C127.559 13.032 126.863 14.544 126.695 16.416H140.123C139.955 14.544 139.247 13.032 137.999 11.88C136.775 10.704 135.239 10.116 133.391 10.116ZM179.228 8.064L172.064 27H169.652L163.676 11.484L157.7 27H155.288L148.16 8.064H150.608L156.548 24.156L162.632 8.064H164.828L170.876 24.156L176.888 8.064H179.228ZM186.258 7.92C188.73 7.92 190.626 8.544 191.946 9.792C193.266 11.016 193.926 12.84 193.926 15.264V27H191.478V24.048C190.902 25.032 190.05 25.8 188.922 26.352C187.818 26.904 186.498 27.18 184.962 27.18C182.85 27.18 181.17 26.676 179.922 25.668C178.674 24.66 178.05 23.328 178.05 21.672C178.05 20.064 178.626 18.768 179.778 17.784C180.954 16.8 182.814 16.308 185.358 16.308H191.37V15.156C191.37 13.524 190.914 12.288 190.002 11.448C189.09 10.584 187.758 10.152 186.006 10.152C184.806 10.152 183.654 10.356 182.55 10.764C181.446 11.148 180.498 11.688 179.706 12.384L178.554 10.476C179.514 9.66 180.666 9.036 182.01 8.604C183.354 8.148 184.77 7.92 186.258 7.92ZM185.358 25.164C186.798 25.164 188.034 24.84 189.066 24.192C190.098 23.52 190.866 22.56 191.37 21.312V18.216H185.43C182.19 18.216 180.57 19.344 180.57 21.6C180.57 22.704 180.99 23.58 181.83 24.228C182.67 24.852 183.846 25.164 185.358 25.164ZM207.636 7.92C210.012 7.92 211.896 8.616 213.288 10.008C214.704 11.376 215.412 13.38 215.412 16.02V27H212.856V16.272C212.856 14.304 212.364 12.804 211.38 11.772C210.396 10.74 208.992 10.224 207.168 10.224C205.128 10.224 203.508 10.836 202.308 12.06C201.132 13.26 200.544 14.928 200.544 17.064V27H197.988V8.064H200.436V11.556C201.132 10.404 202.092 9.516 203.316 8.892C204.564 8.244 206.004 7.92 207.636 7.92ZM229.444 25.848C228.964 26.28 228.364 26.616 227.644 26.856C226.948 27.072 226.216 27.18 225.448 27.18C223.672 27.18 222.304 26.7 221.344 25.74C220.384 24.78 219.904 23.424 219.904 21.672V10.224H216.52V8.064H219.904V3.924H222.46V8.064H228.22V10.224H222.46V21.528C222.46 22.656 222.736 23.52 223.288 24.12C223.864 24.696 224.68 24.984 225.736 24.984C226.264 24.984 226.768 24.9 227.248 24.732C227.752 24.564 228.184 24.324 228.544 24.012L229.444 25.848ZM253.671 8.064L244.203 29.268C243.435 31.044 242.547 32.304 241.539 33.048C240.531 33.792 239.319 34.164 237.903 34.164C236.991 34.164 236.139 34.02 235.347 33.732C234.555 33.444 233.871 33.012 233.295 32.436L234.483 30.528C235.443 31.488 236.595 31.968 237.939 31.968C238.803 31.968 239.535 31.728 240.135 31.248C240.759 30.768 241.335 29.952 241.863 28.8L242.691 26.964L234.231 8.064H236.895L244.023 24.156L251.151 8.064H253.671ZM261.603 27.18C259.779 27.18 258.135 26.772 256.671 25.956C255.207 25.116 254.055 23.964 253.215 22.5C252.375 21.036 251.955 19.38 251.955 17.532C251.955 15.684 252.375 14.028 253.215 12.564C254.055 11.1 255.207 9.96 256.671 9.144C258.135 8.328 259.779 7.92 261.603 7.92C263.427 7.92 265.071 8.328 266.535 9.144C267.999 9.96 269.139 11.1 269.955 12.564C270.795 14.028 271.215 15.684 271.215 17.532C271.215 19.38 270.795 21.036 269.955 22.5C269.139 23.964 267.999 25.116 266.535 25.956C265.071 26.772 263.427 27.18 261.603 27.18ZM261.603 24.912C262.947 24.912 264.147 24.612 265.203 24.012C266.283 23.388 267.123 22.512 267.723 21.384C268.323 20.256 268.623 18.972 268.623 17.532C268.623 16.092 268.323 14.808 267.723 13.68C267.123 12.552 266.283 11.688 265.203 11.088C264.147 10.464 262.947 10.152 261.603 10.152C260.259 10.152 259.047 10.464 257.967 11.088C256.911 11.688 256.071 12.552 255.447 13.68C254.847 14.808 254.547 16.092 254.547 17.532C254.547 18.972 254.847 20.256 255.447 21.384C256.071 22.512 256.911 23.388 257.967 24.012C259.047 24.612 260.259 24.912 261.603 24.912ZM290.617 8.064V27H288.169V23.544C287.497 24.696 286.573 25.596 285.397 26.244C284.221 26.868 282.877 27.18 281.365 27.18C278.893 27.18 276.937 26.496 275.497 25.128C274.081 23.736 273.373 21.708 273.373 19.044V8.064H275.929V18.792C275.929 20.784 276.421 22.296 277.405 23.328C278.389 24.36 279.793 24.876 281.617 24.876C283.609 24.876 285.181 24.276 286.333 23.076C287.485 21.852 288.061 20.16 288.061 18V8.064H290.617ZM311.41 25.848C310.93 26.28 310.33 26.616 309.61 26.856C308.914 27.072 308.182 27.18 307.414 27.18C305.638 27.18 304.27 26.7 303.31 25.74C302.35 24.78 301.87 23.424 301.87 21.672V10.224H298.486V8.064H301.87V3.924H304.426V8.064H310.186V10.224H304.426V21.528C304.426 22.656 304.702 23.52 305.254 24.12C305.83 24.696 306.646 24.984 307.702 24.984C308.23 24.984 308.734 24.9 309.214 24.732C309.718 24.564 310.15 24.324 310.51 24.012L311.41 25.848ZM320.255 27.18C318.431 27.18 316.787 26.772 315.323 25.956C313.859 25.116 312.707 23.964 311.867 22.5C311.027 21.036 310.607 19.38 310.607 17.532C310.607 15.684 311.027 14.028 311.867 12.564C312.707 11.1 313.859 9.96 315.323 9.144C316.787 8.328 318.431 7.92 320.255 7.92C322.079 7.92 323.723 8.328 325.187 9.144C326.651 9.96 327.791 11.1 328.607 12.564C329.447 14.028 329.867 15.684 329.867 17.532C329.867 19.38 329.447 21.036 328.607 22.5C327.791 23.964 326.651 25.116 325.187 25.956C323.723 26.772 322.079 27.18 320.255 27.18ZM320.255 24.912C321.599 24.912 322.799 24.612 323.855 24.012C324.935 23.388 325.775 22.512 326.375 21.384C326.975 20.256 327.275 18.972 327.275 17.532C327.275 16.092 326.975 14.808 326.375 13.68C325.775 12.552 324.935 11.688 323.855 11.088C322.799 10.464 321.599 10.152 320.255 10.152C318.911 10.152 317.699 10.464 316.619 11.088C315.563 11.688 314.723 12.552 314.099 13.68C313.499 14.808 313.199 16.092 313.199 17.532C313.199 18.972 313.499 20.256 314.099 21.384C314.723 22.512 315.563 23.388 316.619 24.012C317.699 24.612 318.911 24.912 320.255 24.912ZM345.767 17.496L341.303 21.6V27H338.747V0.287998H341.303V18.396L352.607 8.064H355.775L347.675 15.804L356.531 27H353.399L345.767 17.496ZM366.855 7.92C369.231 7.92 371.115 8.616 372.507 10.008C373.923 11.376 374.631 13.38 374.631 16.02V27H372.075V16.272C372.075 14.304 371.583 12.804 370.599 11.772C369.615 10.74 368.211 10.224 366.387 10.224C364.347 10.224 362.727 10.836 361.527 12.06C360.351 13.26 359.763 14.928 359.763 17.064V27H357.207V8.064H359.655V11.556C360.351 10.404 361.311 9.516 362.535 8.892C363.783 8.244 365.223 7.92 366.855 7.92ZM386.5 27.18C384.676 27.18 383.032 26.772 381.568 25.956C380.104 25.116 378.952 23.964 378.112 22.5C377.272 21.036 376.852 19.38 376.852 17.532C376.852 15.684 377.272 14.028 378.112 12.564C378.952 11.1 380.104 9.96 381.568 9.144C383.032 8.328 384.676 7.92 386.5 7.92C388.324 7.92 389.968 8.328 391.432 9.144C392.896 9.96 394.036 11.1 394.852 12.564C395.692 14.028 396.112 15.684 396.112 17.532C396.112 19.38 395.692 21.036 394.852 22.5C394.036 23.964 392.896 25.116 391.432 25.956C389.968 26.772 388.324 27.18 386.5 27.18ZM386.5 24.912C387.844 24.912 389.044 24.612 390.1 24.012C391.18 23.388 392.02 22.512 392.62 21.384C393.22 20.256 393.52 18.972 393.52 17.532C393.52 16.092 393.22 14.808 392.62 13.68C392.02 12.552 391.18 11.688 390.1 11.088C389.044 10.464 387.844 10.152 386.5 10.152C385.156 10.152 383.944 10.464 382.864 11.088C381.808 11.688 380.968 12.552 380.344 13.68C379.744 14.808 379.444 16.092 379.444 17.532C379.444 18.972 379.744 20.256 380.344 21.384C380.968 22.512 381.808 23.388 382.864 24.012C383.944 24.612 385.156 24.912 386.5 24.912ZM425.715 8.064L418.551 27H416.139L410.163 11.484L404.187 27H401.775L394.647 8.064H397.095L403.035 24.156L409.119 8.064H411.315L417.363 24.156L423.375 8.064H425.715Z" fill="#A38373"/>
</svg>
