<svg width="1025" height="57" viewBox="0 0 1025 57" fill="none" xmlns="http://www.w3.org/2000/svg">
<path d="M15 6.84H0.24V3H34.2V6.84H19.44V45H15V6.84ZM45.2119 45.3C42.1719 45.3 39.4319 44.62 36.9919 43.26C34.5519 41.86 32.6319 39.94 31.2319 37.5C29.8319 35.06 29.1319 32.3 29.1319 29.22C29.1319 26.14 29.8319 23.38 31.2319 20.94C32.6319 18.5 34.5519 16.6 36.9919 15.24C39.4319 13.88 42.1719 13.2 45.2119 13.2C48.2519 13.2 50.9919 13.88 53.4319 15.24C55.8719 16.6 57.7719 18.5 59.1319 20.94C60.5319 23.38 61.2319 26.14 61.2319 29.22C61.2319 32.3 60.5319 35.06 59.1319 37.5C57.7719 39.94 55.8719 41.86 53.4319 43.26C50.9919 44.62 48.2519 45.3 45.2119 45.3ZM45.2119 41.52C47.4519 41.52 49.4519 41.02 51.2119 40.02C53.0119 38.98 54.4119 37.52 55.4119 35.64C56.4119 33.76 56.9119 31.62 56.9119 29.22C56.9119 26.82 56.4119 24.68 55.4119 22.8C54.4119 20.92 53.0119 19.48 51.2119 18.48C49.4519 17.44 47.4519 16.92 45.2119 16.92C42.9719 16.92 40.9519 17.44 39.1519 18.48C37.3919 19.48 35.9919 20.92 34.9519 22.8C33.9519 24.68 33.4519 26.82 33.4519 29.22C33.4519 31.62 33.9519 33.76 34.9519 35.64C35.9919 37.52 37.3919 38.98 39.1519 40.02C40.9519 41.02 42.9719 41.52 45.2119 41.52ZM86.4722 3.78C84.6322 3.78 83.2322 4.28 82.2722 5.28C81.3522 6.28 80.8922 7.76 80.8922 9.72V13.44H90.6122V17.04H81.0122V45H76.7522V17.04H71.1122V13.44H76.7522V9.54C76.7522 6.66 77.5722 4.38 79.2122 2.7C80.8922 1.02 83.2522 0.179998 86.2922 0.179998C87.4922 0.179998 88.6522 0.359998 89.7722 0.719998C90.8922 1.04 91.8322 1.52 92.5922 2.16L91.1522 5.34C89.9122 4.3 88.3522 3.78 86.4722 3.78ZM118.517 30.54H92.1169C92.3569 33.82 93.6169 36.48 95.8969 38.52C98.1769 40.52 101.057 41.52 104.537 41.52C106.497 41.52 108.297 41.18 109.937 40.5C111.577 39.78 112.997 38.74 114.197 37.38L116.597 40.14C115.197 41.82 113.437 43.1 111.317 43.98C109.237 44.86 106.937 45.3 104.417 45.3C101.177 45.3 98.2969 44.62 95.7769 43.26C93.2969 41.86 91.3569 39.94 89.9569 37.5C88.5569 35.06 87.8569 32.3 87.8569 29.22C87.8569 26.14 88.5169 23.38 89.8369 20.94C91.1969 18.5 93.0369 16.6 95.3569 15.24C97.7169 13.88 100.357 13.2 103.277 13.2C106.197 13.2 108.817 13.88 111.137 15.24C113.457 16.6 115.277 18.5 116.597 20.94C117.917 23.34 118.577 26.1 118.577 29.22L118.517 30.54ZM103.277 16.86C100.237 16.86 97.6769 17.84 95.5969 19.8C93.5569 21.72 92.3969 24.24 92.1169 27.36H114.497C114.217 24.24 113.037 21.72 110.957 19.8C108.917 17.84 106.357 16.86 103.277 16.86ZM149.928 30.54H123.528C123.768 33.82 125.028 36.48 127.308 38.52C129.588 40.52 132.468 41.52 135.948 41.52C137.908 41.52 139.708 41.18 141.348 40.5C142.988 39.78 144.408 38.74 145.608 37.38L148.008 40.14C146.608 41.82 144.848 43.1 142.728 43.98C140.648 44.86 138.348 45.3 135.828 45.3C132.588 45.3 129.708 44.62 127.188 43.26C124.708 41.86 122.768 39.94 121.368 37.5C119.968 35.06 119.268 32.3 119.268 29.22C119.268 26.14 119.928 23.38 121.248 20.94C122.608 18.5 124.448 16.6 126.768 15.24C129.128 13.88 131.768 13.2 134.688 13.2C137.608 13.2 140.228 13.88 142.548 15.24C144.868 16.6 146.688 18.5 148.008 20.94C149.328 23.34 149.988 26.1 149.988 29.22L149.928 30.54ZM134.688 16.86C131.648 16.86 129.088 17.84 127.008 19.8C124.968 21.72 123.808 24.24 123.528 27.36H145.908C145.628 24.24 144.448 21.72 142.368 19.8C140.328 17.84 137.768 16.86 134.688 16.86ZM153.859 0.479997H158.119V45H153.859V0.479997ZM165.592 45.3C164.712 45.3 163.952 44.98 163.312 44.34C162.712 43.7 162.412 42.92 162.412 42C162.412 41.08 162.712 40.32 163.312 39.72C163.952 39.08 164.712 38.76 165.592 38.76C166.472 38.76 167.232 39.08 167.872 39.72C168.512 40.32 168.832 41.08 168.832 42C168.832 42.92 168.512 43.7 167.872 44.34C167.232 44.98 166.472 45.3 165.592 45.3ZM193.05 6.84H178.29V3H212.25V6.84H197.49V45H193.05V6.84ZM223.262 45.3C220.222 45.3 217.482 44.62 215.042 43.26C212.602 41.86 210.682 39.94 209.282 37.5C207.882 35.06 207.182 32.3 207.182 29.22C207.182 26.14 207.882 23.38 209.282 20.94C210.682 18.5 212.602 16.6 215.042 15.24C217.482 13.88 220.222 13.2 223.262 13.2C226.302 13.2 229.042 13.88 231.482 15.24C233.922 16.6 235.822 18.5 237.182 20.94C238.582 23.38 239.282 26.14 239.282 29.22C239.282 32.3 238.582 35.06 237.182 37.5C235.822 39.94 233.922 41.86 231.482 43.26C229.042 44.62 226.302 45.3 223.262 45.3ZM223.262 41.52C225.502 41.52 227.502 41.02 229.262 40.02C231.062 38.98 232.462 37.52 233.462 35.64C234.462 33.76 234.962 31.62 234.962 29.22C234.962 26.82 234.462 24.68 233.462 22.8C232.462 20.92 231.062 19.48 229.262 18.48C227.502 17.44 225.502 16.92 223.262 16.92C221.022 16.92 219.002 17.44 217.202 18.48C215.442 19.48 214.042 20.92 213.002 22.8C212.002 24.68 211.502 26.82 211.502 29.22C211.502 31.62 212.002 33.76 213.002 35.64C214.042 37.52 215.442 38.98 217.202 40.02C219.002 41.02 221.022 41.52 223.262 41.52ZM265.122 13.2C269.242 13.2 272.402 14.24 274.602 16.32C276.802 18.36 277.902 21.4 277.902 25.44V45H273.822V40.08C272.862 41.72 271.442 43 269.562 43.92C267.722 44.84 265.522 45.3 262.962 45.3C259.442 45.3 256.642 44.46 254.562 42.78C252.482 41.1 251.442 38.88 251.442 36.12C251.442 33.44 252.402 31.28 254.322 29.64C256.282 28 259.382 27.18 263.622 27.18H273.642V25.26C273.642 22.54 272.882 20.48 271.362 19.08C269.842 17.64 267.622 16.92 264.702 16.92C262.702 16.92 260.782 17.26 258.942 17.94C257.102 18.58 255.522 19.48 254.202 20.64L252.282 17.46C253.882 16.1 255.802 15.06 258.042 14.34C260.282 13.58 262.642 13.2 265.122 13.2ZM263.622 41.94C266.022 41.94 268.082 41.4 269.802 40.32C271.522 39.2 272.802 37.6 273.642 35.52V30.36H263.742C258.342 30.36 255.642 32.24 255.642 36C255.642 37.84 256.342 39.3 257.742 40.38C259.142 41.42 261.102 41.94 263.622 41.94ZM300.933 13.2C303.893 13.2 306.573 13.88 308.973 15.24C311.373 16.56 313.253 18.44 314.613 20.88C315.973 23.32 316.653 26.1 316.653 29.22C316.653 32.38 315.973 35.18 314.613 37.62C313.253 40.06 311.373 41.96 308.973 43.32C306.613 44.64 303.933 45.3 300.933 45.3C298.373 45.3 296.053 44.78 293.973 43.74C291.933 42.66 290.253 41.1 288.933 39.06V56.64H284.673V13.44H288.753V19.68C290.033 17.6 291.713 16 293.793 14.88C295.913 13.76 298.293 13.2 300.933 13.2ZM300.633 41.52C302.833 41.52 304.833 41.02 306.633 40.02C308.433 38.98 309.833 37.52 310.833 35.64C311.873 33.76 312.393 31.62 312.393 29.22C312.393 26.82 311.873 24.7 310.833 22.86C309.833 20.98 308.433 19.52 306.633 18.48C304.833 17.44 302.833 16.92 300.633 16.92C298.393 16.92 296.373 17.44 294.573 18.48C292.813 19.52 291.413 20.98 290.373 22.86C289.373 24.7 288.873 26.82 288.873 29.22C288.873 31.62 289.373 33.76 290.373 35.64C291.413 37.52 292.813 38.98 294.573 40.02C296.373 41.02 298.393 41.52 300.633 41.52ZM336.797 13.2C339.757 13.2 342.437 13.88 344.837 15.24C347.237 16.56 349.117 18.44 350.477 20.88C351.837 23.32 352.517 26.1 352.517 29.22C352.517 32.38 351.837 35.18 350.477 37.62C349.117 40.06 347.237 41.96 344.837 43.32C342.477 44.64 339.797 45.3 336.797 45.3C334.237 45.3 331.917 44.78 329.837 43.74C327.797 42.66 326.117 41.1 324.797 39.06V56.64H320.537V13.44H324.617V19.68C325.897 17.6 327.577 16 329.657 14.88C331.777 13.76 334.157 13.2 336.797 13.2ZM336.497 41.52C338.697 41.52 340.697 41.02 342.497 40.02C344.297 38.98 345.697 37.52 346.697 35.64C347.737 33.76 348.257 31.62 348.257 29.22C348.257 26.82 347.737 24.7 346.697 22.86C345.697 20.98 344.297 19.52 342.497 18.48C340.697 17.44 338.697 16.92 336.497 16.92C334.257 16.92 332.237 17.44 330.437 18.48C328.677 19.52 327.277 20.98 326.237 22.86C325.237 24.7 324.737 26.82 324.737 29.22C324.737 31.62 325.237 33.76 326.237 35.64C327.277 37.52 328.677 38.98 330.437 40.02C332.237 41.02 334.257 41.52 336.497 41.52ZM360.481 19.62C361.481 17.5 362.961 15.9 364.921 14.82C366.921 13.74 369.381 13.2 372.301 13.2V17.34L371.281 17.28C367.961 17.28 365.361 18.3 363.481 20.34C361.601 22.38 360.661 25.24 360.661 28.92V45H356.401V13.44H360.481V19.62ZM402.401 30.54H376.001C376.241 33.82 377.501 36.48 379.781 38.52C382.061 40.52 384.941 41.52 388.421 41.52C390.381 41.52 392.181 41.18 393.821 40.5C395.461 39.78 396.881 38.74 398.081 37.38L400.481 40.14C399.081 41.82 397.321 43.1 395.201 43.98C393.121 44.86 390.821 45.3 388.301 45.3C385.061 45.3 382.181 44.62 379.661 43.26C377.181 41.86 375.241 39.94 373.841 37.5C372.441 35.06 371.741 32.3 371.741 29.22C371.741 26.14 372.401 23.38 373.721 20.94C375.081 18.5 376.921 16.6 379.241 15.24C381.601 13.88 384.241 13.2 387.161 13.2C390.081 13.2 392.701 13.88 395.021 15.24C397.341 16.6 399.161 18.5 400.481 20.94C401.801 23.34 402.461 26.1 402.461 29.22L402.401 30.54ZM387.161 16.86C384.121 16.86 381.561 17.84 379.481 19.8C377.441 21.72 376.281 24.24 376.001 27.36H398.381C398.101 24.24 396.921 21.72 394.841 19.8C392.801 17.84 390.241 16.86 387.161 16.86ZM419.412 45.3C416.292 45.3 413.492 44.62 411.012 43.26C408.572 41.9 406.652 40 405.252 37.56C403.852 35.08 403.152 32.3 403.152 29.22C403.152 26.14 403.852 23.38 405.252 20.94C406.652 18.5 408.572 16.6 411.012 15.24C413.492 13.88 416.292 13.2 419.412 13.2C422.132 13.2 424.552 13.74 426.672 14.82C428.832 15.86 430.532 17.4 431.772 19.44L428.592 21.6C427.552 20.04 426.232 18.88 424.632 18.12C423.032 17.32 421.292 16.92 419.412 16.92C417.132 16.92 415.072 17.44 413.232 18.48C411.432 19.48 410.012 20.92 408.972 22.8C407.972 24.68 407.472 26.82 407.472 29.22C407.472 31.66 407.972 33.82 408.972 35.7C410.012 37.54 411.432 38.98 413.232 40.02C415.072 41.02 417.132 41.52 419.412 41.52C421.292 41.52 423.032 41.14 424.632 40.38C426.232 39.62 427.552 38.46 428.592 36.9L431.772 39.06C430.532 41.1 428.832 42.66 426.672 43.74C424.512 44.78 422.092 45.3 419.412 45.3ZM435.341 13.44H439.601V45H435.341V13.44ZM437.501 6.54C436.621 6.54 435.881 6.24 435.281 5.64C434.681 5.04 434.381 4.32 434.381 3.48C434.381 2.68 434.681 1.98 435.281 1.38C435.881 0.779997 436.621 0.479997 437.501 0.479997C438.381 0.479997 439.121 0.779997 439.721 1.38C440.321 1.94 440.621 2.62 440.621 3.42C440.621 4.3 440.321 5.04 439.721 5.64C439.121 6.24 438.381 6.54 437.501 6.54ZM457.694 13.2C461.814 13.2 464.974 14.24 467.174 16.32C469.374 18.36 470.474 21.4 470.474 25.44V45H466.394V40.08C465.434 41.72 464.014 43 462.134 43.92C460.294 44.84 458.094 45.3 455.534 45.3C452.014 45.3 449.214 44.46 447.134 42.78C445.054 41.1 444.014 38.88 444.014 36.12C444.014 33.44 444.974 31.28 446.894 29.64C448.854 28 451.954 27.18 456.194 27.18H466.214V25.26C466.214 22.54 465.454 20.48 463.934 19.08C462.414 17.64 460.194 16.92 457.274 16.92C455.274 16.92 453.354 17.26 451.514 17.94C449.674 18.58 448.094 19.48 446.774 20.64L444.854 17.46C446.454 16.1 448.374 15.06 450.614 14.34C452.854 13.58 455.214 13.2 457.694 13.2ZM456.194 41.94C458.594 41.94 460.654 41.4 462.374 40.32C464.094 39.2 465.374 37.6 466.214 35.52V30.36H456.314C450.914 30.36 448.214 32.24 448.214 36C448.214 37.84 448.914 39.3 450.314 40.38C451.714 41.42 453.674 41.94 456.194 41.94ZM493.865 43.08C493.065 43.8 492.065 44.36 490.865 44.76C489.705 45.12 488.485 45.3 487.205 45.3C484.245 45.3 481.965 44.5 480.365 42.9C478.765 41.3 477.965 39.04 477.965 36.12V17.04H472.325V13.44H477.965V6.54H482.225V13.44H491.825V17.04H482.225V35.88C482.225 37.76 482.685 39.2 483.605 40.2C484.565 41.16 485.925 41.64 487.685 41.64C488.565 41.64 489.405 41.5 490.205 41.22C491.045 40.94 491.765 40.54 492.365 40.02L493.865 43.08ZM523.186 30.54H496.786C497.026 33.82 498.286 36.48 500.566 38.52C502.846 40.52 505.726 41.52 509.206 41.52C511.166 41.52 512.966 41.18 514.606 40.5C516.246 39.78 517.666 38.74 518.866 37.38L521.266 40.14C519.866 41.82 518.106 43.1 515.986 43.98C513.906 44.86 511.606 45.3 509.086 45.3C505.846 45.3 502.966 44.62 500.446 43.26C497.966 41.86 496.026 39.94 494.626 37.5C493.226 35.06 492.526 32.3 492.526 29.22C492.526 26.14 493.186 23.38 494.506 20.94C495.866 18.5 497.706 16.6 500.026 15.24C502.386 13.88 505.026 13.2 507.946 13.2C510.866 13.2 513.486 13.88 515.806 15.24C518.126 16.6 519.946 18.5 521.266 20.94C522.586 23.34 523.246 26.1 523.246 29.22L523.186 30.54ZM507.946 16.86C504.906 16.86 502.346 17.84 500.266 19.8C498.226 21.72 497.066 24.24 496.786 27.36H519.166C518.886 24.24 517.706 21.72 515.626 19.8C513.586 17.84 511.026 16.86 507.946 16.86ZM527.537 45.3C526.657 45.3 525.897 44.98 525.257 44.34C524.657 43.7 524.357 42.92 524.357 42C524.357 41.08 524.657 40.32 525.257 39.72C525.897 39.08 526.657 38.76 527.537 38.76C528.417 38.76 529.177 39.08 529.817 39.72C530.457 40.32 530.777 41.08 530.777 42C530.777 42.92 530.457 43.7 529.817 44.34C529.177 44.98 528.417 45.3 527.537 45.3ZM554.995 6.84H540.235V3H574.195V6.84H559.435V45H554.995V6.84ZM585.207 45.3C582.167 45.3 579.427 44.62 576.987 43.26C574.547 41.86 572.627 39.94 571.227 37.5C569.827 35.06 569.127 32.3 569.127 29.22C569.127 26.14 569.827 23.38 571.227 20.94C572.627 18.5 574.547 16.6 576.987 15.24C579.427 13.88 582.167 13.2 585.207 13.2C588.247 13.2 590.987 13.88 593.427 15.24C595.867 16.6 597.767 18.5 599.127 20.94C600.527 23.38 601.227 26.14 601.227 29.22C601.227 32.3 600.527 35.06 599.127 37.5C597.767 39.94 595.867 41.86 593.427 43.26C590.987 44.62 588.247 45.3 585.207 45.3ZM585.207 41.52C587.447 41.52 589.447 41.02 591.207 40.02C593.007 38.98 594.407 37.52 595.407 35.64C596.407 33.76 596.907 31.62 596.907 29.22C596.907 26.82 596.407 24.68 595.407 22.8C594.407 20.92 593.007 19.48 591.207 18.48C589.447 17.44 587.447 16.92 585.207 16.92C582.967 16.92 580.947 17.44 579.147 18.48C577.387 19.48 575.987 20.92 574.947 22.8C573.947 24.68 573.447 26.82 573.447 29.22C573.447 31.62 573.947 33.76 574.947 35.64C575.987 37.52 577.387 38.98 579.147 40.02C580.947 41.02 582.967 41.52 585.207 41.52ZM643.508 30.54H617.108C617.348 33.82 618.608 36.48 620.888 38.52C623.168 40.52 626.048 41.52 629.528 41.52C631.488 41.52 633.288 41.18 634.928 40.5C636.568 39.78 637.988 38.74 639.188 37.38L641.588 40.14C640.188 41.82 638.428 43.1 636.308 43.98C634.228 44.86 631.928 45.3 629.408 45.3C626.168 45.3 623.288 44.62 620.768 43.26C618.288 41.86 616.348 39.94 614.948 37.5C613.548 35.06 612.848 32.3 612.848 29.22C612.848 26.14 613.508 23.38 614.828 20.94C616.188 18.5 618.028 16.6 620.348 15.24C622.708 13.88 625.348 13.2 628.268 13.2C631.188 13.2 633.808 13.88 636.128 15.24C638.448 16.6 640.268 18.5 641.588 20.94C642.908 23.34 643.568 26.1 643.568 29.22L643.508 30.54ZM628.268 16.86C625.228 16.86 622.668 17.84 620.588 19.8C618.548 21.72 617.388 24.24 617.108 27.36H639.488C639.208 24.24 638.028 21.72 635.948 19.8C633.908 17.84 631.348 16.86 628.268 16.86ZM673.372 13.44L659.332 45H654.952L640.972 13.44H645.412L657.232 40.32L669.172 13.44H673.372ZM701.173 30.54H674.773C675.013 33.82 676.273 36.48 678.553 38.52C680.833 40.52 683.713 41.52 687.193 41.52C689.153 41.52 690.953 41.18 692.593 40.5C694.233 39.78 695.653 38.74 696.853 37.38L699.253 40.14C697.853 41.82 696.093 43.1 693.973 43.98C691.893 44.86 689.593 45.3 687.073 45.3C683.833 45.3 680.953 44.62 678.433 43.26C675.953 41.86 674.013 39.94 672.613 37.5C671.213 35.06 670.513 32.3 670.513 29.22C670.513 26.14 671.173 23.38 672.493 20.94C673.853 18.5 675.693 16.6 678.013 15.24C680.373 13.88 683.013 13.2 685.933 13.2C688.853 13.2 691.473 13.88 693.793 15.24C696.113 16.6 697.933 18.5 699.253 20.94C700.573 23.34 701.233 26.1 701.233 29.22L701.173 30.54ZM685.933 16.86C682.893 16.86 680.333 17.84 678.253 19.8C676.213 21.72 675.053 24.24 674.773 27.36H697.153C696.873 24.24 695.693 21.72 693.613 19.8C691.573 17.84 689.013 16.86 685.933 16.86ZM709.184 19.62C710.184 17.5 711.664 15.9 713.624 14.82C715.624 13.74 718.084 13.2 721.004 13.2V17.34L719.984 17.28C716.664 17.28 714.064 18.3 712.184 20.34C710.304 22.38 709.364 25.24 709.364 28.92V45H705.104V13.44H709.184V19.62ZM751.785 13.44L736.005 48.78C734.725 51.74 733.245 53.84 731.565 55.08C729.885 56.32 727.865 56.94 725.505 56.94C723.985 56.94 722.565 56.7 721.245 56.22C719.925 55.74 718.785 55.02 717.825 54.06L719.805 50.88C721.405 52.48 723.325 53.28 725.565 53.28C727.005 53.28 728.225 52.88 729.225 52.08C730.265 51.28 731.225 49.92 732.105 48L733.485 44.94L719.385 13.44H723.825L735.705 40.26L747.585 13.44H751.785ZM801.148 45L801.088 19.8L788.728 40.56H784.348L772.048 20.34V45H762.928V3H770.968L786.688 29.1L802.168 3H810.148L810.268 45H801.148ZM835.772 45.72C831.412 45.72 827.472 44.78 823.952 42.9C820.472 41.02 817.732 38.44 815.732 35.16C813.772 31.84 812.792 28.12 812.792 24C812.792 19.88 813.772 16.18 815.732 12.9C817.732 9.58 820.472 6.98 823.952 5.1C827.472 3.22 831.412 2.28 835.772 2.28C840.132 2.28 844.052 3.22 847.532 5.1C851.012 6.98 853.752 9.58 855.752 12.9C857.752 16.18 858.752 19.88 858.752 24C858.752 28.12 857.752 31.84 855.752 35.16C853.752 38.44 851.012 41.02 847.532 42.9C844.052 44.78 840.132 45.72 835.772 45.72ZM835.772 37.44C838.252 37.44 840.492 36.88 842.492 35.76C844.492 34.6 846.052 33 847.172 30.96C848.332 28.92 848.912 26.6 848.912 24C848.912 21.4 848.332 19.08 847.172 17.04C846.052 15 844.492 13.42 842.492 12.3C840.492 11.14 838.252 10.56 835.772 10.56C833.292 10.56 831.052 11.14 829.052 12.3C827.052 13.42 825.472 15 824.312 17.04C823.192 19.08 822.632 21.4 822.632 24C822.632 26.6 823.192 28.92 824.312 30.96C825.472 33 827.052 34.6 829.052 35.76C831.052 36.88 833.292 37.44 835.772 37.44ZM899.477 45L899.417 19.8L887.057 40.56H882.677L870.377 20.34V45H861.257V3H869.297L885.017 29.1L900.497 3H908.477L908.597 45H899.477ZM946.282 37.2V45H913.762V3H945.502V10.8H923.422V19.92H942.922V27.48H923.422V37.2H946.282ZM987.736 3V45H979.756L958.816 19.5V45H949.216V3H957.256L978.136 28.5V3H987.736ZM1001.57 10.92H988.133V3H1024.73V10.92H1011.29V45H1001.57V10.92Z" fill="#A38373"/>
</svg>
