<svg width="884" height="112" viewBox="0 0 884 112" fill="none" xmlns="http://www.w3.org/2000/svg">
<path d="M18.88 21.12V31.8C18.88 45.36 16.96 65.04 7.24 78.6C5.92 76.92 2.44 73.92 0.64 72.96C9.4 60.48 10.6 43.8 10.6 31.68V13.68H64.48C64.12 9.84 63.88 5.64 63.76 1.56H72.28C72.4 5.64 72.52 9.84 72.88 13.68H91.84C88.36 10.92 83.08 7.68 78.52 5.52L83.68 1.31999C89.08 3.71999 95.32 7.32 98.8 10.32L94.84 13.68H108.4V21.12H73.72C75.16 32.4 77.56 42.24 80.68 49.92C86.08 43.2 90.4 35.52 93.52 27L101.44 28.92C97.36 39.96 91.6 49.68 84.52 57.96C88.6 64.8 93.16 68.52 97.72 68.52C100.6 68.4 101.8 64.2 102.28 53.4C104.2 54.96 107.2 56.52 109.36 57.12C108.16 72.24 105.16 76.68 97.36 76.68C90.16 76.68 83.8 72.12 78.64 64.32C74.32 68.4 69.64 72.12 64.72 75.36C63.4 73.8 60.28 70.8 58.36 69.36C64.24 65.88 69.64 61.68 74.68 56.88C70.12 47.28 67 35.16 65.2 21.12H18.88ZM44.8 77.52L51.88 74.16C57.4 79.56 64.6 87 67.96 91.92L60.52 95.88C57.28 90.96 50.44 83.16 44.8 77.52ZM9.16 107.16L1 103.68C5.68 98.04 10.36 88.92 13.24 82.44L21.04 85.44C17.8 91.92 13.48 101.28 9.16 107.16ZM61 29.04V35.52H23.68V29.04H61ZM51.64 61.68V49.08H32.44V61.68H51.64ZM58.84 42.6V68.16H25.12V42.6H58.84ZM44.56 102.84H70.96C77.44 102.84 78.4 101.04 79.12 88.56C81.16 90 84.88 91.2 87.4 91.68C86.2 106.56 83.32 110.04 71.44 110.04H44.08C30.4 110.04 26.68 107.76 26.68 99.12V79.2H35.56V99C35.56 102.24 36.88 102.84 44.56 102.84ZM86.32 82.32L94.24 79.8C99.16 86.64 104.92 96 107.44 102L99.04 105.24C96.76 99.24 91.24 89.52 86.32 82.32ZM203.56 1.2L209.8 8.4C185.8 13.44 148.72 16.44 117.64 17.64C117.52 15.36 116.44 12.12 115.6 10.08C146.32 8.76 183.04 5.64 203.56 1.2ZM171.64 33.24L163.24 35.28C162.52 30.6 160 23.16 157.24 17.64L165.28 15.84C168.16 21.36 170.8 28.68 171.64 33.24ZM122.8 43.92V60.36H114.4V36H133.48C132.04 31.68 128.68 25.08 125.56 20.16L133.24 18C136.72 22.92 140.32 29.4 141.76 33.72L134.68 36H186.88C190.84 30 195.4 21.72 198.04 15.6L207.04 18.36C203.8 24.24 199.6 30.72 196 36H216.52V60.36H207.76V43.92H122.8ZM188.56 65.76H142.24C148 74.04 156.04 80.88 165.76 86.4C175.12 81 183.04 74.28 188.56 65.76ZM196 57.12L201.88 60.84C195.64 73.56 186.16 83.4 174.4 90.96C187.12 96.72 202.12 100.56 218.8 102.6C216.88 104.52 214.48 108.48 213.4 110.88C195.28 108.36 179.2 103.44 165.52 96C151.12 103.44 134.44 108.12 117.16 110.88C116.2 108.72 113.68 104.76 111.88 102.96C128.2 100.68 143.8 96.96 157 90.96C147.16 84.24 138.88 75.96 132.76 66.24L133.96 65.76H128.8V57.48H194.2L196 57.12ZM248.92 66.72C244.6 66.72 241 63.24 241 58.44C241 53.4 244.6 49.92 248.92 49.92C253.24 49.92 256.84 53.4 256.84 58.44C256.84 63.24 253.24 66.72 248.92 66.72ZM378.946 28.92H347.626C344.626 38.16 340.906 46.32 336.226 52.8C334.786 51.48 330.946 49.08 328.786 48.12C337.306 36.96 342.586 19.68 345.466 1.43999L353.866 2.76C352.786 9 351.466 15 350.026 20.76H381.586L382.906 20.28L388.786 22.2C386.626 32.76 383.386 45.24 380.266 53.16L373.306 50.88C375.346 45.24 377.386 36.72 378.946 28.92ZM329.506 45.84H318.706V107.52H310.186V45.84H294.706V56.16C294.706 72.24 293.266 94.92 284.746 109.32C283.426 107.52 280.066 104.52 278.266 103.44C285.706 90 286.306 70.92 286.306 56.28V13.8C299.266 11.28 314.026 7.08 322.066 2.76L329.266 9C320.026 13.32 306.826 16.92 294.706 19.44V37.56H329.506V45.84ZM361.546 36V44.28C361.546 47.4 361.426 50.64 361.186 54.24C366.106 78.24 373.786 92.4 389.266 104.4C387.346 106.08 384.826 108.6 383.626 111C371.026 100.68 363.466 89.16 358.306 72.72C354.706 86.04 347.386 100.08 332.506 111.72C331.306 109.56 328.546 106.56 326.626 105.12C351.226 86.28 353.266 60.96 353.266 44.16V36H361.546ZM402.106 24.48V39.12H393.346V16.68H413.626C411.466 13.08 408.706 9.11999 405.946 6L413.386 2.39999C417.466 6.83999 421.546 12.48 423.826 16.68H439.066V0.839993H448.066V16.68H464.626C467.746 12.48 471.106 6.83999 473.146 2.63999L482.506 5.64C479.746 9.48 476.986 13.44 474.346 16.68H494.386V39.12H485.386V24.48H402.106ZM481.186 93.24H472.426V69.12H414.826V93.6H406.306V61.92H481.186V93.24ZM465.946 48.36V38.4H421.786V48.36H465.946ZM413.266 32.16H474.706V54.48H413.266V32.16ZM439.426 75H448.426C445.426 98.16 434.986 107.16 393.106 110.88C392.626 108.84 390.826 105.36 389.386 103.56C428.386 100.68 436.786 93.96 439.426 75ZM447.466 95.28L452.146 89.52C468.466 94.08 485.626 100.08 496.306 104.88L490.186 110.88C480.226 106.08 463.906 100.08 447.466 95.28ZM527.386 66.72C523.066 66.72 519.466 63.24 519.466 58.44C519.466 53.4 523.066 49.92 527.386 49.92C531.706 49.92 535.306 53.4 535.306 58.44C535.306 63.24 531.706 66.72 527.386 66.72ZM662.451 21.72H583.971C578.091 31.2 571.491 39.84 565.011 46.32C563.091 44.88 559.371 42.36 557.091 41.04C568.131 31.44 578.451 16.08 584.691 0.959992L593.451 3.48C591.891 6.83999 590.331 10.32 588.531 13.68H662.451V21.72ZM619.611 87.72H639.291C639.771 82.8 640.251 76.44 640.731 68.28H583.251C582.291 75.24 581.211 81.96 580.251 87.72H617.331C612.291 83.04 603.531 77.16 595.851 73.2L600.891 68.28C609.051 72.12 618.891 78.36 623.691 83.28L619.611 87.72ZM641.811 41.76H586.851C586.011 47.88 585.171 54.24 584.211 60.6H620.211C615.531 56.28 606.651 50.52 598.851 47.16L603.891 42.12C611.691 45.48 620.931 51 625.731 55.32L620.571 60.6H641.091C641.331 54.96 641.571 48.84 641.811 41.76ZM666.531 68.52H649.491C649.011 76.32 648.651 82.68 648.051 87.72H662.451V95.64H647.091C646.131 101.64 644.931 104.88 643.611 106.8C641.331 109.68 638.811 110.76 635.211 111.12C631.731 111.36 625.731 111.24 619.851 110.88C619.731 108.84 618.771 105.84 617.571 103.8C623.691 104.28 629.211 104.4 631.491 104.28C633.651 104.28 634.731 104.04 635.931 102.6C636.771 101.64 637.611 99.36 638.331 95.64H569.811C571.131 88.32 572.811 78.72 574.371 68.52H557.451V60.36H575.571C576.771 51.12 578.091 41.88 578.931 33.84H650.691C650.691 33.84 650.571 37.08 650.571 38.16C650.331 46.56 649.971 53.88 649.731 60.36H666.531V68.52ZM667.971 50.4H776.571V60.12H667.971V50.4ZM827.931 32.88L835.971 35.52C825.051 56.64 806.571 73.56 786.531 84.24C785.571 82.56 782.691 78.84 780.891 77.16C793.491 71.16 805.251 62.64 814.611 52.2C791.451 53.64 787.971 54 785.691 54.96C785.331 53.16 783.891 48.84 782.931 46.56C785.091 46.2 787.251 44.4 789.891 41.64C791.811 39.6 797.931 32.52 803.091 24.72H779.571V16.56H810.411C809.091 12.48 806.571 7.43999 803.811 3.24L811.971 1.08C815.331 5.87999 818.691 12.24 819.891 16.44L819.531 16.56H844.491V24.72H813.411C808.251 32.28 802.371 39.6 796.371 45.6L820.851 44.52C823.491 40.8 826.011 36.96 827.931 32.88ZM835.731 55.56L843.891 58.68C838.971 66.96 833.211 74.64 826.611 81.6C833.331 87.48 841.731 94.92 845.811 99.84L839.331 105.84C835.371 100.8 827.691 93.36 820.851 87.24C810.291 96.84 798.291 104.88 785.811 111C784.731 109.08 781.971 105.24 780.171 103.44C803.211 93.6 823.971 76.68 835.731 55.56ZM861.651 15.48V81.84H853.131V15.48H861.651ZM874.611 3.24H883.371V99.6C883.371 105.36 881.931 107.76 878.331 109.32C874.611 110.64 868.611 110.88 858.411 110.88C858.051 108.48 856.851 104.76 855.531 102.36C862.851 102.6 869.691 102.6 871.611 102.48C873.771 102.36 874.611 101.76 874.611 99.6V3.24Z" fill="#A38373"/>
</svg>
