<svg width="563" height="53" viewBox="0 0 563 53" fill="none" xmlns="http://www.w3.org/2000/svg">
<path d="M36.32 48L36.264 24.48L24.728 43.856H20.64L9.16 24.984V48H0.648V8.8H8.152L22.824 33.16L37.272 8.8H44.72L44.832 48H36.32ZM70.8764 48.672C66.807 48.672 63.1297 47.7947 59.8444 46.04C56.5964 44.2853 54.039 41.8773 52.1724 38.816C50.343 35.7173 49.4284 32.2453 49.4284 28.4C49.4284 24.5547 50.343 21.1013 52.1724 18.04C54.039 14.9413 56.5964 12.5147 59.8444 10.76C63.1297 9.00533 66.807 8.128 70.8764 8.128C74.9457 8.128 78.6044 9.00533 81.8524 10.76C85.1004 12.5147 87.6577 14.9413 89.5244 18.04C91.391 21.1013 92.3244 24.5547 92.3244 28.4C92.3244 32.2453 91.391 35.7173 89.5244 38.816C87.6577 41.8773 85.1004 44.2853 81.8524 46.04C78.6044 47.7947 74.9457 48.672 70.8764 48.672ZM70.8764 40.944C73.191 40.944 75.2817 40.4213 77.1484 39.376C79.015 38.2933 80.471 36.8 81.5164 34.896C82.599 32.992 83.1404 30.8267 83.1404 28.4C83.1404 25.9733 82.599 23.808 81.5164 21.904C80.471 20 79.015 18.5253 77.1484 17.48C75.2817 16.3973 73.191 15.856 70.8764 15.856C68.5617 15.856 66.471 16.3973 64.6044 17.48C62.7377 18.5253 61.263 20 60.1804 21.904C59.135 23.808 58.6124 25.9733 58.6124 28.4C58.6124 30.8267 59.135 32.992 60.1804 34.896C61.263 36.8 62.7377 38.2933 64.6044 39.376C66.471 40.4213 68.5617 40.944 70.8764 40.944ZM132.574 48L132.518 24.48L120.982 43.856H116.894L105.414 24.984V48H96.9024V8.8H104.406L119.078 33.16L133.526 8.8H140.974L141.086 48H132.574ZM178.499 40.72V48H148.147V8.8H177.771V16.08H157.163V24.592H175.363V31.648H157.163V40.72H178.499ZM219.429 8.8V48H211.981L192.437 24.2V48H183.477V8.8H190.981L210.469 32.6V8.8H219.429ZM234.584 16.192H222.04V8.8H256.2V16.192H243.656V48H234.584V16.192ZM288.42 25.544V13.84H276.66V25.544H288.42ZM276.66 42.68H288.42V29.24H276.66V42.68ZM281.364 1.016L285.844 1.856C284.892 4.6 283.884 7.68 282.932 10.088H292.228V46.432H276.66V50.856H272.852V10.088H279.124C279.964 7.4 280.972 3.648 281.364 1.016ZM319.612 9.92V12.048C318.716 37.584 317.988 46.208 315.748 48.952C314.516 50.52 313.228 51.024 311.324 51.192C309.364 51.416 306.172 51.304 303.036 51.136C302.924 49.904 302.42 48.224 301.636 47.048C305.276 47.384 308.636 47.384 309.924 47.384C311.044 47.384 311.66 47.272 312.22 46.544C314.068 44.584 314.908 36.072 315.636 13.784H301.412C299.844 17.536 298.108 20.952 296.148 23.584C295.42 22.912 293.628 21.792 292.732 21.232C296.484 16.304 299.508 8.576 301.3 0.903999L305.276 1.856C304.604 4.6 303.82 7.288 302.868 9.92H319.612ZM310.764 35.12L307.236 37.304C305.556 33.944 301.804 28.4 298.724 24.368L301.972 22.464C305.108 26.44 308.972 31.816 310.764 35.12ZM351.756 46.376H374.436V50.464H324.932V46.376H347.332V32.656H330.084V28.624H347.332V16.36H327.508V12.272H352.092C349.908 9.696 345.932 6.168 342.572 3.704L345.932 1.352C349.516 3.928 353.996 7.736 356.18 10.368L353.548 12.272H371.636V16.36H351.756V28.624H369.34V32.656H351.756V46.376ZM390.844 47.832H400.588C403.164 47.832 403.556 46.656 403.836 40.104C404.788 40.72 406.356 41.392 407.532 41.616C407.028 49.344 405.796 51.472 400.868 51.472H390.508C385.132 51.472 383.452 50.24 383.452 45.368V21.512H403.724C403.724 21.512 403.724 22.688 403.668 23.192C403.108 32.824 402.604 36.576 401.316 37.976C400.476 38.928 399.524 39.264 398.124 39.432C397.004 39.488 394.876 39.544 392.636 39.376C392.524 38.256 392.132 36.8 391.628 35.792C393.644 36.016 395.548 36.016 396.388 36.016C397.116 36.016 397.564 35.96 398.012 35.512C398.628 34.672 399.188 31.984 399.636 25.208H387.484V45.368C387.484 47.44 387.988 47.832 390.844 47.832ZM392.972 1.24L396.836 2.416C396.5 3.256 396.108 3.984 395.716 4.824C400.308 9.528 405.908 15.744 408.596 19.72L405.628 22.464C403.108 18.712 398.292 12.944 393.868 8.184C390.34 14.232 385.58 19.832 380.092 24.088C379.42 23.304 377.964 21.848 377.068 21.176C384.124 16.136 390.004 8.464 392.972 1.24ZM415.26 7.68V38.536H411.284V7.68H415.26ZM422.148 2.024H426.236V46.768C426.236 49.568 425.452 50.688 423.716 51.36C421.924 52.032 418.844 52.144 413.636 52.088C413.412 51.024 412.796 49.232 412.18 48.112C416.1 48.28 419.628 48.224 420.692 48.168C421.7 48.112 422.148 47.776 422.148 46.768V2.024ZM471.428 11.152V6.616H442.476V11.152H471.428ZM471.428 18.712V14.176H442.476V18.712H471.428ZM475.572 3.424V21.904H438.388V3.424H475.572ZM459.612 39.32V46.936C461.628 47.16 463.868 47.272 466.22 47.272C468.292 47.272 479.884 47.272 482.74 47.216C482.18 48.168 481.508 49.96 481.284 51.192H466.052C454.796 51.192 447.684 49.4 443.148 41.84C440.964 46.208 438.052 49.68 434.412 52.368C433.852 51.64 432.228 50.072 431.332 49.4C437.156 45.648 440.684 39.376 442.196 31.2L446.396 31.76C446.004 33.72 445.5 35.568 444.94 37.36C447.124 42.4 450.708 44.976 455.524 46.264V29.408H432.564V25.656H481.732V29.408H459.612V35.624H478.092V39.32H459.612ZM526.028 9.416L522.332 11.04C521.716 8.856 520.148 5.552 518.636 3.088L522.108 1.632C523.732 4.096 525.356 7.232 526.028 9.416ZM500.212 10.704L497.3 13.616C495.564 11.208 491.924 7.456 488.9 4.88L491.644 2.416C494.668 4.824 498.476 8.408 500.212 10.704ZM497.356 41.84L503.012 37.584C503.292 38.648 504.076 40.216 504.58 41C495.116 48.392 493.604 49.624 492.764 50.688C492.26 49.904 490.916 48.504 490.188 47.888C491.308 46.936 493.324 44.808 493.324 41.896V22.632H485.484V18.656H497.356V41.84ZM510.74 36.8V44.416H520.708V36.8H510.74ZM520.708 22.072V15.016H510.74V22.072H520.708ZM520.708 33.048V25.88H510.74V33.048H520.708ZM536.332 44.416V48.28H510.74V52.368H506.82V19.384C505.532 21.232 504.244 22.968 502.788 24.424C502.172 23.584 500.996 22.072 500.156 21.288C505.084 16.192 509.172 7.96 511.244 1.464L515.332 2.528C514.324 5.328 513.036 8.296 511.636 11.208H534.764V15.016H524.628V22.072H533.476V25.88H524.628V33.048H533.476V36.8H524.628V44.416H536.332ZM547.532 34.448C545.796 25.04 557.444 22.464 557.444 16.08C557.444 12.384 555.26 9.584 550.5 9.584C547.252 9.584 544.284 11.152 541.484 14.232L538.46 11.432C541.876 7.848 545.628 5.384 551.06 5.384C558.004 5.384 562.428 9.36 562.428 15.632C562.428 24.2 550.612 25.992 552.124 34.448H547.532ZM545.404 43.856C545.404 41.168 547.476 39.488 549.94 39.488C552.404 39.488 554.42 41.168 554.42 43.856C554.42 46.544 552.404 48.28 549.94 48.28C547.476 48.28 545.404 46.544 545.404 43.856Z" fill="#A38373"/>
</svg>
