<svg width="213" height="53" viewBox="0 0 213 53" fill="none" xmlns="http://www.w3.org/2000/svg">
<path d="M3.432 12.16H47.952V16.304H3.432V12.16ZM6.008 28.624H45.6V32.712H6.008V28.624ZM0.856001 46.488H50.752V50.632H0.856001V46.488ZM23.424 15.464H27.96V48.616H23.424V15.464ZM18.608 3.536L22.024 1.184C25.664 3.76 30.2 7.568 32.384 10.256L28.744 12.888C26.728 10.256 22.304 6.28 18.608 3.536ZM98.408 1.856H102.552V46.936C102.552 49.736 101.824 50.912 100.032 51.584C98.184 52.256 95.048 52.312 89.84 52.312C89.616 51.248 88.944 49.4 88.328 48.28C92.248 48.448 95.832 48.392 96.896 48.336C97.96 48.28 98.408 47.944 98.408 46.936V1.856ZM87.432 7.512H91.464V38.648H87.432V7.512ZM61.224 21.456H77.352V25.208H61.224V21.456ZM59.432 21.456H63.52V45.48C63.52 47.608 64.024 48 66.88 48C68.224 48 74.944 48 76.68 48C79.256 48 79.704 46.824 79.984 40.104C80.88 40.832 82.56 41.504 83.68 41.728C83.176 49.512 81.944 51.696 76.96 51.696C75.672 51.696 67.72 51.696 66.544 51.696C61.112 51.696 59.432 50.464 59.432 45.536V21.456ZM75.84 21.456H79.872C79.872 21.456 79.816 22.632 79.76 23.136C79.256 32.88 78.696 36.632 77.408 38.032C76.512 39.04 75.616 39.376 74.216 39.488C73.04 39.6 70.856 39.6 68.672 39.488C68.56 38.368 68.168 36.856 67.552 35.848C69.68 36.072 71.64 36.128 72.424 36.128C73.152 36.128 73.6 36.016 74.048 35.568C74.832 34.616 75.392 31.256 75.84 22.128V21.456ZM68.112 6.168L70.912 3.816C75.784 8.744 81.888 15.408 84.744 19.608L81.72 22.464C78.92 18.208 72.928 11.208 68.112 6.168ZM69.008 1.072L72.872 2.248C69.288 10.48 63.352 18.432 56.072 24.088C55.4 23.248 53.888 21.792 52.992 21.176C60.048 16.08 66.04 8.296 69.008 1.072ZM131.056 0.959998H135.256V7.904H131.056V0.959998ZM109.328 5.496H157.096V15.408H153.064V9.136H113.248V15.408H109.328V5.496ZM115.432 13.672H150.992V17.088H115.432V13.672ZM131.28 9.864H135.312C134.08 20.112 130.272 24.816 115.04 27.112C114.704 26.216 113.808 24.704 113.136 23.92C127.136 22.128 130.328 18.432 131.28 9.864ZM129.768 20.392L131.84 17.76C138.336 19.328 146.848 22.296 151.328 24.704L149.2 27.728C144.888 25.32 136.432 22.184 129.768 20.392ZM108.432 27.112H158.048V30.864H108.432V27.112ZM145.784 29.52H149.928V47.776C149.928 50.128 149.424 51.248 147.576 51.864C145.84 52.48 142.928 52.48 138.504 52.48C138.336 51.36 137.72 49.792 137.16 48.616C140.632 48.728 143.712 48.728 144.608 48.728C145.504 48.616 145.784 48.448 145.784 47.664V29.52ZM115.768 34.336H119.688V49.568H115.768V34.336ZM117.672 34.336H137.776V46.712H117.672V43.408H133.8V37.64H117.672V34.336ZM178.88 3.032H210.744V6.784H178.88V3.032ZM176.92 24.368H212.592V28.232H176.92V24.368ZM181.568 32.824H208.84V52.312H204.696V36.576H185.544V52.48H181.568V32.824ZM183.528 46.6H206.376V50.296H183.528V46.6ZM190.584 4.488L194.84 4.936C193.496 11.936 191.368 21.176 189.968 26.552H185.6C187.28 20.896 189.408 11.376 190.584 4.488ZM180.84 13.056H204.08V16.752H180.84V13.056ZM203.128 13.056H203.52L204.192 12.832L207.104 13.112C206.824 17.368 206.264 22.464 205.76 26.384L201.784 26.104C202.344 22.072 202.904 16.528 203.128 13.56V13.056ZM164.432 5.104L167.176 2.528C170.144 4.992 174.008 8.576 175.744 10.872L172.944 13.84C171.152 11.432 167.456 7.736 164.432 5.104ZM161.464 18.544H171.488V22.576H161.464V18.544ZM169.416 50.8L168.744 46.936L169.976 45.2L179.888 38.592C180.112 39.712 180.672 41.336 181.064 42.176C171.712 48.672 170.2 49.792 169.416 50.8ZM169.416 50.8C169.024 49.792 167.96 47.944 167.232 47.048C168.072 46.488 169.248 45.256 169.248 42.96V18.544H173.224V46.656C173.224 46.656 169.416 49.288 169.416 50.8Z" fill="#A38373"/>
</svg>
