<svg width="977" height="53" viewBox="0 0 977 53" fill="none" xmlns="http://www.w3.org/2000/svg">
<path d="M35.9682 31.312V47.048H50.7522V50.968H17.0962V47.048H31.8242V31.312H19.2802V27.392H31.8242V16.696H35.9682V27.392H48.5682V31.312H35.9682ZM21.9122 9.808H50.7522V13.784H20.2322C18.2722 17.816 16.0882 21.624 13.4562 25.208V52.088H9.36818V30.136C7.40818 32.264 5.22418 34.112 2.87218 35.792C2.48018 34.672 1.41618 32.936 0.744182 32.04C7.12818 27.504 12.0562 20.896 15.5282 13.784H2.08818V9.808H17.3762C18.5522 6.952 19.5602 3.984 20.3442 1.128L24.6002 2.192C23.8722 4.712 22.9202 7.288 21.9122 9.808ZM102.756 48L102.7 24.48L91.1636 43.856H87.0756L75.5956 24.984V48H67.0836V8.8H74.5876L89.2596 33.16L103.708 8.8H111.156L111.268 48H102.756ZM137.312 48.672C133.243 48.672 129.565 47.7947 126.28 46.04C123.032 44.2853 120.475 41.8773 118.608 38.816C116.779 35.7173 115.864 32.2453 115.864 28.4C115.864 24.5547 116.779 21.1013 118.608 18.04C120.475 14.9413 123.032 12.5147 126.28 10.76C129.565 9.00533 133.243 8.128 137.312 8.128C141.381 8.128 145.04 9.00533 148.288 10.76C151.536 12.5147 154.093 14.9413 155.96 18.04C157.827 21.1013 158.76 24.5547 158.76 28.4C158.76 32.2453 157.827 35.7173 155.96 38.816C154.093 41.8773 151.536 44.2853 148.288 46.04C145.04 47.7947 141.381 48.672 137.312 48.672ZM137.312 40.944C139.627 40.944 141.717 40.4213 143.584 39.376C145.451 38.2933 146.907 36.8 147.952 34.896C149.035 32.992 149.576 30.8267 149.576 28.4C149.576 25.9733 149.035 23.808 147.952 21.904C146.907 20 145.451 18.5253 143.584 17.48C141.717 16.3973 139.627 15.856 137.312 15.856C134.997 15.856 132.907 16.3973 131.04 17.48C129.173 18.5253 127.699 20 126.616 21.904C125.571 23.808 125.048 25.9733 125.048 28.4C125.048 30.8267 125.571 32.992 126.616 34.896C127.699 36.8 129.173 38.2933 131.04 39.376C132.907 40.4213 134.997 40.944 137.312 40.944ZM199.01 48L198.954 24.48L187.418 43.856H183.33L171.85 24.984V48H163.338V8.8H170.842L185.514 33.16L199.962 8.8H207.41L207.522 48H199.01ZM244.934 40.72V48H214.582V8.8H244.206V16.08H223.598V24.592H241.798V31.648H223.598V40.72H244.934ZM285.865 8.8V48H278.417L258.873 24.2V48H249.913V8.8H257.417L276.905 32.6V8.8H285.865ZM301.019 16.192H288.475V8.8H322.635V16.192H310.091V48H301.019V16.192ZM345.056 22.184H379.552C379.552 22.184 379.496 23.64 379.44 24.2C378.656 41.168 377.928 47.552 376.024 49.68C374.792 51.08 373.616 51.528 371.656 51.64C369.808 51.808 366.336 51.752 362.864 51.528C362.808 50.296 362.304 48.56 361.52 47.384C365.16 47.72 368.52 47.776 369.864 47.776C371.04 47.776 371.656 47.608 372.272 47.048C373.672 45.648 374.456 40.16 375.128 26.272H359.952C358.44 37.304 354.744 47.328 340.688 52.48C340.128 51.416 338.952 49.736 338.056 48.952C351.216 44.528 354.296 35.68 355.584 26.272H344.832V22.408C343.432 23.92 341.92 25.264 340.464 26.496C339.68 25.656 337.944 24.088 336.88 23.304C343.544 18.488 349.2 10.76 352.448 2.248L356.872 3.48C354.016 10.592 349.76 17.144 345.056 22.184ZM368.072 3.704L371.824 2.136C375.296 9.696 382.016 18.096 387.84 22.464C386.72 23.304 385.264 24.872 384.48 25.992C378.656 20.896 371.992 11.936 368.072 3.704ZM440.144 6V9.64H391.76V6H414.216C413.656 4.544 412.928 2.864 412.256 1.576L416.4 0.735998C417.296 2.304 418.248 4.376 418.864 6H440.144ZM402.904 16.304V21.344H429.224V16.304H402.904ZM433.536 24.424H398.816V13.224H433.536V24.424ZM440.816 37.92V41.56H418.08V48.056C418.08 50.352 417.408 51.304 415.448 51.92C413.544 52.424 410.296 52.424 405.312 52.424C405.088 51.304 404.416 49.96 403.912 48.952C407.664 49.064 411.472 49.064 412.424 49.008C413.488 48.952 413.768 48.728 413.768 47.944V41.56H391.256V37.92H413.768V34.56C417.52 33.776 421.664 32.6 425.136 31.2H396.464V27.784H431.744L432.64 27.56L435.44 29.912C430.68 32.656 424.296 34.952 418.08 36.464V37.92H440.816ZM456.552 30.08H465.512C465.568 27.392 465.624 24.368 465.624 20.84H457.504C457.28 24.088 456.944 27.168 456.552 30.08ZM465.736 7.792H457.896C457.84 11.04 457.784 14.12 457.616 17.088H465.68L465.736 7.792ZM444.96 3.928H469.88C469.88 3.928 469.824 5.776 469.824 6.28C469.712 36.8 469.656 46.376 468.032 49.008C467.024 50.632 466.016 51.192 464.336 51.416C462.712 51.64 460.248 51.584 457.784 51.472C457.728 50.24 457.224 48.392 456.496 47.104C459.016 47.328 461.312 47.328 462.376 47.328C463.272 47.384 463.776 47.16 464.224 46.264C464.84 45.256 465.232 41.784 465.456 33.832H455.88C454.48 41.224 452.016 47.328 447.704 52.256C447.088 51.528 445.296 49.904 444.344 49.232C448.152 45.312 450.392 40.048 451.792 33.832H445.24V30.08H452.464C452.912 27.224 453.192 24.088 453.416 20.84H445.688V17.088H453.584C453.696 14.12 453.752 11.04 453.808 7.792H444.96V3.928ZM491.832 3.928L494.744 5.888C492.336 10.984 489.312 17.256 486.568 22.408C492.448 27.616 494.016 31.984 494.016 35.792C494.072 39.096 493.176 41.728 491.16 42.96C490.096 43.576 488.752 44.024 487.296 44.192C485.616 44.36 483.376 44.36 481.528 44.192C481.416 43.072 480.968 41.392 480.24 40.272C482.256 40.44 484.216 40.496 485.56 40.384C486.624 40.384 487.576 40.16 488.36 39.768C489.704 39.096 490.096 37.416 490.096 35.456C490.096 31.984 488.248 27.896 482.312 22.968C484.776 18.32 487.352 12.44 489.256 8.072H478.504V52.2H474.584V4.152H491.16L491.832 3.928ZM542.456 29.352H532.936C527.672 29.352 526.272 27.952 526.272 23.08V1.184H530.416V12.272C535.12 10.592 539.88 8.52 542.848 6.616L546.152 9.808C541.784 12.16 535.904 14.288 530.416 15.968V23.08C530.416 24.984 530.808 25.376 533.384 25.376H542.12C544.36 25.376 544.696 24.312 544.976 18.096C545.928 18.824 547.608 19.496 548.84 19.832C548.28 27.28 547.048 29.352 542.456 29.352ZM505.104 38.648V34.672H542.624V38.648H505.104ZM523.696 23.976L523.752 27.728C514.736 28.96 505.216 30.192 498.552 30.976L498.048 26.944L501.744 26.552V7.288H505.608V26.104L510.536 25.488V1.184H514.624V10.76H523.304V14.568H514.624V24.984L523.696 23.976ZM498.888 50.912V46.824H548.224V50.912H498.888ZM601.2 9.248H583.448C582.216 11.32 580.872 13.336 579.472 15.408V52.144H575.048V21.008C569.392 27.448 562.56 33.216 554.776 37.304C554.16 36.24 552.816 34.616 551.976 33.664C563.008 28.12 572.584 18.824 578.128 9.248H553.376V5.104H601.2V9.248ZM580.592 21.288L583.672 18.6C590.168 22.8 598.68 29.072 602.768 33.328L599.464 36.52C595.488 32.264 587.2 25.656 580.592 21.288ZM650.144 25.6H640.512C635.248 25.6 633.904 24.312 633.904 19.776V1.296H637.936V10.648C642.696 9.08 647.736 7.008 650.928 5.384L653.728 8.408C649.304 10.48 643.312 12.44 637.936 14.064V19.72C637.936 21.456 638.384 21.848 640.904 21.848H649.808C651.936 21.848 652.328 20.896 652.608 15.352C653.448 16.08 655.128 16.696 656.304 16.976C655.8 23.696 654.568 25.6 650.144 25.6ZM612.736 37.64H624.552V32.544H612.736V37.64ZM624.552 24.48H612.736V29.24H624.552V24.48ZM628.64 20.952V47.496C628.64 49.624 628.248 50.744 626.68 51.416C625.168 52.088 622.76 52.144 619.232 52.144C619.008 51.024 618.448 49.4 617.888 48.336C620.52 48.448 622.872 48.392 623.6 48.336C624.384 48.336 624.552 48.168 624.552 47.44V40.888H612.736V52.256H608.872V20.952H628.64ZM620.576 5.888L623.992 4.488C626.848 8.24 629.984 13.28 631.16 16.584L627.52 18.208C627.184 17.312 626.792 16.36 626.288 15.24C611 16.36 609.096 16.64 607.864 17.088C607.64 16.248 607.024 14.176 606.52 13.168C607.36 12.944 608.144 12.16 609.096 10.984C610.048 9.808 613.128 5.384 614.92 1.016L619.176 2.36C617.272 6.056 614.752 9.864 612.344 12.832L624.608 12.104C623.376 9.92 621.92 7.736 620.576 5.888ZM641.072 48.112H650.088C652.384 48.112 652.832 46.992 653.112 40.776C654.008 41.392 655.632 42.064 656.808 42.288C656.304 49.848 655.072 51.808 650.424 51.808H640.68C635.304 51.808 633.904 50.52 633.904 45.928V27.168H637.992V35.96C643.032 34.336 648.464 32.208 651.6 30.136L654.344 33.216C650.088 35.736 643.648 37.864 637.992 39.432V45.928C637.992 47.776 638.496 48.112 641.072 48.112ZM672.376 8.856L669.016 10.816C668.232 8.688 666.328 5.328 664.76 2.92L667.952 1.352C669.576 3.704 671.48 6.896 672.376 8.856ZM678.032 34.224L675.792 37.416C674.784 35.736 672.656 32.488 670.808 29.8V52.256H666.888V30.472C664.816 33.104 662.688 35.4 660.616 37.248C660.224 36.24 659.272 34.224 658.656 33.496C663.752 29.24 669.24 21.96 672.32 14.848H659.272V11.04H674.28L674.896 10.872L676.968 12.496C675.456 16.752 673.272 21.008 670.808 24.872V25.096C671.256 25.6 671.816 26.328 672.432 27.112C673.944 25.432 675.736 23.192 676.8 21.68L679.32 23.976C677.584 25.768 675.68 27.784 674.112 29.128C675.792 31.256 677.416 33.44 678.032 34.224ZM702.84 26.664H688.504C690.184 31.368 692.592 35.568 695.728 39.04C698.808 35.624 701.216 31.48 702.84 26.664ZM692.48 13.28H684.416V22.968H692.48V13.28ZM705.136 22.8L707.6 23.808C705.864 31.256 702.616 37.192 698.528 41.784C701.944 44.808 706.032 47.16 710.792 48.56C709.896 49.4 708.72 50.968 708.216 52.088C703.344 50.408 699.2 47.888 695.728 44.584C692.032 47.944 687.776 50.464 683.24 52.256C682.792 51.248 681.784 49.68 680.944 48.896C685.312 47.384 689.456 45.032 693.04 41.784C689.456 37.64 686.768 32.544 684.864 26.664H684.36C684.136 34.728 682.68 44.92 677.08 51.92C676.52 51.08 674.896 49.736 674.112 49.232C679.936 41.896 680.552 31.648 680.552 23.92V9.36H692.48V1.184H696.4V9.36H706.424L707.096 9.192L710.008 9.976C708.944 13.896 707.6 18.376 706.424 21.176L702.952 20.336C703.624 18.544 704.408 15.856 705.024 13.28H696.4V22.968H704.352L705.136 22.8ZM721.712 26.384V11.32H714.432V7.512H737.56C736.888 5.776 735.88 3.704 734.984 2.08L738.792 0.847996C740.024 2.92 741.312 5.552 741.984 7.512H762.312V11.32H725.8V22.52H759.68V26.384H721.712ZM733.864 30.08L737.112 28.232C740.304 31.144 743.832 35.288 745.456 38.088L741.984 40.16C740.528 37.416 737 33.048 733.864 30.08ZM717.008 48.504L713.256 46.656C715.776 43.296 717.96 38.032 719.248 34.168L722.888 35.568C721.432 39.544 719.36 44.976 717.008 48.504ZM734.424 46.936H746.744C749.712 46.936 750.216 46.096 750.496 40.496C751.448 41.112 753.184 41.784 754.36 42.008C753.744 49.064 752.456 50.8 747.024 50.8H734.2C727.76 50.8 726.08 49.568 726.08 45.032V33.944H730.224V45.032C730.224 46.656 730.84 46.936 734.424 46.936ZM753.52 34.448L757.16 33.048C759.96 37.248 762.816 42.792 763.824 46.376L759.904 48C758.952 44.416 756.264 38.704 753.52 34.448ZM783.144 11.152L780.12 14.064C778.384 11.656 774.576 7.792 771.496 5.104L774.352 2.584C777.32 5.16 781.24 8.8 783.144 11.152ZM780.064 42.736L785.888 38.76C786.168 39.88 786.784 41.504 787.232 42.344C777.936 48.952 776.48 50.072 775.64 51.136V51.192C775.192 50.296 774.072 48.784 773.344 48.112C774.352 47.272 775.976 45.424 775.976 42.68V22.688H767.128V18.656H780.064V42.736ZM797.368 47.44H809.632C813.104 47.44 813.664 46.04 814 38.144C815.008 38.872 816.8 39.6 818.032 39.88C817.36 48.952 816.016 51.472 809.912 51.472H797.088C790.816 51.472 788.856 50.072 788.856 44.696V23.304H809.968V9.192H787.792V5.104H814.056V30.192H809.968V27.28H793.056V44.696C793.056 46.936 793.784 47.44 797.368 47.44ZM838.696 25.544V13.84H826.936V25.544H838.696ZM826.936 42.68H838.696V29.24H826.936V42.68ZM831.64 1.016L836.12 1.856C835.168 4.6 834.16 7.68 833.208 10.088H842.504V46.432H826.936V50.856H823.128V10.088H829.4C830.24 7.4 831.248 3.648 831.64 1.016ZM869.888 9.92V12.048C868.992 37.584 868.264 46.208 866.024 48.952C864.792 50.52 863.504 51.024 861.6 51.192C859.64 51.416 856.448 51.304 853.312 51.136C853.2 49.904 852.696 48.224 851.912 47.048C855.552 47.384 858.912 47.384 860.2 47.384C861.32 47.384 861.936 47.272 862.496 46.544C864.344 44.584 865.184 36.072 865.912 13.784H851.688C850.12 17.536 848.384 20.952 846.424 23.584C845.696 22.912 843.904 21.792 843.008 21.232C846.76 16.304 849.784 8.576 851.576 0.903999L855.552 1.856C854.88 4.6 854.096 7.288 853.144 9.92H869.888ZM861.04 35.12L857.512 37.304C855.832 33.944 852.08 28.4 849 24.368L852.248 22.464C855.384 26.44 859.248 31.816 861.04 35.12ZM920.624 1.576L922.696 4.488C915.248 6.448 902.424 7.344 892.456 7.4C892.344 6.56 891.952 5.216 891.504 4.376C901.416 4.152 914.072 3.256 920.624 1.576ZM910.6 14.624L907.24 16.08C906.68 14.064 905.504 10.76 904.384 8.296L907.576 7.064C908.752 9.416 910.04 12.664 910.6 14.624ZM879.352 39.32H885.904V31.2H879.352V39.32ZM885.904 19.664H879.352V27.616H885.904V19.664ZM885.904 8.296H879.352V16.08H885.904V8.296ZM904.72 25.936L907.016 26.608C904.832 39.488 899.232 47.384 891.56 51.752C891.112 50.912 890.16 49.624 889.376 48.896C892.96 47.104 896.096 44.248 898.56 40.384C897.384 39.096 895.984 37.808 894.696 36.744L896.6 34.504C897.72 35.4 899.008 36.464 900.072 37.584C901.36 35.12 902.312 32.32 902.984 29.24H897.776C896.152 33.048 894.136 36.352 891.896 38.872C891.28 38.368 890.16 37.64 889.264 37.192V43.072H879.352V47.888H876.048V4.6H889.264V36.688C892.848 32.992 895.424 27.448 896.824 21.568L900.184 22.184C899.848 23.472 899.456 24.816 899.008 26.048H904.16L904.72 25.936ZM918.832 29.688V38.368H923.872V41.672H918.832V52.144H915.472V41.672H906.904C907.296 38.928 907.632 34.672 907.688 31.368H910.936C910.824 33.608 910.712 36.128 910.544 38.368H915.472V29.688H907.24V26.328H915.472V21.792H918.832V26.328H923.704V29.688H918.832ZM917.04 16.248H924.432V24.368H920.68V19.552H895.256V24.368H891.616V16.248H897.664C896.936 14.4 895.536 11.432 894.36 9.304L897.44 7.904C898.728 10.088 900.296 13.056 900.968 14.848L898.224 16.248H913.344C915.136 13.728 917.376 9.584 918.608 6.728L922.192 8.184C920.568 10.872 918.664 13.896 917.04 16.248ZM930.928 52.312V13.728H935.128V52.312H930.928ZM931.768 3.872L934.96 1.912C937.536 4.208 940.56 7.512 941.848 9.808L938.488 12.048C937.2 9.808 934.288 6.336 931.768 3.872ZM946.888 31.424V38.928H960.216V31.424H946.888ZM946.888 20.504V27.952H960.216V20.504H946.888ZM943.136 42.4V17.032H964.136V42.4H943.136ZM976.512 4.32V47.216C976.512 49.568 976.008 50.632 974.552 51.304C973.096 52.032 970.744 52.088 967.328 52.088C967.104 50.968 966.544 49.288 965.984 48.168C968.336 48.28 970.688 48.224 971.304 48.224C972.032 48.224 972.256 47.944 972.256 47.216V8.24H945.376V4.32H976.512Z" fill="#A38373"/>
</svg>
